<svg width="320" height="320" viewBox="0 0 320 320" fill="none" xmlns="http://www.w3.org/2000/svg">
<g clip-path="url(#clip0_52_29)">
<rect width="320" height="320" fill="#09789B"/>
<mask id="path-1-outside-1_52_29" maskUnits="userSpaceOnUse" x="104.834" y="127.796" width="154.176" height="79.1902" fill="black">
<rect fill="white" x="104.834" y="127.796" width="154.176" height="79.1902"/>
<path d="M133.555 204.951C128.088 204.957 123.958 203.563 121.165 200.766C118.437 197.969 117.08 194.038 117.091 188.971L117.158 158.771L107.658 158.783L107.676 150.983L117.176 150.971L117.205 137.671L126.705 137.66L126.676 150.959L139.576 150.944L139.558 158.744L126.658 158.759L126.591 188.959C126.585 191.626 127.314 193.592 128.778 194.857C130.242 196.055 132.374 196.652 135.174 196.649C136.64 196.647 138.041 196.545 139.374 196.344C140.708 196.142 141.375 196.041 141.375 196.041L141.357 204.141C141.357 204.141 140.59 204.275 139.056 204.544C137.522 204.812 135.688 204.948 133.555 204.951Z"/>
<path d="M151.331 203.929L177.596 129.897L189.896 129.881L215.931 203.849L205.531 203.862L199.37 186.169L167.97 186.208L161.731 203.916L151.331 203.929ZM170.99 177.405L196.39 177.373L183.771 141.089L170.99 177.405ZM227.464 203.835L227.582 150.835L237.082 150.823L237.067 157.423L237.467 157.423C238.605 155.421 240.276 153.652 242.479 152.116C244.682 150.58 247.784 149.81 251.784 149.805C252.917 149.803 253.951 149.869 254.884 150.001C255.817 150.067 256.283 150.099 256.283 150.099L256.263 159.199C256.263 159.199 255.73 159.167 254.663 159.101C253.664 158.969 252.597 158.904 251.464 158.905C246.864 158.911 243.294 160.249 240.755 162.918C238.282 165.521 237.04 169.79 237.026 175.723L236.964 203.823L227.464 203.835Z"/>
</mask>
<path d="M133.555 204.951C128.088 204.957 123.958 203.563 121.165 200.766C118.437 197.969 117.08 194.038 117.091 188.971L117.158 158.771L107.658 158.783L107.676 150.983L117.176 150.971L117.205 137.671L126.705 137.66L126.676 150.959L139.576 150.944L139.558 158.744L126.658 158.759L126.591 188.959C126.585 191.626 127.314 193.592 128.778 194.857C130.242 196.055 132.374 196.652 135.174 196.649C136.64 196.647 138.041 196.545 139.374 196.344C140.708 196.142 141.375 196.041 141.375 196.041L141.357 204.141C141.357 204.141 140.59 204.275 139.056 204.544C137.522 204.812 135.688 204.948 133.555 204.951Z" fill="white"/>
<path d="M151.331 203.929L177.596 129.897L189.896 129.881L215.931 203.849L205.531 203.862L199.37 186.169L167.97 186.208L161.731 203.916L151.331 203.929ZM170.99 177.405L196.39 177.373L183.771 141.089L170.99 177.405ZM227.464 203.835L227.582 150.835L237.082 150.823L237.067 157.423L237.467 157.423C238.605 155.421 240.276 153.652 242.479 152.116C244.682 150.58 247.784 149.81 251.784 149.805C252.917 149.803 253.951 149.869 254.884 150.001C255.817 150.067 256.283 150.099 256.283 150.099L256.263 159.199C256.263 159.199 255.73 159.167 254.663 159.101C253.664 158.969 252.597 158.904 251.464 158.905C246.864 158.911 243.294 160.249 240.755 162.918C238.282 165.521 237.04 169.79 237.026 175.723L236.964 203.823L227.464 203.835Z" fill="#62D5FA"/>
<path d="M121.165 200.766L119.73 202.165L119.739 202.173L119.747 202.182L121.165 200.766ZM117.158 158.771L119.158 158.769L119.163 156.769L117.163 156.771L117.158 158.771ZM107.658 158.783L105.658 158.785L105.654 160.785L107.654 160.783L107.658 158.783ZM107.676 150.983L107.68 148.983L105.68 148.985L105.676 150.985L107.676 150.983ZM117.176 150.971L117.171 152.971L119.171 152.969L119.176 150.969L117.176 150.971ZM117.205 137.671L117.21 135.671L115.21 135.674L115.205 137.674L117.205 137.671ZM126.705 137.66L128.705 137.657L128.71 135.657L126.71 135.66L126.705 137.66ZM126.676 150.959L124.676 150.962L124.671 152.962L126.671 152.959L126.676 150.959ZM139.576 150.944L141.576 150.941L141.58 148.941L139.58 148.944L139.576 150.944ZM139.558 158.744L139.554 160.744L141.554 160.741L141.558 158.741L139.558 158.744ZM126.658 158.759L126.663 156.759L124.663 156.762L124.658 158.762L126.658 158.759ZM128.778 194.857L127.467 196.372L127.487 196.389L127.508 196.406L128.778 194.857ZM141.375 196.041L143.375 196.039L143.38 193.716L141.083 194.064L141.375 196.041ZM141.357 204.141L141.695 206.111L143.353 205.821L143.357 204.139L141.357 204.141ZM139.056 204.544L138.718 202.574L138.718 202.574L139.056 204.544ZM133.56 202.951C128.417 202.957 124.878 201.648 122.582 199.35L119.747 202.182C123.039 205.477 127.76 206.958 133.551 206.951L133.56 202.951ZM122.599 199.367C120.334 197.044 119.08 193.673 119.091 188.969L115.091 188.974C115.079 194.402 116.541 198.895 119.73 202.165L122.599 199.367ZM119.091 188.969L119.158 158.769L115.158 158.774L115.091 188.974L119.091 188.969ZM117.163 156.771L107.663 156.783L107.654 160.783L117.154 160.771L117.163 156.771ZM109.658 158.78L109.676 150.981L105.676 150.985L105.658 158.785L109.658 158.78ZM107.671 152.983L117.171 152.971L117.18 148.971L107.68 148.983L107.671 152.983ZM119.176 150.969L119.205 137.669L115.205 137.674L115.176 150.974L119.176 150.969ZM117.201 139.671L126.701 139.66L126.71 135.66L117.21 135.671L117.201 139.671ZM124.705 137.662L124.676 150.962L128.676 150.957L128.705 137.657L124.705 137.662ZM126.671 152.959L139.571 152.944L139.58 148.944L126.68 148.959L126.671 152.959ZM137.576 150.946L137.558 158.746L141.558 158.741L141.576 150.941L137.576 150.946ZM139.563 156.744L126.663 156.759L126.654 160.759L139.554 160.744L139.563 156.744ZM124.658 158.762L124.591 188.962L128.591 188.957L128.658 158.757L124.658 158.762ZM124.591 188.962C124.584 191.981 125.417 194.6 127.467 196.372L130.088 193.341C129.211 192.583 128.586 191.271 128.591 188.957L124.591 188.962ZM127.508 196.406C129.464 198.007 132.121 198.653 135.169 198.649L135.178 194.649C132.627 194.652 131.019 194.102 130.048 193.307L127.508 196.406ZM135.169 198.649C136.727 198.647 138.226 198.539 139.667 198.321L139.082 194.366C137.855 194.552 136.554 194.647 135.178 194.649L135.169 198.649ZM139.667 198.321C139.669 198.321 139.672 198.32 139.674 198.32C139.677 198.319 139.68 198.319 139.682 198.319C139.69 198.318 139.69 198.317 139.698 198.316C139.7 198.316 139.703 198.316 139.705 198.315C139.708 198.315 139.711 198.314 139.713 198.314C139.716 198.314 139.718 198.313 139.721 198.313C139.724 198.312 139.726 198.312 139.729 198.312C139.729 198.312 139.79 198.302 139.79 198.302C139.847 198.294 139.853 198.293 139.909 198.284C139.932 198.281 139.944 198.279 139.967 198.276C139.985 198.273 139.978 198.274 139.996 198.271C140 198.271 140.02 198.268 140.024 198.267C140.033 198.266 140.072 198.26 140.08 198.259C140.115 198.253 140.073 198.26 140.108 198.254C140.11 198.254 140.113 198.254 140.115 198.253C140.117 198.253 140.12 198.253 140.122 198.252C140.122 198.252 140.136 198.25 140.136 198.25C140.144 198.249 140.236 198.235 140.243 198.234C140.308 198.224 140.283 198.228 140.347 198.218C140.362 198.216 140.531 198.19 140.542 198.189C140.655 198.172 140.614 198.178 140.722 198.162C140.724 198.161 140.73 198.16 140.732 198.16C140.734 198.16 140.736 198.159 140.738 198.159C140.739 198.159 140.741 198.159 140.743 198.158C140.745 198.158 140.762 198.155 140.764 198.155C140.771 198.154 140.768 198.155 140.775 198.154C140.775 198.153 140.784 198.152 140.785 198.152C140.787 198.152 140.788 198.151 140.79 198.151C140.792 198.151 140.794 198.151 140.795 198.15C140.797 198.15 140.799 198.15 140.801 198.15C140.802 198.149 140.804 198.149 140.806 198.149C140.809 198.148 140.813 198.148 140.816 198.147C140.818 198.147 140.824 198.146 140.826 198.146C140.828 198.146 140.829 198.145 140.831 198.145C140.833 198.145 140.834 198.144 140.836 198.144C140.842 198.143 140.84 198.144 140.846 198.143C140.848 198.142 140.85 198.142 140.851 198.142C140.853 198.142 140.855 198.141 140.856 198.141C140.86 198.141 140.862 198.14 140.866 198.14C140.878 198.138 140.873 198.139 140.886 198.137C140.91 198.133 141.015 198.117 141.034 198.114C141.072 198.109 141.066 198.109 141.103 198.104C141.117 198.102 141.154 198.096 141.167 198.094C141.278 198.077 141.514 198.042 141.542 198.037C141.572 198.033 141.573 198.033 141.597 198.029C141.612 198.027 141.626 198.025 141.636 198.023C141.64 198.023 141.647 198.022 141.65 198.021C141.656 198.02 141.655 198.021 141.659 198.02C141.66 198.02 141.66 198.02 141.66 198.02C141.661 198.02 141.661 198.02 141.661 198.019C141.661 198.019 141.663 198.019 141.663 198.019C141.663 198.019 141.665 198.019 141.665 198.019C141.666 198.019 141.665 198.019 141.666 198.019C141.666 198.019 141.666 198.019 141.667 198.019C141.667 198.019 141.667 198.019 141.667 198.019C141.667 198.019 141.667 198.019 141.667 198.019C141.667 198.019 141.667 198.019 141.667 198.019C141.667 198.019 141.667 198.019 141.667 198.019C141.667 198.019 141.667 198.019 141.667 198.019C141.667 198.019 141.667 198.019 141.667 198.019C141.667 198.019 141.667 198.019 141.667 198.019C141.667 198.019 141.667 198.019 141.667 198.019C141.667 198.019 141.667 198.019 141.375 196.041C141.083 194.064 141.083 194.064 141.083 194.064C141.083 194.064 141.083 194.064 141.083 194.064C141.083 194.064 141.083 194.064 141.083 194.064C141.083 194.064 141.083 194.064 141.082 194.064C141.082 194.064 141.082 194.064 141.082 194.064C141.082 194.064 141.082 194.064 141.082 194.064C141.082 194.064 141.081 194.064 141.081 194.064C141.08 194.064 141.077 194.065 141.075 194.065C141.075 194.065 141.074 194.065 141.074 194.065C141.074 194.065 141.074 194.065 141.073 194.065C141.073 194.065 141.073 194.065 141.073 194.065C141.073 194.065 141.072 194.065 141.072 194.065C141.072 194.065 141.072 194.065 141.072 194.065C141.072 194.065 141.071 194.065 141.071 194.065C141.071 194.065 141.071 194.065 141.071 194.065C141.07 194.065 141.068 194.066 141.068 194.066C141.068 194.066 141.068 194.066 141.067 194.066C141.067 194.066 141.067 194.066 141.067 194.066C141.066 194.066 141.065 194.066 141.065 194.066C141.064 194.066 141.054 194.068 141.051 194.068C141.038 194.07 140.992 194.077 140.958 194.082C140.954 194.083 140.896 194.092 140.887 194.093C140.885 194.094 140.85 194.099 140.846 194.099C140.833 194.101 140.816 194.104 140.801 194.106C140.772 194.111 140.734 194.116 140.7 194.121C140.673 194.126 140.615 194.134 140.583 194.139C140.358 194.173 139.64 194.282 139.082 194.366L139.667 198.321ZM139.375 196.044L139.357 204.144L143.357 204.139L143.375 196.039L139.375 196.044ZM141.357 204.141C141.019 202.171 141.019 202.171 141.019 202.171C141.019 202.171 141.019 202.171 141.019 202.171C141.019 202.171 141.019 202.171 141.019 202.171C141.019 202.171 141.019 202.171 141.018 202.171C141.018 202.171 141.018 202.171 141.018 202.171C141.018 202.171 141.018 202.171 141.018 202.171C141.018 202.171 141.018 202.171 141.018 202.171C141.018 202.171 141.018 202.171 141.018 202.171C141.018 202.171 141.017 202.171 141.017 202.171C141.017 202.171 141.017 202.171 141.017 202.171C141.017 202.171 141.017 202.171 141.017 202.171C141.017 202.171 141.016 202.171 141.016 202.171C141.016 202.172 141.012 202.172 141.01 202.173C141.007 202.173 141.003 202.174 140.998 202.175C140.981 202.178 141.002 202.174 140.983 202.177C140.975 202.179 140.951 202.183 140.938 202.185C140.909 202.19 140.91 202.19 140.875 202.196C140.867 202.198 140.846 202.201 140.837 202.203C140.789 202.211 140.843 202.202 140.794 202.21C140.792 202.211 140.703 202.226 140.695 202.228C140.64 202.237 140.523 202.258 140.443 202.272C140.416 202.277 140.172 202.319 140.12 202.328C140.004 202.349 139.864 202.373 139.724 202.398C139.485 202.44 139.053 202.515 138.718 202.574L139.394 206.514C140.306 206.354 140.592 206.304 141.12 206.212C141.276 206.184 141.491 206.147 141.551 206.136C141.664 206.116 141.57 206.133 141.659 206.117C141.685 206.113 141.667 206.116 141.686 206.113C141.687 206.112 141.687 206.112 141.688 206.112C141.689 206.112 141.689 206.112 141.689 206.112C141.689 206.112 141.69 206.112 141.69 206.112C141.69 206.112 141.69 206.112 141.69 206.112C141.691 206.112 141.691 206.112 141.692 206.112C141.692 206.112 141.693 206.111 141.693 206.111C141.694 206.111 141.694 206.111 141.695 206.111C141.695 206.111 141.695 206.111 141.695 206.111C141.695 206.111 141.695 206.111 141.695 206.111C141.695 206.111 141.695 206.111 141.695 206.111C141.695 206.111 141.695 206.111 141.357 204.141ZM138.718 202.574C137.33 202.817 135.617 202.948 133.56 202.951L133.551 206.951C135.76 206.948 137.714 206.808 139.394 206.514L138.718 202.574ZM151.331 203.929L149.446 203.266L148.5 205.932L151.326 205.929L151.331 203.929ZM177.596 129.897L177.6 127.897L176.185 127.898L175.711 129.234L177.596 129.897ZM189.896 129.881L191.783 129.212L191.314 127.88L189.9 127.881L189.896 129.881ZM215.931 203.849L215.926 205.849L218.756 205.845L217.818 203.179L215.931 203.849ZM205.531 203.862L203.642 204.525L204.108 205.863L205.526 205.862L205.531 203.862ZM199.37 186.169L201.259 185.506L200.793 184.168L199.375 184.169L199.37 186.169ZM167.97 186.208L167.975 184.208L166.556 184.21L166.084 185.549L167.97 186.208ZM161.731 203.916L161.726 205.916L163.145 205.914L163.617 204.575L161.731 203.916ZM170.99 177.405L169.104 176.746L168.167 179.408L170.985 179.405L170.99 177.405ZM196.39 177.373L196.385 179.373L199.204 179.37L198.279 176.71L196.39 177.373ZM183.771 141.089L185.66 140.426L183.785 135.033L181.885 140.431L183.771 141.089ZM153.215 204.592L179.481 130.56L175.711 129.234L149.446 203.266L153.215 204.592ZM177.592 131.897L189.892 131.881L189.9 127.881L177.6 127.897L177.592 131.897ZM188.009 130.551L214.044 204.519L217.818 203.179L191.783 129.212L188.009 130.551ZM215.935 201.849L205.535 201.862L205.526 205.862L215.926 205.849L215.935 201.849ZM207.42 203.198L201.259 185.506L197.481 186.833L203.642 204.525L207.42 203.198ZM199.375 184.169L167.975 184.208L167.966 188.208L199.366 188.169L199.375 184.169ZM166.084 185.549L159.845 203.257L163.617 204.575L169.856 186.867L166.084 185.549ZM161.735 201.916L151.335 201.929L151.326 205.929L161.726 205.916L161.735 201.916ZM170.985 179.405L196.385 179.373L196.394 175.373L170.994 175.405L170.985 179.405ZM198.279 176.71L185.66 140.426L181.882 141.752L194.501 178.036L198.279 176.71ZM181.885 140.431L169.104 176.746L172.876 178.063L185.657 141.747L181.885 140.431ZM227.464 203.835L225.464 203.837L225.459 205.837L227.459 205.835L227.464 203.835ZM227.582 150.835L227.586 148.835L225.586 148.837L225.582 150.837L227.582 150.835ZM237.082 150.823L239.082 150.821L239.086 148.821L237.086 148.823L237.082 150.823ZM237.067 157.423L235.067 157.425L235.063 159.425L237.063 159.423L237.067 157.423ZM237.467 157.423L237.463 159.423L238.628 159.421L239.205 158.406L237.467 157.423ZM242.479 152.116L243.619 153.756L243.619 153.756L242.479 152.116ZM254.884 150.001L254.596 151.981L254.666 151.991L254.737 151.996L254.884 150.001ZM256.283 150.099L258.283 150.097L258.288 148.235L256.43 148.104L256.283 150.099ZM256.263 159.199L256.134 161.196L258.258 161.326L258.263 159.197L256.263 159.199ZM254.663 159.101L254.395 161.084L254.464 161.093L254.534 161.098L254.663 159.101ZM240.755 162.918L239.308 161.543L239.307 161.544L240.755 162.918ZM236.964 203.823L236.959 205.823L238.959 205.82L238.964 203.82L236.964 203.823ZM229.464 203.832L229.582 150.832L225.582 150.837L225.464 203.837L229.464 203.832ZM227.577 152.835L237.077 152.823L237.086 148.823L227.586 148.835L227.577 152.835ZM235.082 150.825L235.067 157.425L239.067 157.421L239.082 150.821L235.082 150.825ZM237.063 159.423L237.463 159.423L237.472 155.423L237.072 155.423L237.063 159.423ZM239.205 158.406C240.172 156.705 241.62 155.149 243.619 153.756L241.339 150.477C238.931 152.156 237.038 154.137 235.729 156.439L239.205 158.406ZM243.619 153.756C245.358 152.543 247.999 151.81 251.78 151.805L251.789 147.805C247.57 147.81 244.007 148.617 241.339 150.477L243.619 153.756ZM251.78 151.805C252.837 151.804 253.773 151.865 254.596 151.981L255.171 148.021C254.128 147.873 252.998 147.803 251.789 147.805L251.78 151.805ZM254.737 151.996C254.76 151.998 255.057 152.019 255.065 152.019C255.073 152.02 255.207 152.029 255.212 152.03C255.216 152.03 255.279 152.034 255.282 152.034C255.311 152.036 255.322 152.037 255.349 152.039C255.67 152.062 255.524 152.051 255.787 152.07C255.808 152.071 255.808 152.071 255.829 152.073C255.839 152.074 255.859 152.075 255.869 152.076C255.932 152.08 255.88 152.076 255.94 152.081C256.013 152.086 255.991 152.084 256.049 152.088C256.056 152.089 256.084 152.091 256.087 152.091C256.127 152.094 256.078 152.09 256.115 152.093C256.116 152.093 256.119 152.093 256.12 152.093C256.12 152.093 256.122 152.093 256.122 152.093C256.122 152.093 256.124 152.094 256.124 152.094C256.124 152.094 256.128 152.094 256.128 152.094C256.129 152.094 256.131 152.094 256.131 152.094C256.132 152.094 256.135 152.094 256.135 152.094C256.136 152.094 256.135 152.094 256.136 152.094C256.136 152.094 256.136 152.094 256.136 152.094C256.136 152.094 256.136 152.094 256.136 152.094C256.136 152.094 256.136 152.094 256.136 152.094C256.136 152.094 256.136 152.094 256.136 152.094C256.136 152.094 256.136 152.094 256.136 152.094C256.136 152.094 256.136 152.094 256.136 152.094C256.136 152.094 256.136 152.094 256.136 152.094C256.136 152.094 256.136 152.094 256.283 150.099C256.43 148.104 256.43 148.104 256.43 148.104C256.43 148.104 256.43 148.104 256.43 148.104C256.43 148.104 256.43 148.104 256.43 148.104C256.43 148.104 256.43 148.104 256.43 148.104C256.43 148.104 256.43 148.104 256.43 148.104C256.43 148.104 256.43 148.104 256.43 148.104C256.43 148.104 256.43 148.104 256.43 148.104C256.43 148.104 256.43 148.104 256.43 148.104C256.43 148.104 256.43 148.104 256.43 148.104C256.43 148.104 256.43 148.104 256.429 148.104C256.429 148.104 256.429 148.104 256.429 148.104C256.429 148.104 256.429 148.104 256.429 148.104C256.427 148.104 256.429 148.104 256.427 148.104C256.427 148.104 256.425 148.104 256.425 148.104C256.423 148.104 256.414 148.103 256.409 148.103C256.401 148.102 256.365 148.1 256.343 148.098C256.334 148.097 256.306 148.095 256.294 148.095C256.248 148.091 256.283 148.094 256.234 148.09C256.146 148.084 256.183 148.087 256.08 148.08C256.047 148.077 255.932 148.069 255.884 148.066C255.859 148.064 255.797 148.06 255.769 148.058C255.765 148.057 255.758 148.057 255.754 148.057C255.735 148.055 255.757 148.057 255.738 148.056C255.712 148.054 255.733 148.055 255.707 148.053C255.623 148.048 255.728 148.055 255.643 148.049C255.41 148.033 255.322 148.026 255.031 148.006L254.737 151.996ZM254.283 150.102L254.263 159.202L258.263 159.197L258.283 150.097L254.283 150.102ZM256.263 159.199C256.392 157.203 256.392 157.203 256.392 157.203C256.392 157.203 256.392 157.203 256.392 157.203C256.392 157.203 256.392 157.203 256.392 157.203C256.392 157.203 256.392 157.203 256.392 157.203C256.392 157.203 256.392 157.203 256.392 157.203C256.392 157.203 256.392 157.203 256.392 157.203C256.392 157.203 256.392 157.203 256.392 157.203C256.392 157.203 256.392 157.203 256.392 157.203C256.392 157.203 256.392 157.203 256.392 157.203C256.392 157.203 256.392 157.203 256.392 157.203C256.392 157.203 256.392 157.203 256.392 157.203C256.392 157.203 256.392 157.203 256.391 157.203C256.391 157.203 256.391 157.203 256.391 157.203C256.391 157.203 256.391 157.203 256.391 157.203C256.391 157.203 256.391 157.203 256.391 157.203C256.391 157.203 256.391 157.203 256.391 157.203C256.391 157.203 256.391 157.203 256.391 157.203C256.391 157.203 256.39 157.203 256.39 157.203C256.39 157.203 256.39 157.203 256.39 157.203C256.39 157.203 256.39 157.203 256.39 157.203C256.39 157.203 256.39 157.203 256.39 157.203C256.39 157.203 256.389 157.203 256.389 157.203C256.389 157.203 256.389 157.203 256.389 157.203C256.389 157.203 256.389 157.203 256.389 157.203C256.389 157.203 256.389 157.203 256.389 157.203C256.388 157.203 256.388 157.203 256.388 157.203C256.388 157.203 256.388 157.203 256.388 157.203C256.388 157.203 256.388 157.203 256.388 157.203C256.387 157.203 256.387 157.203 256.387 157.203C256.387 157.203 256.387 157.203 256.387 157.203C256.387 157.203 256.387 157.203 256.386 157.203C256.386 157.203 256.386 157.203 256.386 157.203C256.386 157.203 256.386 157.203 256.386 157.203C256.386 157.203 256.385 157.203 256.385 157.203C256.385 157.203 256.385 157.203 256.385 157.203C256.385 157.203 256.385 157.203 256.384 157.203C256.384 157.203 256.384 157.203 256.384 157.203C256.384 157.202 256.384 157.202 256.384 157.202C256.383 157.202 256.383 157.202 256.383 157.202C256.383 157.202 256.383 157.202 256.383 157.202C256.382 157.202 256.382 157.202 256.382 157.202C256.382 157.202 256.382 157.202 256.382 157.202C256.381 157.202 256.381 157.202 256.381 157.202C256.381 157.202 256.381 157.202 256.381 157.202C256.38 157.202 256.38 157.202 256.38 157.202C256.38 157.202 256.38 157.202 256.379 157.202C256.379 157.202 256.379 157.202 256.379 157.202C256.379 157.202 256.378 157.202 256.378 157.202C256.378 157.202 256.378 157.202 256.378 157.202C256.377 157.202 256.377 157.202 256.377 157.202C256.377 157.202 256.377 157.202 256.376 157.202C256.376 157.202 256.376 157.202 256.376 157.202C256.376 157.202 256.375 157.202 256.375 157.202C256.375 157.202 256.375 157.202 256.375 157.202C256.374 157.202 256.374 157.202 256.374 157.202C256.374 157.202 256.373 157.202 256.373 157.202C256.373 157.202 256.373 157.202 256.373 157.202C256.372 157.202 256.372 157.202 256.372 157.202C256.372 157.202 256.371 157.202 256.371 157.202C256.371 157.202 256.371 157.202 256.37 157.202C256.37 157.202 256.37 157.202 256.37 157.202C256.369 157.202 256.369 157.202 256.369 157.202C256.369 157.202 256.368 157.202 256.368 157.202C256.368 157.202 256.368 157.202 256.367 157.201C256.367 157.201 256.367 157.201 256.367 157.201C256.366 157.201 256.366 157.201 256.366 157.201C256.365 157.201 256.365 157.201 256.365 157.201C256.365 157.201 256.364 157.201 256.364 157.201C256.364 157.201 256.364 157.201 256.363 157.201C256.363 157.201 256.363 157.201 256.362 157.201C256.362 157.201 256.362 157.201 256.362 157.201C256.361 157.201 256.361 157.201 256.361 157.201C256.36 157.201 256.36 157.201 256.36 157.201C256.36 157.201 256.359 157.201 256.359 157.201C256.359 157.201 256.358 157.201 256.358 157.201C256.358 157.201 256.357 157.201 256.357 157.201C256.357 157.201 256.356 157.201 256.356 157.201C256.356 157.201 256.356 157.201 256.355 157.201C256.355 157.201 256.355 157.201 256.354 157.201C256.354 157.201 256.354 157.201 256.353 157.201C256.353 157.201 256.353 157.201 256.352 157.201C256.352 157.201 256.352 157.201 256.351 157.201C256.351 157.2 256.351 157.2 256.35 157.2C256.35 157.2 256.35 157.2 256.349 157.2C256.349 157.2 256.349 157.2 256.348 157.2C256.348 157.2 256.348 157.2 256.347 157.2C256.347 157.2 256.347 157.2 256.346 157.2C256.346 157.2 256.345 157.2 256.345 157.2C256.345 157.2 256.344 157.2 256.344 157.2C256.344 157.2 256.343 157.2 256.343 157.2C256.343 157.2 256.342 157.2 256.342 157.2C256.341 157.2 256.341 157.2 256.341 157.2C256.34 157.2 256.34 157.2 256.34 157.2C256.339 157.2 256.339 157.2 256.338 157.2C256.338 157.2 256.338 157.2 256.337 157.2C256.337 157.2 256.336 157.2 256.336 157.2C256.336 157.2 256.335 157.2 256.335 157.199C256.335 157.199 256.334 157.199 256.334 157.199C256.333 157.199 256.333 157.199 256.333 157.199C256.332 157.199 256.332 157.199 256.331 157.199C256.331 157.199 256.33 157.199 256.33 157.199C256.33 157.199 256.329 157.199 256.329 157.199C256.328 157.199 256.328 157.199 256.328 157.199C256.327 157.199 256.327 157.199 256.326 157.199C256.326 157.199 256.325 157.199 256.325 157.199C256.325 157.199 256.324 157.199 256.324 157.199C256.323 157.199 256.323 157.199 256.322 157.199C256.322 157.199 256.322 157.199 256.321 157.199C256.321 157.199 256.32 157.199 256.32 157.199C256.319 157.199 256.319 157.199 256.318 157.198C256.318 157.198 256.318 157.198 256.317 157.198C256.317 157.198 256.316 157.198 256.316 157.198C256.315 157.198 256.315 157.198 256.314 157.198C256.314 157.198 256.313 157.198 256.313 157.198C256.313 157.198 256.312 157.198 256.312 157.198C256.311 157.198 256.311 157.198 256.31 157.198C256.31 157.198 256.309 157.198 256.309 157.198C256.308 157.198 256.308 157.198 256.307 157.198C256.307 157.198 256.306 157.198 256.306 157.198C256.305 157.198 256.305 157.198 256.304 157.198C256.304 157.198 256.303 157.198 256.303 157.198C256.302 157.198 256.302 157.197 256.302 157.197C256.301 157.197 256.301 157.197 256.3 157.197C256.3 157.197 256.299 157.197 256.299 157.197C256.298 157.197 256.297 157.197 256.297 157.197C256.296 157.197 256.296 157.197 256.295 157.197C256.295 157.197 256.294 157.197 256.294 157.197C256.293 157.197 256.293 157.197 256.292 157.197C256.292 157.197 256.291 157.197 256.291 157.197C256.29 157.197 256.29 157.197 256.289 157.197C256.289 157.197 256.288 157.197 256.288 157.197C256.287 157.197 256.287 157.197 256.286 157.197C256.285 157.196 256.285 157.196 256.284 157.196C256.284 157.196 256.283 157.196 256.283 157.196C256.282 157.196 256.282 157.196 256.281 157.196C256.281 157.196 256.28 157.196 256.279 157.196C256.279 157.196 256.278 157.196 256.278 157.196C256.277 157.196 256.277 157.196 256.276 157.196C256.276 157.196 256.275 157.196 256.274 157.196C256.274 157.196 256.273 157.196 256.273 157.196C256.272 157.196 256.272 157.196 256.271 157.196C256.27 157.196 256.27 157.196 256.269 157.195C256.269 157.195 256.268 157.195 256.268 157.195C256.267 157.195 256.266 157.195 256.266 157.195C256.265 157.195 256.265 157.195 256.264 157.195C256.263 157.195 256.263 157.195 256.262 157.195C256.262 157.195 256.261 157.195 256.26 157.195C256.26 157.195 256.259 157.195 256.259 157.195C256.258 157.195 256.257 157.195 256.257 157.195C256.256 157.195 256.256 157.195 256.255 157.195C256.254 157.195 256.254 157.195 256.253 157.194C256.253 157.194 256.252 157.194 256.251 157.194C256.251 157.194 256.25 157.194 256.249 157.194C256.249 157.194 256.248 157.194 256.248 157.194C256.247 157.194 256.246 157.194 256.246 157.194C256.245 157.194 256.244 157.194 256.244 157.194C256.243 157.194 256.243 157.194 256.242 157.194C256.241 157.194 256.241 157.194 256.24 157.194C256.239 157.194 256.239 157.194 256.238 157.194C256.237 157.194 256.237 157.193 256.236 157.193C256.235 157.193 256.235 157.193 256.234 157.193C256.233 157.193 256.233 157.193 256.232 157.193C256.232 157.193 256.231 157.193 256.23 157.193C256.23 157.193 256.229 157.193 256.228 157.193C256.228 157.193 256.227 157.193 256.226 157.193C256.226 157.193 256.225 157.193 256.224 157.193C256.223 157.193 256.223 157.193 256.222 157.193C256.221 157.193 256.221 157.193 256.22 157.192C256.219 157.192 256.219 157.192 256.218 157.192C256.217 157.192 256.217 157.192 256.216 157.192C256.215 157.192 256.215 157.192 256.214 157.192C256.213 157.192 256.212 157.192 256.212 157.192C256.211 157.192 256.21 157.192 256.21 157.192C256.209 157.192 256.208 157.192 256.208 157.192C256.207 157.192 256.206 157.192 256.205 157.192C256.205 157.192 256.204 157.191 256.203 157.191C256.203 157.191 256.202 157.191 256.201 157.191C256.2 157.191 256.2 157.191 256.199 157.191C256.198 157.191 256.198 157.191 256.197 157.191C256.196 157.191 256.195 157.191 256.195 157.191C256.194 157.191 256.193 157.191 256.192 157.191C256.192 157.191 256.191 157.191 256.19 157.191C256.189 157.191 256.189 157.191 256.188 157.19C256.187 157.19 256.186 157.19 256.186 157.19C256.185 157.19 256.184 157.19 256.183 157.19C256.183 157.19 256.182 157.19 256.181 157.19C256.18 157.19 256.18 157.19 256.179 157.19C256.178 157.19 256.177 157.19 256.177 157.19C256.176 157.19 256.175 157.19 256.174 157.19C256.174 157.19 256.173 157.19 256.172 157.19C256.171 157.189 256.17 157.189 256.17 157.189C256.169 157.189 256.168 157.189 256.167 157.189C256.167 157.189 256.166 157.189 256.165 157.189C256.164 157.189 256.163 157.189 256.163 157.189C256.162 157.189 256.161 157.189 256.16 157.189C256.159 157.189 256.159 157.189 256.158 157.189C256.157 157.189 256.156 157.189 256.155 157.189C256.155 157.188 256.154 157.188 256.153 157.188C256.152 157.188 256.151 157.188 256.151 157.188C256.15 157.188 256.149 157.188 256.148 157.188C256.147 157.188 256.147 157.188 256.146 157.188C256.145 157.188 256.144 157.188 256.143 157.188C256.143 157.188 256.142 157.188 256.141 157.188C256.14 157.188 256.139 157.188 256.138 157.187C256.138 157.187 256.137 157.187 256.136 157.187C256.135 157.187 256.134 157.187 256.133 157.187C256.133 157.187 256.132 157.187 256.131 157.187C256.13 157.187 256.129 157.187 256.128 157.187C256.127 157.187 256.127 157.187 256.126 157.187C256.125 157.187 256.124 157.187 256.123 157.187C256.122 157.186 256.121 157.186 256.121 157.186C256.12 157.186 256.119 157.186 256.118 157.186C256.117 157.186 256.116 157.186 256.115 157.186C256.115 157.186 256.114 157.186 256.113 157.186C256.112 157.186 256.111 157.186 256.11 157.186C256.109 157.186 256.108 157.186 256.108 157.186C256.107 157.186 256.106 157.185 256.105 157.185C256.104 157.185 256.103 157.185 256.102 157.185C256.101 157.185 256.101 157.185 256.1 157.185C256.099 157.185 256.098 157.185 256.097 157.185C256.096 157.185 256.095 157.185 256.094 157.185C256.093 157.185 256.092 157.185 256.092 157.185C256.091 157.185 256.09 157.184 256.089 157.184C256.088 157.184 256.087 157.184 256.086 157.184C256.085 157.184 256.084 157.184 256.083 157.184C256.082 157.184 256.082 157.184 256.081 157.184C256.08 157.184 256.079 157.184 256.078 157.184C256.077 157.184 256.076 157.184 256.075 157.184C256.074 157.184 256.073 157.183 256.072 157.183C256.071 157.183 256.07 157.183 256.07 157.183C256.069 157.183 256.068 157.183 256.067 157.183C256.066 157.183 256.065 157.183 256.064 157.183C256.063 157.183 256.062 157.183 256.061 157.183C256.06 157.183 256.059 157.183 256.058 157.183C256.057 157.182 256.056 157.182 256.055 157.182C256.054 157.182 256.053 157.182 256.052 157.182C256.051 157.182 256.051 157.182 256.05 157.182C256.049 157.182 256.048 157.182 256.047 157.182C256.046 157.182 256.045 157.182 256.044 157.182C256.043 157.182 256.042 157.182 256.041 157.181C256.04 157.181 256.039 157.181 256.038 157.181C256.037 157.181 256.036 157.181 256.035 157.181C256.034 157.181 256.033 157.181 256.032 157.181C256.031 157.181 256.03 157.181 256.029 157.181C256.028 157.181 256.027 157.181 256.026 157.181C256.025 157.181 256.024 157.18 256.023 157.18C256.022 157.18 256.021 157.18 256.02 157.18C256.019 157.18 256.018 157.18 256.017 157.18C256.016 157.18 256.015 157.18 256.014 157.18C256.013 157.18 256.012 157.18 256.011 157.18C256.01 157.18 256.009 157.18 256.008 157.179C256.007 157.179 256.006 157.179 256.005 157.179C256.004 157.179 256.003 157.179 256.002 157.179C256.001 157.179 256 157.179 255.999 157.179C255.998 157.179 255.997 157.179 255.996 157.179C255.994 157.179 255.993 157.179 255.992 157.179C255.991 157.178 255.99 157.178 255.989 157.178C255.988 157.178 255.987 157.178 255.986 157.178C255.985 157.178 255.984 157.178 255.983 157.178C255.982 157.178 255.981 157.178 255.98 157.178C255.979 157.178 255.978 157.178 255.977 157.178C255.976 157.177 255.974 157.177 255.973 157.177C255.972 157.177 255.971 157.177 255.97 157.177C255.969 157.177 255.968 157.177 255.967 157.177C255.966 157.177 255.965 157.177 255.964 157.177C255.963 157.177 255.962 157.177 255.961 157.177C255.959 157.176 255.958 157.176 255.957 157.176C255.956 157.176 255.955 157.176 255.954 157.176C255.953 157.176 255.952 157.176 255.951 157.176C255.95 157.176 255.949 157.176 255.947 157.176C255.946 157.176 255.945 157.176 255.944 157.176C255.943 157.175 255.942 157.175 255.941 157.175C255.94 157.175 255.939 157.175 255.938 157.175C255.936 157.175 255.935 157.175 255.934 157.175C255.933 157.175 255.932 157.175 255.931 157.175C255.93 157.175 255.929 157.175 255.927 157.175C255.926 157.174 255.925 157.174 255.924 157.174C255.923 157.174 255.922 157.174 255.921 157.174C255.92 157.174 255.918 157.174 255.917 157.174C255.916 157.174 255.915 157.174 255.914 157.174C255.913 157.174 255.912 157.174 255.91 157.173C255.909 157.173 255.908 157.173 255.907 157.173C255.906 157.173 255.905 157.173 255.904 157.173C255.902 157.173 255.901 157.173 255.9 157.173C255.899 157.173 255.898 157.173 255.897 157.173C255.895 157.173 255.894 157.173 255.893 157.172C255.892 157.172 255.891 157.172 255.89 157.172C255.888 157.172 255.887 157.172 255.886 157.172C255.885 157.172 255.884 157.172 255.883 157.172C255.881 157.172 255.88 157.172 255.879 157.172C255.878 157.171 255.877 157.171 255.876 157.171C255.874 157.171 255.873 157.171 255.872 157.171C255.871 157.171 255.87 157.171 255.868 157.171C255.867 157.171 255.866 157.171 255.865 157.171C255.864 157.171 255.862 157.171 255.861 157.17C255.86 157.17 255.859 157.17 255.858 157.17C255.856 157.17 255.855 157.17 255.854 157.17C255.853 157.17 255.852 157.17 255.85 157.17C255.849 157.17 255.848 157.17 255.847 157.17C255.846 157.17 255.844 157.169 255.843 157.169C255.842 157.169 255.841 157.169 255.839 157.169C255.838 157.169 255.837 157.169 255.836 157.169C255.835 157.169 255.833 157.169 255.832 157.169C255.831 157.169 255.83 157.169 255.828 157.168C255.827 157.168 255.826 157.168 255.825 157.168C255.823 157.168 255.822 157.168 255.821 157.168C255.82 157.168 255.818 157.168 255.817 157.168C255.816 157.168 255.815 157.168 255.813 157.168C255.812 157.167 255.811 157.167 255.81 157.167C255.808 157.167 255.807 157.167 255.806 157.167C255.805 157.167 255.803 157.167 255.802 157.167C255.801 157.167 255.8 157.167 255.798 157.167C255.797 157.167 255.796 157.166 255.794 157.166C255.793 157.166 255.792 157.166 255.791 157.166C255.789 157.166 255.788 157.166 255.787 157.166C255.786 157.166 255.784 157.166 255.783 157.166C255.782 157.166 255.78 157.166 255.779 157.165C255.778 157.165 255.777 157.165 255.775 157.165C255.774 157.165 255.773 157.165 255.771 157.165C255.77 157.165 255.769 157.165 255.767 157.165C255.766 157.165 255.765 157.165 255.764 157.164C255.762 157.164 255.761 157.164 255.76 157.164C255.758 157.164 255.757 157.164 255.756 157.164C255.754 157.164 255.753 157.164 255.752 157.164C255.75 157.164 255.749 157.164 255.748 157.164C255.746 157.163 255.745 157.163 255.744 157.163C255.742 157.163 255.741 157.163 255.74 157.163C255.738 157.163 255.737 157.163 255.736 157.163C255.734 157.163 255.733 157.163 255.732 157.163C255.73 157.162 255.729 157.162 255.728 157.162C255.726 157.162 255.725 157.162 255.724 157.162C255.722 157.162 255.721 157.162 255.72 157.162C255.718 157.162 255.717 157.162 255.716 157.162C255.714 157.161 255.713 157.161 255.712 157.161C255.71 157.161 255.709 157.161 255.707 157.161C255.706 157.161 255.705 157.161 255.703 157.161C255.702 157.161 255.701 157.161 255.699 157.161C255.698 157.16 255.697 157.16 255.695 157.16C255.694 157.16 255.692 157.16 255.691 157.16C255.69 157.16 255.688 157.16 255.687 157.16C255.685 157.16 255.684 157.16 255.683 157.16C255.681 157.159 255.68 157.159 255.679 157.159C255.677 157.159 255.676 157.159 255.674 157.159C255.673 157.159 255.672 157.159 255.67 157.159C255.669 157.159 255.667 157.159 255.666 157.159C255.665 157.158 255.663 157.158 255.662 157.158C255.66 157.158 255.659 157.158 255.658 157.158C255.656 157.158 255.655 157.158 255.653 157.158C255.652 157.158 255.65 157.158 255.649 157.157C255.648 157.157 255.646 157.157 255.645 157.157C255.643 157.157 255.642 157.157 255.64 157.157C255.639 157.157 255.638 157.157 255.636 157.157C255.635 157.157 255.633 157.157 255.632 157.156C255.63 157.156 255.629 157.156 255.628 157.156C255.626 157.156 255.625 157.156 255.623 157.156C255.622 157.156 255.62 157.156 255.619 157.156C255.617 157.156 255.616 157.155 255.615 157.155C255.613 157.155 255.612 157.155 255.61 157.155C255.609 157.155 255.607 157.155 255.606 157.155C255.604 157.155 255.603 157.155 255.601 157.155C255.6 157.154 255.599 157.154 255.597 157.154C255.596 157.154 255.594 157.154 255.593 157.154C255.591 157.154 255.59 157.154 255.588 157.154C255.587 157.154 255.585 157.154 255.584 157.153C255.582 157.153 255.581 157.153 255.579 157.153C255.578 157.153 255.576 157.153 255.575 157.153C255.573 157.153 255.572 157.153 255.57 157.153C255.569 157.153 255.567 157.152 255.566 157.152C255.564 157.152 255.563 157.152 255.561 157.152C255.56 157.152 255.558 157.152 255.557 157.152C255.555 157.152 255.554 157.152 255.552 157.152C255.551 157.151 255.549 157.151 255.548 157.151C255.546 157.151 255.545 157.151 255.543 157.151C255.542 157.151 255.54 157.151 255.539 157.151C255.537 157.151 255.536 157.151 255.534 157.15C255.533 157.15 255.531 157.15 255.53 157.15C255.528 157.15 255.527 157.15 255.525 157.15C255.523 157.15 255.522 157.15 255.52 157.15C255.519 157.149 255.517 157.149 255.516 157.149C255.514 157.149 255.513 157.149 255.511 157.149C255.51 157.149 255.508 157.149 255.506 157.149C255.505 157.149 255.503 157.149 255.502 157.148C255.5 157.148 255.499 157.148 255.497 157.148C255.496 157.148 255.494 157.148 255.492 157.148C255.491 157.148 255.489 157.148 255.488 157.148C255.486 157.147 255.485 157.147 255.483 157.147C255.481 157.147 255.48 157.147 255.478 157.147C255.477 157.147 255.475 157.147 255.474 157.147C255.472 157.147 255.47 157.147 255.469 157.146C255.467 157.146 255.466 157.146 255.464 157.146C255.463 157.146 255.461 157.146 255.459 157.146C255.458 157.146 255.456 157.146 255.455 157.146C255.453 157.145 255.451 157.145 255.45 157.145C255.448 157.145 255.447 157.145 255.445 157.145C255.443 157.145 255.442 157.145 255.44 157.145C255.439 157.145 255.437 157.144 255.435 157.144C255.434 157.144 255.432 157.144 255.431 157.144C255.429 157.144 255.427 157.144 255.426 157.144C255.424 157.144 255.422 157.144 255.421 157.143C255.419 157.143 255.418 157.143 255.416 157.143C255.414 157.143 255.413 157.143 255.411 157.143C255.409 157.143 255.408 157.143 255.406 157.143C255.404 157.142 255.403 157.142 255.401 157.142C255.4 157.142 255.398 157.142 255.396 157.142C255.395 157.142 255.393 157.142 255.391 157.142C255.39 157.142 255.388 157.141 255.386 157.141C255.385 157.141 255.383 157.141 255.381 157.141C255.38 157.141 255.378 157.141 255.376 157.141C255.375 157.141 255.373 157.141 255.371 157.14C255.37 157.14 255.368 157.14 255.366 157.14C255.365 157.14 255.363 157.14 255.361 157.14C255.36 157.14 255.358 157.14 255.356 157.14C255.355 157.139 255.353 157.139 255.351 157.139C255.35 157.139 255.348 157.139 255.346 157.139C255.345 157.139 255.343 157.139 255.341 157.139C255.34 157.139 255.338 157.138 255.336 157.138C255.335 157.138 255.333 157.138 255.331 157.138C255.329 157.138 255.328 157.138 255.326 157.138C255.324 157.138 255.323 157.137 255.321 157.137C255.319 157.137 255.318 157.137 255.316 157.137C255.314 157.137 255.312 157.137 255.311 157.137C255.309 157.137 255.307 157.137 255.306 157.136C255.304 157.136 255.302 157.136 255.3 157.136C255.299 157.136 255.297 157.136 255.295 157.136C255.294 157.136 255.292 157.136 255.29 157.135C255.288 157.135 255.287 157.135 255.285 157.135C255.283 157.135 255.281 157.135 255.28 157.135C255.278 157.135 255.276 157.135 255.274 157.135C255.273 157.134 255.271 157.134 255.269 157.134C255.267 157.134 255.266 157.134 255.264 157.134C255.262 157.134 255.26 157.134 255.259 157.134C255.257 157.133 255.255 157.133 255.253 157.133C255.252 157.133 255.25 157.133 255.248 157.133C255.246 157.133 255.245 157.133 255.243 157.133C255.241 157.132 255.239 157.132 255.238 157.132C255.236 157.132 255.234 157.132 255.232 157.132C255.23 157.132 255.229 157.132 255.227 157.132C255.225 157.131 255.223 157.131 255.222 157.131C255.22 157.131 255.218 157.131 255.216 157.131C255.214 157.131 255.213 157.131 255.211 157.131C255.209 157.131 255.207 157.13 255.205 157.13C255.204 157.13 255.202 157.13 255.2 157.13C255.198 157.13 255.196 157.13 255.195 157.13C255.193 157.13 255.191 157.129 255.189 157.129C255.187 157.129 255.186 157.129 255.184 157.129C255.182 157.129 255.18 157.129 255.178 157.129C255.177 157.129 255.175 157.128 255.173 157.128C255.171 157.128 255.169 157.128 255.168 157.128C255.166 157.128 255.164 157.128 255.162 157.128C255.16 157.128 255.158 157.127 255.157 157.127C255.155 157.127 255.153 157.127 255.151 157.127C255.149 157.127 255.147 157.127 255.146 157.127C255.144 157.127 255.142 157.126 255.14 157.126C255.138 157.126 255.136 157.126 255.134 157.126C255.133 157.126 255.131 157.126 255.129 157.126C255.127 157.125 255.125 157.125 255.123 157.125C255.122 157.125 255.12 157.125 255.118 157.125C255.116 157.125 255.114 157.125 255.112 157.125C255.11 157.124 255.108 157.124 255.107 157.124C255.105 157.124 255.103 157.124 255.101 157.124C255.099 157.124 255.097 157.124 255.095 157.124C255.094 157.123 255.092 157.123 255.09 157.123C255.088 157.123 255.086 157.123 255.084 157.123C255.082 157.123 255.08 157.123 255.078 157.123C255.077 157.122 255.075 157.122 255.073 157.122C255.071 157.122 255.069 157.122 255.067 157.122C255.065 157.122 255.063 157.122 255.061 157.121C255.06 157.121 255.058 157.121 255.056 157.121C255.054 157.121 255.052 157.121 255.05 157.121C255.048 157.121 255.046 157.121 255.044 157.12C255.042 157.12 255.04 157.12 255.039 157.12C255.037 157.12 255.035 157.12 255.033 157.12C255.031 157.12 255.029 157.119 255.027 157.119C255.025 157.119 255.023 157.119 255.021 157.119C255.019 157.119 255.017 157.119 255.015 157.119C255.013 157.119 255.012 157.118 255.01 157.118C255.008 157.118 255.006 157.118 255.004 157.118C255.002 157.118 255 157.118 254.998 157.118C254.996 157.117 254.994 157.117 254.992 157.117C254.99 157.117 254.988 157.117 254.986 157.117C254.984 157.117 254.982 157.117 254.98 157.117C254.978 157.116 254.977 157.116 254.975 157.116C254.973 157.116 254.971 157.116 254.969 157.116C254.967 157.116 254.965 157.116 254.963 157.115C254.961 157.115 254.959 157.115 254.957 157.115C254.955 157.115 254.953 157.115 254.951 157.115C254.949 157.115 254.947 157.114 254.945 157.114C254.943 157.114 254.941 157.114 254.939 157.114C254.937 157.114 254.935 157.114 254.933 157.114C254.931 157.113 254.929 157.113 254.927 157.113C254.925 157.113 254.923 157.113 254.921 157.113C254.919 157.113 254.917 157.113 254.915 157.113C254.913 157.112 254.911 157.112 254.909 157.112C254.907 157.112 254.905 157.112 254.903 157.112C254.901 157.112 254.899 157.112 254.897 157.111C254.895 157.111 254.893 157.111 254.891 157.111C254.889 157.111 254.887 157.111 254.885 157.111C254.883 157.111 254.881 157.11 254.879 157.11C254.877 157.11 254.875 157.11 254.873 157.11C254.871 157.11 254.869 157.11 254.867 157.11C254.865 157.109 254.863 157.109 254.861 157.109C254.859 157.109 254.856 157.109 254.854 157.109C254.852 157.109 254.85 157.109 254.848 157.108C254.846 157.108 254.844 157.108 254.842 157.108C254.84 157.108 254.838 157.108 254.836 157.108C254.834 157.108 254.832 157.107 254.83 157.107C254.828 157.107 254.826 157.107 254.824 157.107C254.822 157.107 254.82 157.107 254.817 157.107C254.815 157.106 254.813 157.106 254.811 157.106C254.809 157.106 254.807 157.106 254.805 157.106C254.803 157.106 254.801 157.106 254.799 157.105C254.797 157.105 254.795 157.105 254.793 157.105L254.534 161.098C254.536 161.098 254.538 161.098 254.54 161.098C254.542 161.098 254.545 161.098 254.547 161.098C254.549 161.098 254.551 161.099 254.553 161.099C254.555 161.099 254.557 161.099 254.559 161.099C254.561 161.099 254.563 161.099 254.565 161.099C254.567 161.1 254.569 161.1 254.571 161.1C254.573 161.1 254.576 161.1 254.578 161.1C254.58 161.1 254.582 161.1 254.584 161.101C254.586 161.101 254.588 161.101 254.59 161.101C254.592 161.101 254.594 161.101 254.596 161.101C254.598 161.101 254.6 161.102 254.602 161.102C254.604 161.102 254.606 161.102 254.608 161.102C254.61 161.102 254.612 161.102 254.614 161.102C254.616 161.103 254.618 161.103 254.62 161.103C254.622 161.103 254.624 161.103 254.626 161.103C254.629 161.103 254.631 161.103 254.633 161.104C254.635 161.104 254.637 161.104 254.639 161.104C254.641 161.104 254.643 161.104 254.645 161.104C254.647 161.104 254.649 161.105 254.651 161.105C254.653 161.105 254.655 161.105 254.657 161.105C254.659 161.105 254.661 161.105 254.663 161.105C254.665 161.106 254.667 161.106 254.669 161.106C254.671 161.106 254.673 161.106 254.675 161.106C254.677 161.106 254.679 161.106 254.681 161.106C254.683 161.107 254.685 161.107 254.687 161.107C254.689 161.107 254.691 161.107 254.692 161.107C254.694 161.107 254.696 161.107 254.698 161.108C254.7 161.108 254.702 161.108 254.704 161.108C254.706 161.108 254.708 161.108 254.71 161.108C254.712 161.108 254.714 161.109 254.716 161.109C254.718 161.109 254.72 161.109 254.722 161.109C254.724 161.109 254.726 161.109 254.728 161.109C254.73 161.109 254.732 161.11 254.734 161.11C254.736 161.11 254.738 161.11 254.74 161.11C254.741 161.11 254.743 161.11 254.745 161.11C254.747 161.111 254.749 161.111 254.751 161.111C254.753 161.111 254.755 161.111 254.757 161.111C254.759 161.111 254.761 161.111 254.763 161.112C254.765 161.112 254.767 161.112 254.769 161.112C254.77 161.112 254.772 161.112 254.774 161.112C254.776 161.112 254.778 161.112 254.78 161.113C254.782 161.113 254.784 161.113 254.786 161.113C254.788 161.113 254.79 161.113 254.792 161.113C254.793 161.113 254.795 161.114 254.797 161.114C254.799 161.114 254.801 161.114 254.803 161.114C254.805 161.114 254.807 161.114 254.809 161.114C254.811 161.114 254.812 161.115 254.814 161.115C254.816 161.115 254.818 161.115 254.82 161.115C254.822 161.115 254.824 161.115 254.826 161.115C254.828 161.115 254.829 161.116 254.831 161.116C254.833 161.116 254.835 161.116 254.837 161.116C254.839 161.116 254.841 161.116 254.843 161.116C254.844 161.117 254.846 161.117 254.848 161.117C254.85 161.117 254.852 161.117 254.854 161.117C254.856 161.117 254.858 161.117 254.859 161.117C254.861 161.118 254.863 161.118 254.865 161.118C254.867 161.118 254.869 161.118 254.871 161.118C254.872 161.118 254.874 161.118 254.876 161.118C254.878 161.119 254.88 161.119 254.882 161.119C254.883 161.119 254.885 161.119 254.887 161.119C254.889 161.119 254.891 161.119 254.893 161.119C254.894 161.12 254.896 161.12 254.898 161.12C254.9 161.12 254.902 161.12 254.904 161.12C254.905 161.12 254.907 161.12 254.909 161.12C254.911 161.121 254.913 161.121 254.915 161.121C254.916 161.121 254.918 161.121 254.92 161.121C254.922 161.121 254.924 161.121 254.925 161.121C254.927 161.122 254.929 161.122 254.931 161.122C254.933 161.122 254.934 161.122 254.936 161.122C254.938 161.122 254.94 161.122 254.942 161.122C254.943 161.123 254.945 161.123 254.947 161.123C254.949 161.123 254.951 161.123 254.952 161.123C254.954 161.123 254.956 161.123 254.958 161.123C254.96 161.124 254.961 161.124 254.963 161.124C254.965 161.124 254.967 161.124 254.968 161.124C254.97 161.124 254.972 161.124 254.974 161.124C254.976 161.125 254.977 161.125 254.979 161.125C254.981 161.125 254.983 161.125 254.984 161.125C254.986 161.125 254.988 161.125 254.99 161.125C254.991 161.126 254.993 161.126 254.995 161.126C254.997 161.126 254.999 161.126 255 161.126C255.002 161.126 255.004 161.126 255.006 161.126C255.007 161.126 255.009 161.127 255.011 161.127C255.013 161.127 255.014 161.127 255.016 161.127C255.018 161.127 255.019 161.127 255.021 161.127C255.023 161.127 255.025 161.128 255.026 161.128C255.028 161.128 255.03 161.128 255.032 161.128C255.033 161.128 255.035 161.128 255.037 161.128C255.039 161.128 255.04 161.129 255.042 161.129C255.044 161.129 255.045 161.129 255.047 161.129C255.049 161.129 255.051 161.129 255.052 161.129C255.054 161.129 255.056 161.129 255.057 161.13C255.059 161.13 255.061 161.13 255.063 161.13C255.064 161.13 255.066 161.13 255.068 161.13C255.069 161.13 255.071 161.13 255.073 161.131C255.074 161.131 255.076 161.131 255.078 161.131C255.079 161.131 255.081 161.131 255.083 161.131C255.085 161.131 255.086 161.131 255.088 161.131C255.09 161.132 255.091 161.132 255.093 161.132C255.095 161.132 255.096 161.132 255.098 161.132C255.1 161.132 255.101 161.132 255.103 161.132C255.105 161.132 255.106 161.133 255.108 161.133C255.11 161.133 255.111 161.133 255.113 161.133C255.115 161.133 255.116 161.133 255.118 161.133C255.12 161.133 255.121 161.133 255.123 161.134C255.125 161.134 255.126 161.134 255.128 161.134C255.13 161.134 255.131 161.134 255.133 161.134C255.135 161.134 255.136 161.134 255.138 161.134C255.139 161.135 255.141 161.135 255.143 161.135C255.144 161.135 255.146 161.135 255.148 161.135C255.149 161.135 255.151 161.135 255.153 161.135C255.154 161.135 255.156 161.136 255.157 161.136C255.159 161.136 255.161 161.136 255.162 161.136C255.164 161.136 255.166 161.136 255.167 161.136C255.169 161.136 255.17 161.136 255.172 161.137C255.174 161.137 255.175 161.137 255.177 161.137C255.179 161.137 255.18 161.137 255.182 161.137C255.183 161.137 255.185 161.137 255.187 161.137C255.188 161.138 255.19 161.138 255.191 161.138C255.193 161.138 255.195 161.138 255.196 161.138C255.198 161.138 255.199 161.138 255.201 161.138C255.203 161.138 255.204 161.139 255.206 161.139C255.207 161.139 255.209 161.139 255.21 161.139C255.212 161.139 255.214 161.139 255.215 161.139C255.217 161.139 255.218 161.139 255.22 161.14C255.221 161.14 255.223 161.14 255.225 161.14C255.226 161.14 255.228 161.14 255.229 161.14C255.231 161.14 255.232 161.14 255.234 161.14C255.236 161.14 255.237 161.141 255.239 161.141C255.24 161.141 255.242 161.141 255.243 161.141C255.245 161.141 255.246 161.141 255.248 161.141C255.25 161.141 255.251 161.141 255.253 161.142C255.254 161.142 255.256 161.142 255.257 161.142C255.259 161.142 255.26 161.142 255.262 161.142C255.263 161.142 255.265 161.142 255.267 161.142C255.268 161.142 255.27 161.143 255.271 161.143C255.273 161.143 255.274 161.143 255.276 161.143C255.277 161.143 255.279 161.143 255.28 161.143C255.282 161.143 255.283 161.143 255.285 161.144C255.286 161.144 255.288 161.144 255.289 161.144C255.291 161.144 255.292 161.144 255.294 161.144C255.295 161.144 255.297 161.144 255.298 161.144C255.3 161.144 255.301 161.145 255.303 161.145C255.304 161.145 255.306 161.145 255.307 161.145C255.309 161.145 255.31 161.145 255.312 161.145C255.313 161.145 255.315 161.145 255.316 161.145C255.318 161.146 255.319 161.146 255.321 161.146C255.322 161.146 255.324 161.146 255.325 161.146C255.327 161.146 255.328 161.146 255.33 161.146C255.331 161.146 255.333 161.146 255.334 161.147C255.336 161.147 255.337 161.147 255.339 161.147C255.34 161.147 255.342 161.147 255.343 161.147C255.344 161.147 255.346 161.147 255.347 161.147C255.349 161.147 255.35 161.148 255.352 161.148C255.353 161.148 255.355 161.148 255.356 161.148C255.358 161.148 255.359 161.148 255.36 161.148C255.362 161.148 255.363 161.148 255.365 161.148C255.366 161.148 255.368 161.149 255.369 161.149C255.371 161.149 255.372 161.149 255.373 161.149C255.375 161.149 255.376 161.149 255.378 161.149C255.379 161.149 255.381 161.149 255.382 161.149C255.383 161.15 255.385 161.15 255.386 161.15C255.388 161.15 255.389 161.15 255.391 161.15C255.392 161.15 255.393 161.15 255.395 161.15C255.396 161.15 255.398 161.15 255.399 161.151C255.401 161.151 255.402 161.151 255.403 161.151C255.405 161.151 255.406 161.151 255.408 161.151C255.409 161.151 255.41 161.151 255.412 161.151C255.413 161.151 255.415 161.151 255.416 161.152C255.417 161.152 255.419 161.152 255.42 161.152C255.422 161.152 255.423 161.152 255.424 161.152C255.426 161.152 255.427 161.152 255.428 161.152C255.43 161.152 255.431 161.152 255.433 161.153C255.434 161.153 255.435 161.153 255.437 161.153C255.438 161.153 255.439 161.153 255.441 161.153C255.442 161.153 255.444 161.153 255.445 161.153C255.446 161.153 255.448 161.153 255.449 161.154C255.45 161.154 255.452 161.154 255.453 161.154C255.454 161.154 255.456 161.154 255.457 161.154C255.459 161.154 255.46 161.154 255.461 161.154C255.463 161.154 255.464 161.154 255.465 161.155C255.467 161.155 255.468 161.155 255.469 161.155C255.471 161.155 255.472 161.155 255.473 161.155C255.475 161.155 255.476 161.155 255.477 161.155C255.479 161.155 255.48 161.155 255.481 161.156C255.483 161.156 255.484 161.156 255.485 161.156C255.487 161.156 255.488 161.156 255.489 161.156C255.491 161.156 255.492 161.156 255.493 161.156C255.495 161.156 255.496 161.156 255.497 161.157C255.499 161.157 255.5 161.157 255.501 161.157C255.502 161.157 255.504 161.157 255.505 161.157C255.506 161.157 255.508 161.157 255.509 161.157C255.51 161.157 255.512 161.157 255.513 161.157C255.514 161.158 255.515 161.158 255.517 161.158C255.518 161.158 255.519 161.158 255.521 161.158C255.522 161.158 255.523 161.158 255.525 161.158C255.526 161.158 255.527 161.158 255.528 161.158C255.53 161.159 255.531 161.159 255.532 161.159C255.533 161.159 255.535 161.159 255.536 161.159C255.537 161.159 255.539 161.159 255.54 161.159C255.541 161.159 255.542 161.159 255.544 161.159C255.545 161.159 255.546 161.16 255.547 161.16C255.549 161.16 255.55 161.16 255.551 161.16C255.552 161.16 255.554 161.16 255.555 161.16C255.556 161.16 255.557 161.16 255.559 161.16C255.56 161.16 255.561 161.16 255.562 161.161C255.564 161.161 255.565 161.161 255.566 161.161C255.567 161.161 255.569 161.161 255.57 161.161C255.571 161.161 255.572 161.161 255.574 161.161C255.575 161.161 255.576 161.161 255.577 161.161C255.579 161.161 255.58 161.162 255.581 161.162C255.582 161.162 255.583 161.162 255.585 161.162C255.586 161.162 255.587 161.162 255.588 161.162C255.59 161.162 255.591 161.162 255.592 161.162C255.593 161.162 255.594 161.162 255.596 161.163C255.597 161.163 255.598 161.163 255.599 161.163C255.6 161.163 255.602 161.163 255.603 161.163C255.604 161.163 255.605 161.163 255.606 161.163C255.608 161.163 255.609 161.163 255.61 161.163C255.611 161.163 255.612 161.164 255.614 161.164C255.615 161.164 255.616 161.164 255.617 161.164C255.618 161.164 255.619 161.164 255.621 161.164C255.622 161.164 255.623 161.164 255.624 161.164C255.625 161.164 255.627 161.164 255.628 161.165C255.629 161.165 255.63 161.165 255.631 161.165C255.632 161.165 255.634 161.165 255.635 161.165C255.636 161.165 255.637 161.165 255.638 161.165C255.639 161.165 255.641 161.165 255.642 161.165C255.643 161.165 255.644 161.166 255.645 161.166C255.646 161.166 255.647 161.166 255.649 161.166C255.65 161.166 255.651 161.166 255.652 161.166C255.653 161.166 255.654 161.166 255.655 161.166C255.657 161.166 255.658 161.166 255.659 161.166C255.66 161.166 255.661 161.167 255.662 161.167C255.663 161.167 255.665 161.167 255.666 161.167C255.667 161.167 255.668 161.167 255.669 161.167C255.67 161.167 255.671 161.167 255.672 161.167C255.674 161.167 255.675 161.167 255.676 161.167C255.677 161.168 255.678 161.168 255.679 161.168C255.68 161.168 255.681 161.168 255.682 161.168C255.684 161.168 255.685 161.168 255.686 161.168C255.687 161.168 255.688 161.168 255.689 161.168C255.69 161.168 255.691 161.168 255.692 161.168C255.693 161.169 255.694 161.169 255.696 161.169C255.697 161.169 255.698 161.169 255.699 161.169C255.7 161.169 255.701 161.169 255.702 161.169C255.703 161.169 255.704 161.169 255.705 161.169C255.706 161.169 255.708 161.169 255.709 161.169C255.71 161.17 255.711 161.17 255.712 161.17C255.713 161.17 255.714 161.17 255.715 161.17C255.716 161.17 255.717 161.17 255.718 161.17C255.719 161.17 255.72 161.17 255.721 161.17C255.722 161.17 255.723 161.17 255.725 161.17C255.726 161.171 255.727 161.171 255.728 161.171C255.729 161.171 255.73 161.171 255.731 161.171C255.732 161.171 255.733 161.171 255.734 161.171C255.735 161.171 255.736 161.171 255.737 161.171C255.738 161.171 255.739 161.171 255.74 161.171C255.741 161.171 255.742 161.172 255.743 161.172C255.744 161.172 255.745 161.172 255.746 161.172C255.747 161.172 255.748 161.172 255.749 161.172C255.75 161.172 255.751 161.172 255.752 161.172C255.754 161.172 255.755 161.172 255.756 161.172C255.757 161.172 255.758 161.172 255.759 161.173C255.76 161.173 255.761 161.173 255.762 161.173C255.763 161.173 255.764 161.173 255.765 161.173C255.766 161.173 255.767 161.173 255.768 161.173C255.769 161.173 255.77 161.173 255.771 161.173C255.772 161.173 255.773 161.173 255.774 161.173C255.775 161.174 255.776 161.174 255.777 161.174C255.777 161.174 255.778 161.174 255.779 161.174C255.78 161.174 255.781 161.174 255.782 161.174C255.783 161.174 255.784 161.174 255.785 161.174C255.786 161.174 255.787 161.174 255.788 161.174C255.789 161.174 255.79 161.174 255.791 161.175C255.792 161.175 255.793 161.175 255.794 161.175C255.795 161.175 255.796 161.175 255.797 161.175C255.798 161.175 255.799 161.175 255.8 161.175C255.801 161.175 255.802 161.175 255.803 161.175C255.804 161.175 255.804 161.175 255.805 161.175C255.806 161.175 255.807 161.176 255.808 161.176C255.809 161.176 255.81 161.176 255.811 161.176C255.812 161.176 255.813 161.176 255.814 161.176C255.815 161.176 255.816 161.176 255.817 161.176C255.818 161.176 255.819 161.176 255.819 161.176C255.82 161.176 255.821 161.176 255.822 161.176C255.823 161.176 255.824 161.177 255.825 161.177C255.826 161.177 255.827 161.177 255.828 161.177C255.829 161.177 255.83 161.177 255.83 161.177C255.831 161.177 255.832 161.177 255.833 161.177C255.834 161.177 255.835 161.177 255.836 161.177C255.837 161.177 255.838 161.177 255.839 161.177C255.839 161.177 255.84 161.178 255.841 161.178C255.842 161.178 255.843 161.178 255.844 161.178C255.845 161.178 255.846 161.178 255.847 161.178C255.847 161.178 255.848 161.178 255.849 161.178C255.85 161.178 255.851 161.178 255.852 161.178C255.853 161.178 255.854 161.178 255.854 161.178C255.855 161.178 255.856 161.179 255.857 161.179C255.858 161.179 255.859 161.179 255.86 161.179C255.86 161.179 255.861 161.179 255.862 161.179C255.863 161.179 255.864 161.179 255.865 161.179C255.866 161.179 255.866 161.179 255.867 161.179C255.868 161.179 255.869 161.179 255.87 161.179C255.871 161.179 255.872 161.179 255.872 161.18C255.873 161.18 255.874 161.18 255.875 161.18C255.876 161.18 255.877 161.18 255.877 161.18C255.878 161.18 255.879 161.18 255.88 161.18C255.881 161.18 255.882 161.18 255.882 161.18C255.883 161.18 255.884 161.18 255.885 161.18C255.886 161.18 255.887 161.18 255.887 161.18C255.888 161.18 255.889 161.181 255.89 161.181C255.891 161.181 255.891 161.181 255.892 161.181C255.893 161.181 255.894 161.181 255.895 161.181C255.895 161.181 255.896 161.181 255.897 161.181C255.898 161.181 255.899 161.181 255.899 161.181C255.9 161.181 255.901 161.181 255.902 161.181C255.903 161.181 255.903 161.181 255.904 161.181C255.905 161.182 255.906 161.182 255.907 161.182C255.907 161.182 255.908 161.182 255.909 161.182C255.91 161.182 255.91 161.182 255.911 161.182C255.912 161.182 255.913 161.182 255.914 161.182C255.914 161.182 255.915 161.182 255.916 161.182C255.917 161.182 255.917 161.182 255.918 161.182C255.919 161.182 255.92 161.182 255.921 161.182C255.921 161.182 255.922 161.183 255.923 161.183C255.924 161.183 255.924 161.183 255.925 161.183C255.926 161.183 255.927 161.183 255.927 161.183C255.928 161.183 255.929 161.183 255.93 161.183C255.93 161.183 255.931 161.183 255.932 161.183C255.933 161.183 255.933 161.183 255.934 161.183C255.935 161.183 255.935 161.183 255.936 161.183C255.937 161.183 255.938 161.184 255.938 161.184C255.939 161.184 255.94 161.184 255.941 161.184C255.941 161.184 255.942 161.184 255.943 161.184C255.943 161.184 255.944 161.184 255.945 161.184C255.946 161.184 255.946 161.184 255.947 161.184C255.948 161.184 255.948 161.184 255.949 161.184C255.95 161.184 255.951 161.184 255.951 161.184C255.952 161.184 255.953 161.184 255.953 161.184C255.954 161.185 255.955 161.185 255.955 161.185C255.956 161.185 255.957 161.185 255.958 161.185C255.958 161.185 255.959 161.185 255.96 161.185C255.96 161.185 255.961 161.185 255.962 161.185C255.962 161.185 255.963 161.185 255.964 161.185C255.964 161.185 255.965 161.185 255.966 161.185C255.966 161.185 255.967 161.185 255.968 161.185C255.968 161.185 255.969 161.185 255.97 161.185C255.97 161.186 255.971 161.186 255.972 161.186C255.972 161.186 255.973 161.186 255.974 161.186C255.974 161.186 255.975 161.186 255.976 161.186C255.976 161.186 255.977 161.186 255.978 161.186C255.978 161.186 255.979 161.186 255.98 161.186C255.98 161.186 255.981 161.186 255.982 161.186C255.982 161.186 255.983 161.186 255.983 161.186C255.984 161.186 255.985 161.186 255.985 161.186C255.986 161.186 255.987 161.187 255.987 161.187C255.988 161.187 255.989 161.187 255.989 161.187C255.99 161.187 255.99 161.187 255.991 161.187C255.992 161.187 255.992 161.187 255.993 161.187C255.994 161.187 255.994 161.187 255.995 161.187C255.995 161.187 255.996 161.187 255.997 161.187C255.997 161.187 255.998 161.187 255.998 161.187C255.999 161.187 256 161.187 256 161.187C256.001 161.187 256.001 161.187 256.002 161.187C256.003 161.187 256.003 161.188 256.004 161.188C256.004 161.188 256.005 161.188 256.006 161.188C256.006 161.188 256.007 161.188 256.007 161.188C256.008 161.188 256.009 161.188 256.009 161.188C256.01 161.188 256.01 161.188 256.011 161.188C256.011 161.188 256.012 161.188 256.013 161.188C256.013 161.188 256.014 161.188 256.014 161.188C256.015 161.188 256.015 161.188 256.016 161.188C256.017 161.188 256.017 161.188 256.018 161.188C256.018 161.188 256.019 161.188 256.019 161.189C256.02 161.189 256.02 161.189 256.021 161.189C256.022 161.189 256.022 161.189 256.023 161.189C256.023 161.189 256.024 161.189 256.024 161.189C256.025 161.189 256.025 161.189 256.026 161.189C256.026 161.189 256.027 161.189 256.028 161.189C256.028 161.189 256.029 161.189 256.029 161.189C256.03 161.189 256.03 161.189 256.031 161.189C256.031 161.189 256.032 161.189 256.032 161.189C256.033 161.189 256.033 161.189 256.034 161.189C256.034 161.189 256.035 161.189 256.035 161.189C256.036 161.19 256.037 161.19 256.037 161.19C256.038 161.19 256.038 161.19 256.039 161.19C256.039 161.19 256.04 161.19 256.04 161.19C256.041 161.19 256.041 161.19 256.042 161.19C256.042 161.19 256.043 161.19 256.043 161.19C256.044 161.19 256.044 161.19 256.045 161.19C256.045 161.19 256.046 161.19 256.046 161.19C256.047 161.19 256.047 161.19 256.047 161.19C256.048 161.19 256.048 161.19 256.049 161.19C256.049 161.19 256.05 161.19 256.05 161.19C256.051 161.19 256.051 161.19 256.052 161.19C256.052 161.191 256.053 161.191 256.053 161.191C256.054 161.191 256.054 161.191 256.055 161.191C256.055 161.191 256.056 161.191 256.056 161.191C256.056 161.191 256.057 161.191 256.057 161.191C256.058 161.191 256.058 161.191 256.059 161.191C256.059 161.191 256.06 161.191 256.06 161.191C256.061 161.191 256.061 161.191 256.061 161.191C256.062 161.191 256.062 161.191 256.063 161.191C256.063 161.191 256.064 161.191 256.064 161.191C256.064 161.191 256.065 161.191 256.065 161.191C256.066 161.191 256.066 161.191 256.067 161.191C256.067 161.191 256.067 161.191 256.068 161.191C256.068 161.192 256.069 161.192 256.069 161.192C256.07 161.192 256.07 161.192 256.07 161.192C256.071 161.192 256.071 161.192 256.072 161.192C256.072 161.192 256.072 161.192 256.073 161.192C256.073 161.192 256.074 161.192 256.074 161.192C256.074 161.192 256.075 161.192 256.075 161.192C256.076 161.192 256.076 161.192 256.076 161.192C256.077 161.192 256.077 161.192 256.078 161.192C256.078 161.192 256.078 161.192 256.079 161.192C256.079 161.192 256.08 161.192 256.08 161.192C256.08 161.192 256.081 161.192 256.081 161.192C256.082 161.192 256.082 161.192 256.082 161.192C256.083 161.192 256.083 161.192 256.083 161.192C256.084 161.192 256.084 161.192 256.084 161.192C256.085 161.193 256.085 161.193 256.086 161.193C256.086 161.193 256.086 161.193 256.087 161.193C256.087 161.193 256.087 161.193 256.088 161.193C256.088 161.193 256.088 161.193 256.089 161.193C256.089 161.193 256.089 161.193 256.09 161.193C256.09 161.193 256.091 161.193 256.091 161.193C256.091 161.193 256.092 161.193 256.092 161.193C256.092 161.193 256.093 161.193 256.093 161.193C256.093 161.193 256.094 161.193 256.094 161.193C256.094 161.193 256.095 161.193 256.095 161.193C256.095 161.193 256.095 161.193 256.096 161.193C256.096 161.193 256.096 161.193 256.097 161.193C256.097 161.193 256.097 161.193 256.098 161.193C256.098 161.193 256.098 161.193 256.099 161.193C256.099 161.193 256.099 161.193 256.1 161.193C256.1 161.193 256.1 161.193 256.1 161.193C256.101 161.193 256.101 161.194 256.101 161.194C256.102 161.194 256.102 161.194 256.102 161.194C256.103 161.194 256.103 161.194 256.103 161.194C256.103 161.194 256.104 161.194 256.104 161.194C256.104 161.194 256.105 161.194 256.105 161.194C256.105 161.194 256.105 161.194 256.106 161.194C256.106 161.194 256.106 161.194 256.107 161.194C256.107 161.194 256.107 161.194 256.107 161.194C256.108 161.194 256.108 161.194 256.108 161.194C256.108 161.194 256.109 161.194 256.109 161.194C256.109 161.194 256.109 161.194 256.11 161.194C256.11 161.194 256.11 161.194 256.11 161.194C256.111 161.194 256.111 161.194 256.111 161.194C256.111 161.194 256.112 161.194 256.112 161.194C256.112 161.194 256.112 161.194 256.113 161.194C256.113 161.194 256.113 161.194 256.113 161.194C256.114 161.194 256.114 161.194 256.114 161.194C256.114 161.194 256.115 161.194 256.115 161.194C256.115 161.194 256.115 161.194 256.115 161.194C256.116 161.194 256.116 161.194 256.116 161.194C256.116 161.194 256.117 161.194 256.117 161.194C256.117 161.194 256.117 161.195 256.117 161.195C256.118 161.195 256.118 161.195 256.118 161.195C256.118 161.195 256.118 161.195 256.119 161.195C256.119 161.195 256.119 161.195 256.119 161.195C256.119 161.195 256.12 161.195 256.12 161.195C256.12 161.195 256.12 161.195 256.12 161.195C256.121 161.195 256.121 161.195 256.121 161.195C256.121 161.195 256.121 161.195 256.122 161.195C256.122 161.195 256.122 161.195 256.122 161.195C256.122 161.195 256.122 161.195 256.123 161.195C256.123 161.195 256.123 161.195 256.123 161.195C256.123 161.195 256.123 161.195 256.124 161.195C256.124 161.195 256.124 161.195 256.124 161.195C256.124 161.195 256.124 161.195 256.125 161.195C256.125 161.195 256.125 161.195 256.125 161.195C256.125 161.195 256.125 161.195 256.126 161.195C256.126 161.195 256.126 161.195 256.126 161.195C256.126 161.195 256.126 161.195 256.126 161.195C256.127 161.195 256.127 161.195 256.127 161.195C256.127 161.195 256.127 161.195 256.127 161.195C256.127 161.195 256.128 161.195 256.128 161.195C256.128 161.195 256.128 161.195 256.128 161.195C256.128 161.195 256.128 161.195 256.128 161.195C256.129 161.195 256.129 161.195 256.129 161.195C256.129 161.195 256.129 161.195 256.129 161.195C256.129 161.195 256.129 161.195 256.129 161.195C256.13 161.195 256.13 161.195 256.13 161.195C256.13 161.195 256.13 161.195 256.13 161.195C256.13 161.195 256.13 161.195 256.13 161.195C256.13 161.195 256.131 161.195 256.131 161.195C256.131 161.195 256.131 161.195 256.131 161.195C256.131 161.195 256.131 161.195 256.131 161.195C256.131 161.195 256.131 161.195 256.131 161.195C256.132 161.195 256.132 161.195 256.132 161.195C256.132 161.195 256.132 161.195 256.132 161.195C256.132 161.195 256.132 161.195 256.132 161.195C256.132 161.195 256.132 161.195 256.132 161.195C256.132 161.195 256.132 161.195 256.133 161.195C256.133 161.195 256.133 161.195 256.133 161.195C256.133 161.195 256.133 161.195 256.133 161.195C256.133 161.195 256.133 161.195 256.133 161.195C256.133 161.195 256.133 161.195 256.133 161.195C256.133 161.195 256.133 161.195 256.133 161.195C256.133 161.195 256.133 161.195 256.133 161.195C256.133 161.195 256.133 161.196 256.134 161.196C256.134 161.196 256.134 161.196 256.134 161.196C256.134 161.196 256.134 161.196 256.134 161.196C256.134 161.196 256.134 161.196 256.134 161.196C256.134 161.196 256.134 161.196 256.134 161.196C256.134 161.196 256.134 161.196 256.134 161.196C256.134 161.196 256.134 161.196 256.134 161.196C256.134 161.196 256.134 161.196 256.134 161.196C256.134 161.196 256.134 161.196 256.263 159.199ZM254.932 157.118C253.835 156.973 252.679 156.904 251.468 156.905L251.459 160.905C252.515 160.904 253.492 160.965 254.395 161.084L254.932 157.118ZM251.468 156.905C246.466 156.911 242.316 158.38 239.308 161.543L242.202 164.294C244.272 162.117 247.261 160.91 251.459 160.905L251.468 156.905ZM239.307 161.544C236.311 164.698 235.04 169.596 235.026 175.725L239.026 175.72C239.039 169.983 240.254 166.345 242.203 164.293L239.307 161.544ZM235.026 175.725L234.964 203.825L238.964 203.82L239.026 175.72L235.026 175.725ZM236.968 201.823L227.468 201.835L227.459 205.835L236.959 205.823L236.968 201.823Z" fill="black" mask="url(#path-1-outside-1_52_29)"/>
<path d="M26.3737 184.091L26.3743 184.091C29.6534 183.442 32.4411 181.172 34.3887 178.074C36.3398 174.97 37.4942 170.973 37.4942 166.706C37.4942 162.436 36.3392 158.437 34.3871 155.333C32.4385 152.234 29.6495 149.963 26.3691 149.315L17 147.461V134.103V89.818C17 76.8236 20.8339 65.0796 26.9754 56.6088C33.1181 48.1364 41.5123 43 50.6703 43H275.111C284.27 43 292.664 48.1365 298.807 56.6089C304.948 65.0798 308.782 76.8239 308.782 89.8188V133.81V148.478L298.414 149.152L298.413 149.152C294.819 149.388 291.7 151.532 289.511 154.693C287.32 157.856 286.011 162.093 286.011 166.706C286.011 171.32 287.32 175.557 289.51 178.719C291.699 181.88 294.817 184.023 298.41 184.255L308.782 184.924V199.598V243.595C308.782 256.587 304.948 268.329 298.807 276.799C292.664 285.271 284.269 290.407 275.111 290.407H50.6703C41.5123 290.407 33.1181 285.271 26.9754 276.799C20.8339 268.329 17 256.587 17 243.595V199.304V185.939L26.3737 184.091ZM297.985 134.808L298.92 134.747V133.81V89.818C298.92 80.943 296.313 72.8675 292.049 66.9862C287.785 61.1059 281.81 57.3593 275.111 57.3593H50.6703C43.9722 57.3593 37.9966 61.1059 33.7331 66.9862C29.4689 72.8676 26.862 80.943 26.862 89.818V134.103V134.924L27.6677 135.084C38.5905 137.247 47.3562 150.35 47.3562 166.706C47.3562 183.062 38.5904 196.165 27.6682 198.322L26.862 198.481V199.303V243.594C26.862 252.466 29.4687 260.54 33.7329 266.421C37.9963 272.301 43.972 276.047 50.6703 276.047H275.111C281.81 276.047 287.786 272.301 292.049 266.421C296.313 260.54 298.92 252.466 298.92 243.594V199.598V198.66L297.985 198.6C292.028 198.215 286.586 194.634 282.603 188.905C278.622 183.179 276.149 175.365 276.149 166.706C276.149 158.049 278.622 150.235 282.603 144.508C286.586 138.778 292.028 135.195 297.985 134.808Z" fill="white" stroke="black" stroke-width="2"/>
<path d="M85.1088 227.974H90.956V254.2H85.1088V227.974Z" fill="white" stroke="black" stroke-width="2"/>
<path d="M85.1088 178.385H90.956V204.611H85.1088V178.385Z" fill="white" stroke="black" stroke-width="2"/>
<path d="M85.1088 128.79H90.956V155.022H85.1088V128.79Z" fill="white" stroke="black" stroke-width="2"/>
<path d="M85.1088 79.2076H90.956V105.434H85.1088V79.2076Z" fill="white" stroke="black" stroke-width="2"/>
</g>
<defs>
<clipPath id="clip0_52_29">
<rect width="320" height="320" fill="white"/>
</clipPath>
</defs>
</svg>
