<svg width="476" height="356" viewBox="0 0 476 356" fill="none" xmlns="http://www.w3.org/2000/svg">
<g filter="url(#filter0_d_304_434)">
<g filter="url(#filter1_d_304_434)">
<path d="M6 16C6 10.4772 10.4772 6 16 6H460C465.523 6 470 10.4772 470 16V338C470 343.523 465.523 348 460 348H16C10.4772 348 6 343.523 6 338V16Z" fill="white"/>
<path d="M6.5 16C6.5 10.7533 10.7533 6.5 16 6.5H460C465.247 6.5 469.5 10.7533 469.5 16V338C469.5 343.247 465.247 347.5 460 347.5H16C10.7533 347.5 6.5 343.247 6.5 338V16Z" stroke="#C7C8D6"/>
</g>
<path d="M217.54 128.59V116.798H219.432V132H217.606L208.652 120.186H208.542V132H206.65V116.798H208.476L217.43 128.59H217.54ZM226.79 123.134C226.232 123.134 225.748 123.259 225.338 123.508C224.942 123.757 224.648 124.08 224.458 124.476C224.106 125.224 223.93 126.023 223.93 126.874C223.93 129.514 224.846 130.834 226.68 130.834C227.237 130.834 227.714 130.709 228.11 130.46C228.506 130.211 228.806 129.888 229.012 129.492C229.364 128.759 229.54 127.959 229.54 127.094C229.54 124.454 228.623 123.134 226.79 123.134ZM226.79 121.704C228.418 121.704 229.606 122.21 230.354 123.222C231.102 124.234 231.476 125.554 231.476 127.182C231.476 128.355 231.168 129.441 230.552 130.438C230.214 130.981 229.708 131.421 229.034 131.758C228.359 132.095 227.552 132.264 226.614 132.264C225 132.264 223.827 131.78 223.094 130.812C222.36 129.844 221.994 128.546 221.994 126.918C221.994 125.965 222.14 125.158 222.434 124.498C222.742 123.838 223.064 123.332 223.402 122.98C223.739 122.613 224.201 122.313 224.788 122.078C225.374 121.829 226.042 121.704 226.79 121.704ZM235.693 123.112C236.778 122.173 237.981 121.704 239.301 121.704C240.621 121.704 241.523 122.217 242.007 123.244C243.166 122.217 244.383 121.704 245.659 121.704C246.598 121.704 247.338 121.953 247.881 122.452C248.438 122.951 248.717 123.603 248.717 124.41V132H246.847V124.498C246.847 124.117 246.708 123.823 246.429 123.618C246.15 123.413 245.776 123.31 245.307 123.31C244.354 123.31 243.334 123.699 242.249 124.476V132H240.379V124.498C240.379 124.117 240.24 123.823 239.961 123.618C239.682 123.413 239.308 123.31 238.839 123.31C237.856 123.31 236.852 123.684 235.825 124.432V132H233.955V121.968H235.143L235.693 123.112ZM255.549 130.768C256.649 130.768 257.5 130.394 258.101 129.646C258.702 128.898 259.003 127.996 259.003 126.94C259.003 125.884 258.739 125.041 258.211 124.41C257.683 123.765 257.001 123.442 256.165 123.442C255.344 123.442 254.464 123.691 253.525 124.19V130.372C254.214 130.636 254.889 130.768 255.549 130.768ZM253.525 116.204V122.782C254.64 122.151 255.762 121.836 256.891 121.836C258.035 121.836 258.988 122.298 259.751 123.222C260.514 124.131 260.895 125.327 260.895 126.808C260.895 128.289 260.448 129.573 259.553 130.658C258.673 131.729 257.412 132.264 255.769 132.264C254.508 132.264 253.158 131.941 251.721 131.296V116.204H253.525ZM263.367 121.968H264.555L265.105 123.728H265.193C266 122.687 267.107 122.056 268.515 121.836L268.713 123.574C268.024 123.618 267.357 123.794 266.711 124.102C266.066 124.41 265.575 124.821 265.237 125.334V132H263.367V121.968ZM274.333 130.724C275.389 130.724 276.445 130.409 277.501 129.778L278.139 131.098C276.907 131.875 275.587 132.264 274.179 132.264C272.785 132.264 271.678 131.824 270.857 130.944C270.035 130.049 269.625 128.766 269.625 127.094C269.625 125.422 270.05 124.109 270.901 123.156C271.751 122.188 272.881 121.704 274.289 121.704C275.565 121.704 276.569 122.1 277.303 122.892C277.611 123.215 277.867 123.684 278.073 124.3C278.293 124.916 278.403 125.642 278.403 126.478L277.721 127.248H271.495C271.539 129.565 272.485 130.724 274.333 130.724ZM276.555 125.862C276.555 125.041 276.342 124.381 275.917 123.882C275.491 123.383 274.927 123.134 274.223 123.134C273.533 123.134 272.947 123.383 272.463 123.882C271.979 124.366 271.685 125.026 271.583 125.862H276.555Z" fill="black"/>
<path d="M205.11 232.47V230.798H215.714V232.47H211.358V246H209.466V232.47H205.11ZM219.569 244.724C220.625 244.724 221.681 244.409 222.737 243.778L223.375 245.098C222.143 245.875 220.823 246.264 219.415 246.264C218.022 246.264 216.914 245.824 216.093 244.944C215.272 244.049 214.861 242.766 214.861 241.094C214.861 239.422 215.286 238.109 216.137 237.156C216.988 236.188 218.117 235.704 219.525 235.704C220.801 235.704 221.806 236.1 222.539 236.892C222.847 237.215 223.104 237.684 223.309 238.3C223.529 238.916 223.639 239.642 223.639 240.478L222.957 241.248H216.731C216.775 243.565 217.721 244.724 219.569 244.724ZM221.791 239.862C221.791 239.041 221.578 238.381 221.153 237.882C220.728 237.383 220.163 237.134 219.459 237.134C218.77 237.134 218.183 237.383 217.699 237.882C217.215 238.366 216.922 239.026 216.819 239.862H221.791ZM225.853 230.204H227.657V246H225.853V230.204ZM234.758 244.724C235.814 244.724 236.87 244.409 237.926 243.778L238.564 245.098C237.332 245.875 236.012 246.264 234.604 246.264C233.211 246.264 232.104 245.824 231.282 244.944C230.461 244.049 230.05 242.766 230.05 241.094C230.05 239.422 230.476 238.109 231.326 237.156C232.177 236.188 233.306 235.704 234.714 235.704C235.99 235.704 236.995 236.1 237.728 236.892C238.036 237.215 238.293 237.684 238.498 238.3C238.718 238.916 238.828 239.642 238.828 240.478L238.146 241.248H231.92C231.964 243.565 232.91 244.724 234.758 244.724ZM236.98 239.862C236.98 239.041 236.768 238.381 236.342 237.882C235.917 237.383 235.352 237.134 234.648 237.134C233.959 237.134 233.372 237.383 232.888 237.882C232.404 238.366 232.111 239.026 232.008 239.862H236.98ZM234.78 234.714H233.372L236.166 230.666L237.75 231.854L234.78 234.714ZM241.637 235.968V233.306C241.637 232.221 241.894 231.392 242.407 230.82C242.92 230.233 243.588 229.94 244.409 229.94C245.245 229.94 246.132 230.16 247.071 230.6L246.433 231.92C245.788 231.656 245.23 231.524 244.761 231.524C243.881 231.524 243.441 232.111 243.441 233.284V235.968H246.169V237.354H243.441V246H241.637V237.354H240.141V235.968H241.637ZM251.841 237.134C251.283 237.134 250.799 237.259 250.389 237.508C249.993 237.757 249.699 238.08 249.509 238.476C249.157 239.224 248.981 240.023 248.981 240.874C248.981 243.514 249.897 244.834 251.731 244.834C252.288 244.834 252.765 244.709 253.161 244.46C253.557 244.211 253.857 243.888 254.063 243.492C254.415 242.759 254.591 241.959 254.591 241.094C254.591 238.454 253.674 237.134 251.841 237.134ZM251.841 235.704C253.469 235.704 254.657 236.21 255.405 237.222C256.153 238.234 256.527 239.554 256.527 241.182C256.527 242.355 256.219 243.441 255.603 244.438C255.265 244.981 254.759 245.421 254.085 245.758C253.41 246.095 252.603 246.264 251.665 246.264C250.051 246.264 248.878 245.78 248.145 244.812C247.411 243.844 247.045 242.546 247.045 240.918C247.045 239.965 247.191 239.158 247.485 238.498C247.793 237.838 248.115 237.332 248.453 236.98C248.79 236.613 249.252 236.313 249.839 236.078C250.425 235.829 251.093 235.704 251.841 235.704ZM267.63 238.41V246H265.76V238.498C265.76 238.117 265.606 237.823 265.298 237.618C265.005 237.413 264.609 237.31 264.11 237.31C263.069 237.31 261.991 237.684 260.876 238.432V246H259.006V235.968H260.194L260.744 237.112C261.873 236.173 263.098 235.704 264.418 235.704C265.401 235.704 266.178 235.953 266.75 236.452C267.337 236.951 267.63 237.603 267.63 238.41ZM274.829 237.134C274.272 237.134 273.788 237.259 273.377 237.508C272.981 237.757 272.688 238.08 272.497 238.476C272.145 239.224 271.969 240.023 271.969 240.874C271.969 243.514 272.886 244.834 274.719 244.834C275.276 244.834 275.753 244.709 276.149 244.46C276.545 244.211 276.846 243.888 277.051 243.492C277.403 242.759 277.579 241.959 277.579 241.094C277.579 238.454 276.662 237.134 274.829 237.134ZM274.829 235.704C276.457 235.704 277.645 236.21 278.393 237.222C279.141 238.234 279.515 239.554 279.515 241.182C279.515 242.355 279.207 243.441 278.591 244.438C278.254 244.981 277.748 245.421 277.073 245.758C276.398 246.095 275.592 246.264 274.653 246.264C273.04 246.264 271.866 245.78 271.133 244.812C270.4 243.844 270.033 242.546 270.033 240.918C270.033 239.965 270.18 239.158 270.473 238.498C270.781 237.838 271.104 237.332 271.441 236.98C271.778 236.613 272.24 236.313 272.827 236.078C273.414 235.829 274.081 235.704 274.829 235.704Z" fill="black"/>
<path d="M232.938 152.054C232.902 152.054 232.848 152.048 232.776 152.036C232.716 152.024 232.674 152.012 232.65 152L228.582 141.056H229.014L228.078 151.442L227.934 151.028L229.464 151.316C229.464 151.484 229.44 151.622 229.392 151.73C229.356 151.826 229.272 151.916 229.14 152H225.918C225.918 151.808 225.942 151.658 225.99 151.55C226.038 151.43 226.11 151.364 226.206 151.352L227.43 151.064L227.214 151.514L228.204 140.876L228.312 141.434L226.89 141.128C226.89 140.96 226.908 140.828 226.944 140.732C226.992 140.636 227.082 140.546 227.214 140.462H229.95L233.604 150.326H232.974L236.574 140.462H239.58C239.58 140.654 239.556 140.804 239.508 140.912C239.46 141.02 239.388 141.086 239.292 141.11L237.942 141.434L238.32 140.84L239.166 151.496L238.95 151.01L240.444 151.316C240.444 151.484 240.42 151.622 240.372 151.73C240.336 151.826 240.252 151.916 240.12 152H236.34C236.34 151.808 236.364 151.658 236.412 151.55C236.46 151.43 236.532 151.364 236.628 151.352L237.942 151.01L237.726 151.568L236.862 140.966H237.276L233.388 151.694C233.34 151.826 233.268 151.922 233.172 151.982C233.088 152.03 233.01 152.054 232.938 152.054ZM244.013 152.216C243.449 152.216 242.981 152.054 242.609 151.73C242.237 151.394 242.051 150.95 242.051 150.398C242.051 149.714 242.267 149.156 242.699 148.724C243.143 148.292 243.803 147.974 244.679 147.77L247.037 147.23L246.803 147.428V146.078C246.803 145.442 246.695 144.98 246.479 144.692C246.263 144.392 245.927 144.242 245.471 144.242C244.919 144.242 244.493 144.41 244.193 144.746C243.893 145.07 243.743 145.544 243.743 146.168C243.683 146.228 243.599 146.276 243.491 146.312C243.383 146.348 243.275 146.366 243.167 146.366C242.963 146.366 242.801 146.306 242.681 146.186C242.561 146.066 242.501 145.904 242.501 145.7C242.501 145.304 242.639 144.956 242.915 144.656C243.191 144.356 243.569 144.122 244.049 143.954C244.541 143.774 245.087 143.684 245.687 143.684C246.575 143.684 247.223 143.906 247.631 144.35C248.051 144.794 248.261 145.502 248.261 146.474V150.704C248.261 150.908 248.303 151.064 248.387 151.172C248.471 151.28 248.591 151.334 248.747 151.334C248.879 151.334 249.023 151.298 249.179 151.226C249.347 151.154 249.485 151.076 249.593 150.992L249.719 151.478C249.527 151.706 249.281 151.886 248.981 152.018C248.681 152.15 248.393 152.216 248.117 152.216C247.733 152.216 247.433 152.096 247.217 151.856C247.001 151.604 246.893 151.25 246.893 150.794H246.821C246.485 151.25 246.071 151.604 245.579 151.856C245.087 152.096 244.565 152.216 244.013 152.216ZM244.697 151.37C245.129 151.37 245.543 151.262 245.939 151.046C246.335 150.83 246.665 150.53 246.929 150.146L246.821 150.452V147.752L247.055 147.788L245.003 148.274C244.487 148.394 244.091 148.604 243.815 148.904C243.551 149.192 243.419 149.558 243.419 150.002C243.419 150.422 243.533 150.758 243.761 151.01C243.989 151.25 244.301 151.37 244.697 151.37ZM253.991 152.216C253.307 152.216 252.779 151.994 252.407 151.55C252.035 151.094 251.849 150.38 251.849 149.408V144.728L252.119 144.998L251.003 144.8C250.919 144.788 250.853 144.734 250.805 144.638C250.757 144.53 250.733 144.374 250.733 144.17C251.189 144.11 251.531 144.068 251.759 144.044C251.999 144.008 252.191 143.99 252.335 143.99C252.659 143.99 252.899 144.068 253.055 144.224C253.223 144.38 253.307 144.626 253.307 144.962V149.372C253.307 150.02 253.433 150.5 253.685 150.812C253.949 151.112 254.333 151.262 254.837 151.262C255.161 151.262 255.461 151.208 255.737 151.1C256.025 150.992 256.277 150.848 256.493 150.668C256.721 150.476 256.913 150.266 257.069 150.038L256.943 150.344V144.728L257.213 144.998L256.079 144.8C255.995 144.788 255.929 144.734 255.881 144.638C255.845 144.53 255.827 144.374 255.827 144.17C256.283 144.11 256.625 144.068 256.853 144.044C257.093 144.008 257.279 143.99 257.411 143.99C257.747 143.99 257.993 144.068 258.149 144.224C258.305 144.38 258.383 144.626 258.383 144.962V150.704C258.383 150.908 258.425 151.064 258.509 151.172C258.605 151.28 258.731 151.334 258.887 151.334C259.019 151.334 259.157 151.304 259.301 151.244C259.457 151.172 259.595 151.088 259.715 150.992L259.859 151.478C259.655 151.706 259.403 151.886 259.103 152.018C258.803 152.15 258.515 152.216 258.239 152.216C257.867 152.216 257.573 152.096 257.357 151.856C257.141 151.604 257.033 151.25 257.033 150.794H256.943C256.127 151.742 255.143 152.216 253.991 152.216ZM261.267 152C261.267 151.64 261.363 151.424 261.555 151.352L262.581 151.01L262.383 151.316V144.638L262.599 144.908L261.537 144.71C261.453 144.686 261.387 144.626 261.339 144.53C261.291 144.422 261.267 144.272 261.267 144.08C261.735 144.008 262.083 143.96 262.311 143.936C262.539 143.9 262.731 143.882 262.887 143.882C263.175 143.882 263.391 143.966 263.535 144.134C263.679 144.29 263.751 144.554 263.751 144.926V145.682L263.643 145.574H263.823C264.147 145.01 264.543 144.554 265.011 144.206C265.491 143.858 265.947 143.684 266.379 143.684C266.835 143.684 267.159 143.786 267.351 143.99C267.543 144.182 267.639 144.428 267.639 144.728C267.639 144.956 267.567 145.154 267.423 145.322C267.291 145.49 267.117 145.574 266.901 145.574C266.733 145.262 266.559 145.052 266.379 144.944C266.199 144.836 266.001 144.782 265.785 144.782C265.449 144.782 265.095 144.932 264.723 145.232C264.351 145.532 264.015 145.892 263.715 146.312L263.841 145.97V151.298L263.589 150.974L265.155 151.316C265.155 151.496 265.131 151.634 265.083 151.73C265.047 151.826 264.963 151.916 264.831 152H261.267ZM268.509 152C268.509 151.616 268.605 151.4 268.797 151.352L269.877 151.01L269.679 151.262V144.566L269.895 144.836L268.779 144.638C268.599 144.614 268.509 144.404 268.509 144.008C268.917 143.948 269.253 143.906 269.517 143.882C269.793 143.846 270.063 143.828 270.327 143.828C270.879 143.828 271.155 144.17 271.155 144.854V151.226L270.939 150.992L272.379 151.334C272.379 151.514 272.355 151.652 272.307 151.748C272.271 151.832 272.187 151.916 272.055 152H268.509ZM270.345 142.046C270.057 142.046 269.835 141.968 269.679 141.812C269.523 141.644 269.445 141.428 269.445 141.164C269.445 140.9 269.535 140.684 269.715 140.516C269.907 140.348 270.117 140.264 270.345 140.264C270.633 140.264 270.855 140.348 271.011 140.516C271.179 140.672 271.263 140.888 271.263 141.164C271.263 141.416 271.167 141.626 270.975 141.794C270.795 141.962 270.585 142.046 270.345 142.046ZM277.414 152.216C276.67 152.216 276.016 152.054 275.452 151.73C274.9 151.406 274.474 150.95 274.174 150.362C273.874 149.774 273.724 149.078 273.724 148.274C273.724 147.374 273.898 146.582 274.246 145.898C274.606 145.202 275.098 144.662 275.722 144.278C276.346 143.882 277.054 143.684 277.846 143.684C278.386 143.684 278.878 143.774 279.322 143.954C279.766 144.122 280.114 144.356 280.366 144.656C280.63 144.956 280.762 145.286 280.762 145.646C280.762 145.886 280.69 146.078 280.546 146.222C280.414 146.354 280.228 146.42 279.988 146.42C279.88 146.42 279.778 146.408 279.682 146.384C279.586 146.348 279.49 146.306 279.394 146.258C279.394 145.622 279.244 145.136 278.944 144.8C278.656 144.464 278.23 144.296 277.666 144.296C276.898 144.296 276.31 144.602 275.902 145.214C275.494 145.814 275.29 146.678 275.29 147.806C275.29 148.982 275.512 149.876 275.956 150.488C276.412 151.088 277.084 151.388 277.972 151.388C278.452 151.388 278.914 151.292 279.358 151.1C279.814 150.896 280.228 150.608 280.6 150.236L280.834 150.668C280.582 150.98 280.27 151.256 279.898 151.496C279.538 151.724 279.142 151.898 278.71 152.018C278.29 152.15 277.858 152.216 277.414 152.216ZM282.343 152C282.343 151.616 282.439 151.4 282.631 151.352L283.711 151.01L283.513 151.262V144.566L283.729 144.836L282.613 144.638C282.433 144.614 282.343 144.404 282.343 144.008C282.751 143.948 283.087 143.906 283.351 143.882C283.627 143.846 283.897 143.828 284.161 143.828C284.713 143.828 284.989 144.17 284.989 144.854V151.226L284.773 150.992L286.213 151.334C286.213 151.514 286.189 151.652 286.141 151.748C286.105 151.832 286.021 151.916 285.889 152H282.343ZM284.179 142.046C283.891 142.046 283.669 141.968 283.513 141.812C283.357 141.644 283.279 141.428 283.279 141.164C283.279 140.9 283.369 140.684 283.549 140.516C283.741 140.348 283.951 140.264 284.179 140.264C284.467 140.264 284.689 140.348 284.845 140.516C285.013 140.672 285.097 140.888 285.097 141.164C285.097 141.416 285.001 141.626 284.809 141.794C284.629 141.962 284.419 142.046 284.179 142.046ZM291.176 152.216C290.06 152.216 289.178 151.868 288.53 151.172C287.882 150.476 287.558 149.546 287.558 148.382C287.558 147.482 287.744 146.678 288.116 145.97C288.5 145.262 289.022 144.704 289.682 144.296C290.342 143.888 291.098 143.684 291.95 143.684C292.694 143.684 293.336 143.846 293.876 144.17C294.416 144.482 294.836 144.926 295.136 145.502C295.436 146.078 295.586 146.756 295.586 147.536C295.586 148.448 295.4 149.258 295.028 149.966C294.656 150.662 294.134 151.214 293.462 151.622C292.802 152.018 292.04 152.216 291.176 152.216ZM291.518 151.604C292.322 151.604 292.94 151.28 293.372 150.632C293.816 149.984 294.038 149.078 294.038 147.914C294.038 146.75 293.834 145.856 293.426 145.232C293.018 144.608 292.424 144.296 291.644 144.296C290.84 144.296 290.216 144.62 289.772 145.268C289.328 145.904 289.106 146.816 289.106 148.004C289.106 149.168 289.31 150.062 289.718 150.686C290.138 151.298 290.738 151.604 291.518 151.604ZM305.166 152.216C304.806 152.216 304.398 152.18 303.942 152.108C303.486 152.036 303.03 151.934 302.574 151.802C302.13 151.658 301.722 151.496 301.35 151.316L301.674 148.886C301.77 148.718 301.926 148.634 302.142 148.634C302.202 148.634 302.262 148.64 302.322 148.652C302.394 148.652 302.448 148.664 302.484 148.688L302.61 151.19L302.286 150.488C302.526 150.668 302.814 150.83 303.15 150.974C303.486 151.106 303.828 151.214 304.176 151.298C304.536 151.382 304.878 151.424 305.202 151.424C305.898 151.424 306.462 151.22 306.894 150.812C307.338 150.404 307.56 149.882 307.56 149.246C307.56 148.886 307.482 148.574 307.326 148.31C307.182 148.046 306.912 147.788 306.516 147.536C306.132 147.284 305.58 147.002 304.86 146.69C304.104 146.342 303.504 146.006 303.06 145.682C302.616 145.346 302.298 144.98 302.106 144.584C301.914 144.188 301.818 143.732 301.818 143.216C301.818 142.304 302.124 141.578 302.736 141.038C303.36 140.486 304.182 140.21 305.202 140.21C305.694 140.21 306.222 140.276 306.786 140.408C307.35 140.54 307.902 140.738 308.442 141.002L308.172 143.342C307.98 143.342 307.824 143.312 307.704 143.252C307.596 143.192 307.536 143.12 307.524 143.036L307.29 141.236L307.668 141.902C307.404 141.626 307.044 141.404 306.588 141.236C306.144 141.068 305.676 140.984 305.184 140.984C304.524 140.984 304.002 141.152 303.618 141.488C303.234 141.824 303.042 142.274 303.042 142.838C303.042 143.186 303.12 143.498 303.276 143.774C303.432 144.038 303.708 144.296 304.104 144.548C304.5 144.8 305.058 145.082 305.778 145.394C306.57 145.742 307.194 146.084 307.65 146.42C308.118 146.756 308.448 147.122 308.64 147.518C308.844 147.902 308.946 148.358 308.946 148.886C308.946 149.546 308.79 150.128 308.478 150.632C308.166 151.136 307.728 151.526 307.164 151.802C306.6 152.078 305.934 152.216 305.166 152.216ZM312.761 152.216C312.197 152.216 311.729 152.054 311.357 151.73C310.985 151.394 310.799 150.95 310.799 150.398C310.799 149.714 311.015 149.156 311.447 148.724C311.891 148.292 312.551 147.974 313.427 147.77L315.785 147.23L315.551 147.428V146.078C315.551 145.442 315.443 144.98 315.227 144.692C315.011 144.392 314.675 144.242 314.219 144.242C313.667 144.242 313.241 144.41 312.941 144.746C312.641 145.07 312.491 145.544 312.491 146.168C312.431 146.228 312.347 146.276 312.239 146.312C312.131 146.348 312.023 146.366 311.915 146.366C311.711 146.366 311.549 146.306 311.429 146.186C311.309 146.066 311.249 145.904 311.249 145.7C311.249 145.304 311.387 144.956 311.663 144.656C311.939 144.356 312.317 144.122 312.797 143.954C313.289 143.774 313.835 143.684 314.435 143.684C315.323 143.684 315.971 143.906 316.379 144.35C316.799 144.794 317.009 145.502 317.009 146.474V150.704C317.009 150.908 317.051 151.064 317.135 151.172C317.219 151.28 317.339 151.334 317.495 151.334C317.627 151.334 317.771 151.298 317.927 151.226C318.095 151.154 318.233 151.076 318.341 150.992L318.467 151.478C318.275 151.706 318.029 151.886 317.729 152.018C317.429 152.15 317.141 152.216 316.865 152.216C316.481 152.216 316.181 152.096 315.965 151.856C315.749 151.604 315.641 151.25 315.641 150.794H315.569C315.233 151.25 314.819 151.604 314.327 151.856C313.835 152.096 313.313 152.216 312.761 152.216ZM313.445 151.37C313.877 151.37 314.291 151.262 314.687 151.046C315.083 150.83 315.413 150.53 315.677 150.146L315.569 150.452V147.752L315.803 147.788L313.751 148.274C313.235 148.394 312.839 148.604 312.563 148.904C312.299 149.192 312.167 149.558 312.167 150.002C312.167 150.422 312.281 150.758 312.509 151.01C312.737 151.25 313.049 151.37 313.445 151.37ZM319.697 152C319.697 151.616 319.793 151.4 319.985 151.352L321.011 151.01L320.813 151.262V144.638L321.029 144.908L319.967 144.71C319.787 144.674 319.697 144.464 319.697 144.08C320.153 144.008 320.495 143.96 320.723 143.936C320.963 143.9 321.161 143.882 321.317 143.882C321.629 143.882 321.851 143.96 321.983 144.116C322.115 144.272 322.181 144.524 322.181 144.872V145.538L322.109 145.484H322.271C322.727 144.932 323.255 144.494 323.855 144.17C324.467 143.846 325.049 143.684 325.601 143.684C326.273 143.684 326.771 143.924 327.095 144.404C327.419 144.884 327.581 145.61 327.581 146.582V151.298L327.365 151.046L328.589 151.334C328.589 151.514 328.565 151.652 328.517 151.748C328.481 151.832 328.403 151.916 328.283 152H325.133C325.133 151.616 325.229 151.4 325.421 151.352L326.321 151.082L326.123 151.334V146.618C326.123 145.346 325.673 144.71 324.773 144.71C324.437 144.71 324.101 144.782 323.765 144.926C323.429 145.058 323.117 145.244 322.829 145.484C322.553 145.712 322.319 145.964 322.127 146.24L322.271 145.898V151.298L322.055 151.046L323.279 151.334C323.279 151.514 323.255 151.652 323.207 151.748C323.171 151.832 323.087 151.916 322.955 152H319.697ZM330.443 152C330.443 151.616 330.539 151.4 330.731 151.352L331.631 151.082L331.433 151.334V146.618C331.433 145.346 330.983 144.71 330.083 144.71C329.591 144.71 329.105 144.86 328.625 145.16C328.157 145.448 327.773 145.802 327.473 146.222L327.275 145.484H327.545C328.013 144.932 328.547 144.494 329.147 144.17C329.759 143.846 330.341 143.684 330.893 143.684C331.577 143.684 332.081 143.924 332.405 144.404C332.729 144.884 332.891 145.61 332.891 146.582V151.226L332.675 150.992L334.007 151.334C334.007 151.514 333.983 151.652 333.935 151.748C333.899 151.832 333.821 151.916 333.701 152H330.443ZM338.937 152.216C338.481 152.216 338.001 152.156 337.497 152.036C337.005 151.928 336.549 151.76 336.129 151.532V139.544L336.327 139.814L335.283 139.616C335.091 139.58 334.995 139.37 334.995 138.986C335.475 138.914 335.829 138.866 336.057 138.842C336.285 138.806 336.477 138.788 336.633 138.788C336.933 138.788 337.149 138.854 337.281 138.986C337.425 139.118 337.497 139.328 337.497 139.616V145.574L337.425 145.466H337.587C337.971 144.902 338.433 144.464 338.973 144.152C339.525 143.84 340.089 143.684 340.665 143.684C341.265 143.684 341.781 143.84 342.213 144.152C342.657 144.464 342.999 144.908 343.239 145.484C343.491 146.048 343.617 146.72 343.617 147.5C343.617 148.448 343.431 149.276 343.059 149.984C342.699 150.692 342.171 151.244 341.475 151.64C340.779 152.024 339.933 152.216 338.937 152.216ZM339.315 151.514C340.263 151.514 340.953 151.22 341.385 150.632C341.817 150.044 342.033 149.114 342.033 147.842C342.033 146.738 341.871 145.928 341.547 145.412C341.223 144.896 340.713 144.638 340.017 144.638C339.645 144.638 339.303 144.71 338.991 144.854C338.691 144.986 338.409 145.184 338.145 145.448C337.881 145.7 337.623 146.006 337.371 146.366L337.551 145.952V151.208L337.371 150.884C337.719 151.112 338.043 151.274 338.343 151.37C338.655 151.466 338.979 151.514 339.315 151.514ZM345.168 152C345.168 151.64 345.264 151.424 345.456 151.352L346.482 151.01L346.284 151.316V144.638L346.5 144.908L345.438 144.71C345.354 144.686 345.288 144.626 345.24 144.53C345.192 144.422 345.168 144.272 345.168 144.08C345.636 144.008 345.984 143.96 346.212 143.936C346.44 143.9 346.632 143.882 346.788 143.882C347.076 143.882 347.292 143.966 347.436 144.134C347.58 144.29 347.652 144.554 347.652 144.926V145.682L347.544 145.574H347.724C348.048 145.01 348.444 144.554 348.912 144.206C349.392 143.858 349.848 143.684 350.28 143.684C350.736 143.684 351.06 143.786 351.252 143.99C351.444 144.182 351.54 144.428 351.54 144.728C351.54 144.956 351.468 145.154 351.324 145.322C351.192 145.49 351.018 145.574 350.802 145.574C350.634 145.262 350.46 145.052 350.28 144.944C350.1 144.836 349.902 144.782 349.686 144.782C349.35 144.782 348.996 144.932 348.624 145.232C348.252 145.532 347.916 145.892 347.616 146.312L347.742 145.97V151.298L347.49 150.974L349.056 151.316C349.056 151.496 349.032 151.634 348.984 151.73C348.948 151.826 348.864 151.916 348.732 152H345.168ZM355.688 152.216C354.956 152.216 354.314 152.054 353.762 151.73C353.222 151.394 352.802 150.932 352.502 150.344C352.202 149.756 352.052 149.078 352.052 148.31C352.052 147.434 352.232 146.648 352.592 145.952C352.964 145.256 353.456 144.704 354.068 144.296C354.68 143.888 355.346 143.684 356.066 143.684C356.69 143.684 357.23 143.828 357.686 144.116C358.154 144.392 358.52 144.782 358.784 145.286C359.048 145.79 359.18 146.372 359.18 147.032C359.18 147.26 359.138 147.416 359.054 147.5C358.97 147.572 358.874 147.608 358.766 147.608H353.096V147.05L357.992 146.924L357.794 147.122C357.818 146.546 357.746 146.048 357.578 145.628C357.422 145.208 357.194 144.884 356.894 144.656C356.606 144.416 356.264 144.296 355.868 144.296C355.208 144.296 354.668 144.602 354.248 145.214C353.828 145.826 353.618 146.69 353.618 147.806C353.618 148.526 353.72 149.156 353.924 149.696C354.14 150.224 354.452 150.638 354.86 150.938C355.268 151.238 355.76 151.388 356.336 151.388C356.816 151.388 357.278 151.268 357.722 151.028C358.166 150.776 358.562 150.428 358.91 149.984L359.144 150.434C358.892 150.794 358.58 151.112 358.208 151.388C357.836 151.652 357.434 151.856 357.002 152C356.582 152.144 356.144 152.216 355.688 152.216ZM360.742 152C360.742 151.616 360.838 151.4 361.03 151.352L362.056 151.01L361.858 151.316V144.638L362.074 144.908L361.012 144.71C360.832 144.674 360.742 144.464 360.742 144.08C361.198 144.008 361.54 143.96 361.768 143.936C362.008 143.9 362.206 143.882 362.362 143.882C362.674 143.882 362.896 143.96 363.028 144.116C363.16 144.272 363.226 144.524 363.226 144.872V145.538L363.118 145.484H363.316C363.796 144.932 364.342 144.494 364.954 144.17C365.578 143.846 366.184 143.684 366.772 143.684C368.164 143.684 368.86 144.65 368.86 146.582V151.226L368.644 150.992L369.976 151.334C369.976 151.514 369.958 151.652 369.922 151.748C369.886 151.832 369.808 151.916 369.688 152H366.43C366.43 151.616 366.526 151.4 366.718 151.352L367.6 151.082L367.42 151.388V146.618C367.42 145.346 366.94 144.71 365.98 144.71C365.62 144.71 365.26 144.782 364.9 144.926C364.552 145.058 364.228 145.244 363.928 145.484C363.628 145.712 363.376 145.964 363.172 146.24L363.316 145.898V151.298L363.1 151.046L364.324 151.334C364.324 151.514 364.3 151.652 364.252 151.748C364.216 151.832 364.132 151.916 364 152H360.742ZM371.482 152C371.482 151.616 371.578 151.4 371.77 151.352L372.85 151.01L372.652 151.262V144.566L372.868 144.836L371.752 144.638C371.572 144.614 371.482 144.404 371.482 144.008C371.89 143.948 372.226 143.906 372.49 143.882C372.766 143.846 373.036 143.828 373.3 143.828C373.852 143.828 374.128 144.17 374.128 144.854V151.226L373.912 150.992L375.352 151.334C375.352 151.514 375.328 151.652 375.28 151.748C375.244 151.832 375.16 151.916 375.028 152H371.482ZM373.318 142.046C373.03 142.046 372.808 141.968 372.652 141.812C372.496 141.644 372.418 141.428 372.418 141.164C372.418 140.9 372.508 140.684 372.688 140.516C372.88 140.348 373.09 140.264 373.318 140.264C373.606 140.264 373.828 140.348 373.984 140.516C374.152 140.672 374.236 140.888 374.236 141.164C374.236 141.416 374.14 141.626 373.948 141.794C373.768 141.962 373.558 142.046 373.318 142.046ZM376.822 152C376.822 151.796 376.846 151.646 376.894 151.55C376.942 151.454 377.014 151.388 377.11 151.352L378.19 151.01L377.992 151.262V139.544L378.208 139.814L377.092 139.616C376.912 139.58 376.822 139.37 376.822 138.986C377.218 138.926 377.554 138.878 377.83 138.842C378.106 138.806 378.37 138.788 378.622 138.788C379.174 138.788 379.45 139.136 379.45 139.832V151.226L379.234 150.992L380.692 151.334C380.692 151.514 380.668 151.652 380.62 151.748C380.584 151.832 380.5 151.916 380.368 152H376.822Z" fill="black"/>
<path d="M230.166 273.824C229.974 273.824 229.71 273.692 229.374 273.428C229.038 273.164 228.678 272.774 228.294 272.258C227.91 271.742 227.544 271.1 227.196 270.332C226.848 269.576 226.56 268.7 226.332 267.704C226.116 266.708 226.008 265.592 226.008 264.356C226.008 263.12 226.116 262.004 226.332 261.008C226.56 260 226.848 259.118 227.196 258.362C227.544 257.594 227.91 256.952 228.294 256.436C228.678 255.92 229.038 255.53 229.374 255.266C229.71 255.002 229.974 254.87 230.166 254.87C230.394 254.87 230.526 254.996 230.562 255.248C230.058 255.68 229.62 256.232 229.248 256.904C228.888 257.564 228.588 258.302 228.348 259.118C228.108 259.922 227.928 260.774 227.808 261.674C227.688 262.574 227.628 263.474 227.628 264.374C227.628 265.262 227.682 266.15 227.79 267.038C227.91 267.926 228.09 268.778 228.33 269.594C228.582 270.41 228.888 271.148 229.248 271.808C229.62 272.468 230.058 273.014 230.562 273.446C230.526 273.698 230.394 273.824 230.166 273.824ZM236.04 267.614C235.944 267.614 235.836 267.602 235.716 267.578C235.608 267.542 235.524 267.488 235.464 267.416V259.982C235.5 259.958 235.548 259.946 235.608 259.946C235.668 259.934 235.728 259.928 235.788 259.928C235.896 259.928 236.004 259.946 236.112 259.982C236.22 260.006 236.304 260.054 236.364 260.126V267.56C236.316 267.572 236.262 267.584 236.202 267.596C236.154 267.608 236.1 267.614 236.04 267.614ZM232.314 264.23C232.194 264.086 232.134 263.906 232.134 263.69C232.134 263.642 232.14 263.588 232.152 263.528C232.164 263.456 232.176 263.396 232.188 263.348H239.424C239.556 263.48 239.622 263.66 239.622 263.888C239.622 263.936 239.616 263.99 239.604 264.05C239.604 264.11 239.592 264.17 239.568 264.23H232.314ZM245.638 269.216C244.99 269.216 244.39 269.102 243.838 268.874C243.286 268.646 242.842 268.34 242.506 267.956C242.182 267.572 242.02 267.152 242.02 266.696C242.02 266.432 242.08 266.24 242.2 266.12C242.32 265.988 242.494 265.922 242.722 265.922C242.818 265.922 242.914 265.934 243.01 265.958C243.118 265.982 243.196 266.018 243.244 266.066C243.244 266.798 243.454 267.374 243.874 267.794C244.294 268.214 244.876 268.424 245.62 268.424C246.424 268.424 247.066 268.178 247.546 267.686C248.026 267.182 248.266 266.51 248.266 265.67C248.266 265.094 248.152 264.584 247.924 264.14C247.696 263.696 247.384 263.354 246.988 263.114C246.592 262.862 246.13 262.736 245.602 262.736C245.158 262.736 244.696 262.826 244.216 263.006C243.736 263.174 243.352 263.39 243.064 263.654C242.92 263.594 242.824 263.522 242.776 263.438C242.728 263.342 242.704 263.18 242.704 262.952L243.172 257.462H249.256L248.914 260.198C248.71 260.174 248.554 260.15 248.446 260.126C248.338 260.09 248.266 260.048 248.23 260C248.194 259.952 248.17 259.892 248.158 259.82L247.996 257.714L248.626 258.182L243.352 258.488L243.91 257.912V262.826L243.226 262.808C243.682 262.532 244.138 262.334 244.594 262.214C245.062 262.082 245.548 262.016 246.052 262.016C246.82 262.016 247.492 262.154 248.068 262.43C248.644 262.706 249.088 263.096 249.4 263.6C249.724 264.092 249.886 264.68 249.886 265.364C249.886 266.096 249.694 266.756 249.31 267.344C248.938 267.92 248.434 268.376 247.798 268.712C247.162 269.048 246.442 269.216 245.638 269.216ZM254.834 269C254.834 268.808 254.858 268.658 254.906 268.55C254.966 268.442 255.038 268.376 255.122 268.352L256.634 268.028L256.382 268.316V258.254L257.012 258.092L251.72 265.616L251.342 265.166H258.992V265.94H251.504C251.144 265.868 250.964 265.628 250.964 265.22L256.652 257.21C257.456 257.21 257.858 257.522 257.858 258.146V268.298L257.534 267.992L259.1 268.334C259.1 268.514 259.076 268.652 259.028 268.748C258.992 268.844 258.908 268.928 258.776 269H254.834ZM260.522 273.824C260.294 273.824 260.162 273.698 260.126 273.446C260.63 273.014 261.062 272.468 261.422 271.808C261.794 271.148 262.1 270.41 262.34 269.594C262.592 268.778 262.772 267.926 262.88 267.038C263 266.15 263.06 265.262 263.06 264.374C263.06 263.474 263 262.574 262.88 261.674C262.76 260.774 262.58 259.922 262.34 259.118C262.1 258.302 261.794 257.564 261.422 256.904C261.062 256.232 260.63 255.68 260.126 255.248C260.162 254.996 260.294 254.87 260.522 254.87C260.714 254.87 260.978 255.002 261.314 255.266C261.65 255.53 262.01 255.92 262.394 256.436C262.778 256.952 263.144 257.594 263.492 258.362C263.84 259.118 264.122 260 264.338 261.008C264.566 262.004 264.68 263.12 264.68 264.356C264.68 265.592 264.566 266.708 264.338 267.704C264.122 268.7 263.84 269.576 263.492 270.332C263.144 271.1 262.778 271.742 262.394 272.258C262.01 272.774 261.65 273.164 261.314 273.428C260.978 273.692 260.714 273.824 260.522 273.824ZM274.956 257.174C275.844 257.174 276.594 257.39 277.206 257.822C277.83 258.254 278.304 258.884 278.628 259.712C278.964 260.54 279.132 261.542 279.132 262.718C279.132 264.05 278.928 265.202 278.52 266.174C278.112 267.134 277.536 267.878 276.792 268.406C276.048 268.934 275.166 269.198 274.146 269.198C273.546 269.198 273.012 269.114 272.544 268.946C272.076 268.778 271.704 268.544 271.428 268.244C271.164 267.944 271.032 267.608 271.032 267.236C271.032 267.032 271.086 266.87 271.194 266.75C271.314 266.618 271.476 266.552 271.68 266.552C271.776 266.552 271.878 266.57 271.986 266.606C272.094 266.642 272.19 266.678 272.274 266.714C272.274 267.254 272.46 267.674 272.832 267.974C273.216 268.274 273.726 268.424 274.362 268.424C275.43 268.424 276.222 267.992 276.738 267.128C277.266 266.252 277.53 264.902 277.53 263.078C277.53 259.706 276.606 258.02 274.758 258.02C274.026 258.02 273.45 258.266 273.03 258.758C272.61 259.25 272.4 259.91 272.4 260.738C272.4 261.566 272.604 262.226 273.012 262.718C273.432 263.198 273.99 263.438 274.686 263.438C275.058 263.438 275.448 263.372 275.856 263.24C276.264 263.096 276.642 262.91 276.99 262.682C277.338 262.454 277.614 262.196 277.818 261.908V262.754C277.578 263.078 277.254 263.366 276.846 263.618C276.45 263.858 276.018 264.05 275.55 264.194C275.082 264.326 274.614 264.392 274.146 264.392C273.486 264.392 272.91 264.254 272.418 263.978C271.926 263.702 271.542 263.318 271.266 262.826C270.99 262.322 270.852 261.74 270.852 261.08C270.852 260.324 271.026 259.652 271.374 259.064C271.734 258.476 272.22 258.014 272.832 257.678C273.456 257.342 274.164 257.174 274.956 257.174ZM281.488 264.878C281.452 264.818 281.422 264.752 281.398 264.68C281.374 264.596 281.362 264.506 281.362 264.41C281.362 264.014 281.626 263.816 282.154 263.816C282.586 263.816 282.976 263.822 283.324 263.834C283.672 263.846 284.05 263.852 284.458 263.852C284.674 263.852 284.878 263.846 285.07 263.834C285.262 263.81 285.454 263.774 285.646 263.726C285.682 263.798 285.706 263.87 285.718 263.942C285.742 264.014 285.754 264.098 285.754 264.194C285.754 264.59 285.496 264.788 284.98 264.788C284.536 264.788 284.14 264.782 283.792 264.77C283.456 264.758 283.084 264.752 282.676 264.752C282.448 264.752 282.238 264.764 282.046 264.788C281.854 264.8 281.668 264.83 281.488 264.878ZM289.379 258.218L289.217 260.162C289.205 260.318 289.145 260.432 289.037 260.504C288.929 260.576 288.755 260.618 288.515 260.63L288.227 258.254C288.827 257.906 289.421 257.648 290.009 257.48C290.597 257.3 291.185 257.21 291.773 257.21C292.841 257.21 293.687 257.456 294.311 257.948C294.935 258.428 295.247 259.076 295.247 259.892C295.247 260.648 294.965 261.296 294.401 261.836C293.837 262.364 293.009 262.766 291.917 263.042V262.88C293.105 263.096 294.011 263.48 294.635 264.032C295.259 264.584 295.571 265.28 295.571 266.12C295.571 266.732 295.397 267.272 295.049 267.74C294.713 268.196 294.239 268.556 293.627 268.82C293.015 269.084 292.301 269.216 291.485 269.216C290.765 269.216 290.123 269.108 289.559 268.892C288.995 268.664 288.551 268.358 288.227 267.974C287.903 267.59 287.741 267.152 287.741 266.66C287.741 266.168 287.963 265.922 288.407 265.922C288.515 265.922 288.623 265.934 288.731 265.958C288.839 265.982 288.917 266.024 288.965 266.084C288.965 266.84 289.175 267.422 289.595 267.83C290.027 268.226 290.645 268.424 291.449 268.424C292.229 268.424 292.841 268.22 293.285 267.812C293.729 267.404 293.951 266.852 293.951 266.156C293.951 265.46 293.729 264.902 293.285 264.482C292.841 264.05 292.085 263.684 291.017 263.384C290.897 263.36 290.807 263.294 290.747 263.186C290.699 263.078 290.675 262.916 290.675 262.7C291.707 262.436 292.469 262.088 292.961 261.656C293.465 261.212 293.717 260.678 293.717 260.054C293.717 259.442 293.513 258.95 293.105 258.578C292.709 258.194 292.187 258.002 291.539 258.002C291.095 258.002 290.651 258.104 290.207 258.308C289.763 258.5 289.319 258.788 288.875 259.172L289.379 258.218ZM301.22 269.216C300.572 269.216 299.972 269.102 299.42 268.874C298.868 268.646 298.424 268.34 298.088 267.956C297.764 267.572 297.602 267.152 297.602 266.696C297.602 266.432 297.662 266.24 297.782 266.12C297.902 265.988 298.076 265.922 298.304 265.922C298.4 265.922 298.496 265.934 298.592 265.958C298.7 265.982 298.778 266.018 298.826 266.066C298.826 266.798 299.036 267.374 299.456 267.794C299.876 268.214 300.458 268.424 301.202 268.424C302.006 268.424 302.648 268.178 303.128 267.686C303.608 267.182 303.848 266.51 303.848 265.67C303.848 265.094 303.734 264.584 303.506 264.14C303.278 263.696 302.966 263.354 302.57 263.114C302.174 262.862 301.712 262.736 301.184 262.736C300.74 262.736 300.278 262.826 299.798 263.006C299.318 263.174 298.934 263.39 298.646 263.654C298.502 263.594 298.406 263.522 298.358 263.438C298.31 263.342 298.286 263.18 298.286 262.952L298.754 257.462H304.838L304.496 260.198C304.292 260.174 304.136 260.15 304.028 260.126C303.92 260.09 303.848 260.048 303.812 260C303.776 259.952 303.752 259.892 303.74 259.82L303.578 257.714L304.208 258.182L298.934 258.488L299.492 257.912V262.826L298.808 262.808C299.264 262.532 299.72 262.334 300.176 262.214C300.644 262.082 301.13 262.016 301.634 262.016C302.402 262.016 303.074 262.154 303.65 262.43C304.226 262.706 304.67 263.096 304.982 263.6C305.306 264.092 305.468 264.68 305.468 265.364C305.468 266.096 305.276 266.756 304.892 267.344C304.52 267.92 304.016 268.376 303.38 268.712C302.744 269.048 302.024 269.216 301.22 269.216ZM315.15 259.982C315.15 260.486 315.024 260.942 314.772 261.35C314.532 261.758 314.226 262.112 313.854 262.412C313.482 262.7 313.104 262.946 312.72 263.15L311.946 262.952C312.198 262.784 312.456 262.586 312.72 262.358C312.984 262.118 313.206 261.824 313.386 261.476C313.566 261.128 313.656 260.69 313.656 260.162C313.656 259.43 313.458 258.896 313.062 258.56C312.678 258.224 312.18 258.056 311.568 258.056C310.92 258.056 310.422 258.236 310.074 258.596C309.726 258.944 309.552 259.424 309.552 260.036C309.552 260.492 309.66 260.87 309.876 261.17C310.104 261.47 310.398 261.722 310.758 261.926C311.13 262.13 311.532 262.316 311.964 262.484C312.408 262.652 312.846 262.826 313.278 263.006C313.722 263.174 314.124 263.378 314.484 263.618C314.856 263.858 315.15 264.164 315.366 264.536C315.594 264.896 315.708 265.352 315.708 265.904C315.708 266.528 315.546 267.092 315.222 267.596C314.898 268.088 314.424 268.484 313.8 268.784C313.176 269.072 312.414 269.216 311.514 269.216C310.698 269.216 309.984 269.084 309.372 268.82C308.772 268.556 308.31 268.202 307.986 267.758C307.662 267.302 307.5 266.798 307.5 266.246C307.5 265.682 307.644 265.178 307.932 264.734C308.232 264.278 308.604 263.894 309.048 263.582C309.504 263.258 309.972 263.024 310.452 262.88L311.262 263.042C310.938 263.162 310.608 263.348 310.272 263.6C309.948 263.852 309.678 264.176 309.462 264.572C309.246 264.956 309.138 265.418 309.138 265.958C309.138 266.786 309.378 267.398 309.858 267.794C310.35 268.178 310.962 268.37 311.694 268.37C312.45 268.37 313.032 268.184 313.44 267.812C313.86 267.44 314.07 266.93 314.07 266.282C314.07 265.802 313.962 265.412 313.746 265.112C313.53 264.8 313.242 264.542 312.882 264.338C312.534 264.134 312.144 263.954 311.712 263.798C311.292 263.63 310.866 263.462 310.434 263.294C310.014 263.126 309.624 262.922 309.264 262.682C308.916 262.442 308.634 262.136 308.418 261.764C308.202 261.392 308.094 260.93 308.094 260.378C308.094 259.742 308.244 259.19 308.544 258.722C308.844 258.242 309.264 257.87 309.804 257.606C310.344 257.342 310.974 257.21 311.694 257.21C312.378 257.21 312.978 257.33 313.494 257.57C314.01 257.798 314.412 258.122 314.7 258.542C315 258.95 315.15 259.43 315.15 259.982ZM317.893 264.878C317.857 264.818 317.827 264.752 317.803 264.68C317.779 264.596 317.767 264.506 317.767 264.41C317.767 264.014 318.031 263.816 318.559 263.816C318.991 263.816 319.381 263.822 319.729 263.834C320.077 263.846 320.455 263.852 320.863 263.852C321.079 263.852 321.283 263.846 321.475 263.834C321.667 263.81 321.859 263.774 322.051 263.726C322.087 263.798 322.111 263.87 322.123 263.942C322.147 264.014 322.159 264.098 322.159 264.194C322.159 264.59 321.901 264.788 321.385 264.788C320.941 264.788 320.545 264.782 320.197 264.77C319.861 264.758 319.489 264.752 319.081 264.752C318.853 264.752 318.643 264.764 318.451 264.788C318.259 264.8 318.073 264.83 317.893 264.878ZM327.133 269C327.133 268.808 327.157 268.658 327.205 268.55C327.265 268.442 327.337 268.376 327.421 268.352L328.933 268.028L328.681 268.316V258.254L329.311 258.092L324.019 265.616L323.641 265.166H331.291V265.94H323.803C323.443 265.868 323.263 265.628 323.263 265.22L328.951 257.21C329.755 257.21 330.157 257.522 330.157 258.146V268.298L329.833 267.992L331.399 268.334C331.399 268.514 331.375 268.652 331.327 268.748C331.291 268.844 331.207 268.928 331.075 269H327.133ZM340.885 259.982C340.885 260.486 340.759 260.942 340.507 261.35C340.267 261.758 339.961 262.112 339.589 262.412C339.217 262.7 338.839 262.946 338.455 263.15L337.681 262.952C337.933 262.784 338.191 262.586 338.455 262.358C338.719 262.118 338.941 261.824 339.121 261.476C339.301 261.128 339.391 260.69 339.391 260.162C339.391 259.43 339.193 258.896 338.797 258.56C338.413 258.224 337.915 258.056 337.303 258.056C336.655 258.056 336.157 258.236 335.809 258.596C335.461 258.944 335.287 259.424 335.287 260.036C335.287 260.492 335.395 260.87 335.611 261.17C335.839 261.47 336.133 261.722 336.493 261.926C336.865 262.13 337.267 262.316 337.699 262.484C338.143 262.652 338.581 262.826 339.013 263.006C339.457 263.174 339.859 263.378 340.219 263.618C340.591 263.858 340.885 264.164 341.101 264.536C341.329 264.896 341.443 265.352 341.443 265.904C341.443 266.528 341.281 267.092 340.957 267.596C340.633 268.088 340.159 268.484 339.535 268.784C338.911 269.072 338.149 269.216 337.249 269.216C336.433 269.216 335.719 269.084 335.107 268.82C334.507 268.556 334.045 268.202 333.721 267.758C333.397 267.302 333.235 266.798 333.235 266.246C333.235 265.682 333.379 265.178 333.667 264.734C333.967 264.278 334.339 263.894 334.783 263.582C335.239 263.258 335.707 263.024 336.187 262.88L336.997 263.042C336.673 263.162 336.343 263.348 336.007 263.6C335.683 263.852 335.413 264.176 335.197 264.572C334.981 264.956 334.873 265.418 334.873 265.958C334.873 266.786 335.113 267.398 335.593 267.794C336.085 268.178 336.697 268.37 337.429 268.37C338.185 268.37 338.767 268.184 339.175 267.812C339.595 267.44 339.805 266.93 339.805 266.282C339.805 265.802 339.697 265.412 339.481 265.112C339.265 264.8 338.977 264.542 338.617 264.338C338.269 264.134 337.879 263.954 337.447 263.798C337.027 263.63 336.601 263.462 336.169 263.294C335.749 263.126 335.359 262.922 334.999 262.682C334.651 262.442 334.369 262.136 334.153 261.764C333.937 261.392 333.829 260.93 333.829 260.378C333.829 259.742 333.979 259.19 334.279 258.722C334.579 258.242 334.999 257.87 335.539 257.606C336.079 257.342 336.709 257.21 337.429 257.21C338.113 257.21 338.713 257.33 339.229 257.57C339.745 257.798 340.147 258.122 340.435 258.542C340.735 258.95 340.885 259.43 340.885 259.982ZM347.029 269.216C346.381 269.216 345.781 269.102 345.229 268.874C344.677 268.646 344.233 268.34 343.897 267.956C343.573 267.572 343.411 267.152 343.411 266.696C343.411 266.432 343.471 266.24 343.591 266.12C343.711 265.988 343.885 265.922 344.113 265.922C344.209 265.922 344.305 265.934 344.401 265.958C344.509 265.982 344.587 266.018 344.635 266.066C344.635 266.798 344.845 267.374 345.265 267.794C345.685 268.214 346.267 268.424 347.011 268.424C347.815 268.424 348.457 268.178 348.937 267.686C349.417 267.182 349.657 266.51 349.657 265.67C349.657 265.094 349.543 264.584 349.315 264.14C349.087 263.696 348.775 263.354 348.379 263.114C347.983 262.862 347.521 262.736 346.993 262.736C346.549 262.736 346.087 262.826 345.607 263.006C345.127 263.174 344.743 263.39 344.455 263.654C344.311 263.594 344.215 263.522 344.167 263.438C344.119 263.342 344.095 263.18 344.095 262.952L344.563 257.462H350.647L350.305 260.198C350.101 260.174 349.945 260.15 349.837 260.126C349.729 260.09 349.657 260.048 349.621 260C349.585 259.952 349.561 259.892 349.549 259.82L349.387 257.714L350.017 258.182L344.743 258.488L345.301 257.912V262.826L344.617 262.808C345.073 262.532 345.529 262.334 345.985 262.214C346.453 262.082 346.939 262.016 347.443 262.016C348.211 262.016 348.883 262.154 349.459 262.43C350.035 262.706 350.479 263.096 350.791 263.6C351.115 264.092 351.277 264.68 351.277 265.364C351.277 266.096 351.085 266.756 350.701 267.344C350.329 267.92 349.825 268.376 349.189 268.712C348.553 269.048 347.833 269.216 347.029 269.216ZM353.723 269C353.723 268.808 353.747 268.658 353.795 268.55C353.843 268.442 353.915 268.376 354.011 268.352L355.703 267.974L355.433 268.316V258.02L355.775 258.614L353.201 259.118C353.117 258.998 353.075 258.854 353.075 258.686C353.075 258.614 353.075 258.548 353.075 258.488C353.087 258.428 353.111 258.368 353.147 258.308L356.261 257.21H356.909V268.298L356.585 267.938L358.565 268.334C358.565 268.49 358.541 268.616 358.493 268.712C358.457 268.808 358.373 268.904 358.241 269H353.723ZM360.649 269C360.649 268.808 360.673 268.658 360.721 268.55C360.769 268.442 360.841 268.376 360.937 268.352L362.629 267.974L362.359 268.316V258.02L362.701 258.614L360.127 259.118C360.043 258.998 360.001 258.854 360.001 258.686C360.001 258.614 360.001 258.548 360.001 258.488C360.013 258.428 360.037 258.368 360.073 258.308L363.187 257.21H363.835V268.298L363.511 267.938L365.491 268.334C365.491 268.49 365.467 268.616 365.419 268.712C365.383 268.808 365.299 268.904 365.167 269H360.649ZM370.076 269.216C369.932 269.216 369.776 269.18 369.608 269.108C369.44 269.036 369.296 268.886 369.176 268.658C369.056 268.43 368.996 268.082 368.996 267.614C368.996 267.038 369.074 266.402 369.23 265.706C369.398 265.01 369.668 264.26 370.04 263.456C370.412 262.64 370.904 261.776 371.516 260.864C372.14 259.94 372.908 258.956 373.82 257.912L373.928 258.452L367.646 258.218L368.096 257.732L367.988 259.91C367.976 260.054 367.898 260.156 367.754 260.216C367.622 260.276 367.442 260.312 367.214 260.324L366.854 257.462H374.27C374.39 257.546 374.45 257.654 374.45 257.786C374.45 257.978 374.324 258.266 374.072 258.65C373.82 259.022 373.508 259.484 373.136 260.036C372.776 260.588 372.41 261.212 372.038 261.908C371.666 262.592 371.354 263.342 371.102 264.158C370.85 264.974 370.724 265.832 370.724 266.732C370.724 267.14 370.76 267.482 370.832 267.758C370.904 268.034 371.018 268.31 371.174 268.586C371.09 268.802 370.952 268.958 370.76 269.054C370.58 269.162 370.352 269.216 370.076 269.216ZM375.924 269C375.924 268.808 375.948 268.658 375.996 268.55C376.044 268.442 376.116 268.376 376.212 268.352L377.904 267.974L377.634 268.316V258.02L377.976 258.614L375.402 259.118C375.318 258.998 375.276 258.854 375.276 258.686C375.276 258.614 375.276 258.548 375.276 258.488C375.288 258.428 375.312 258.368 375.348 258.308L378.462 257.21H379.11V268.298L378.786 267.938L380.766 268.334C380.766 268.49 380.742 268.616 380.694 268.712C380.658 268.808 380.574 268.904 380.442 269H375.924Z" fill="black"/>
<path d="M220.9 207C220.9 206.616 220.996 206.4 221.188 206.352L222.214 206.01L222.016 206.262V199.638L222.232 199.908L221.17 199.71C220.99 199.674 220.9 199.464 220.9 199.08C221.356 199.008 221.698 198.96 221.926 198.936C222.166 198.9 222.364 198.882 222.52 198.882C222.832 198.882 223.054 198.96 223.186 199.116C223.318 199.272 223.384 199.524 223.384 199.872V200.538L223.312 200.484H223.474C223.93 199.932 224.458 199.494 225.058 199.17C225.67 198.846 226.252 198.684 226.804 198.684C227.476 198.684 227.974 198.924 228.298 199.404C228.622 199.884 228.784 200.61 228.784 201.582V206.298L228.568 206.046L229.792 206.334C229.792 206.514 229.768 206.652 229.72 206.748C229.684 206.832 229.606 206.916 229.486 207H226.336C226.336 206.616 226.432 206.4 226.624 206.352L227.524 206.082L227.326 206.334V201.618C227.326 200.346 226.876 199.71 225.976 199.71C225.64 199.71 225.304 199.782 224.968 199.926C224.632 200.058 224.32 200.244 224.032 200.484C223.756 200.712 223.522 200.964 223.33 201.24L223.474 200.898V206.298L223.258 206.046L224.482 206.334C224.482 206.514 224.458 206.652 224.41 206.748C224.374 206.832 224.29 206.916 224.158 207H220.9ZM231.646 207C231.646 206.616 231.742 206.4 231.934 206.352L232.834 206.082L232.636 206.334V201.618C232.636 200.346 232.186 199.71 231.286 199.71C230.794 199.71 230.308 199.86 229.828 200.16C229.36 200.448 228.976 200.802 228.676 201.222L228.478 200.484H228.748C229.216 199.932 229.75 199.494 230.35 199.17C230.962 198.846 231.544 198.684 232.096 198.684C232.78 198.684 233.284 198.924 233.608 199.404C233.932 199.884 234.094 200.61 234.094 201.582V206.226L233.878 205.992L235.21 206.334C235.21 206.514 235.186 206.652 235.138 206.748C235.102 206.832 235.024 206.916 234.904 207H231.646ZM239.438 207.216C238.562 207.216 237.842 207.03 237.278 206.658C236.726 206.274 236.45 205.818 236.45 205.29C236.45 205.014 236.522 204.81 236.666 204.678C236.81 204.546 236.99 204.48 237.206 204.48C237.482 204.48 237.698 204.57 237.854 204.75C237.854 205.386 237.998 205.866 238.286 206.19C238.574 206.514 239.006 206.676 239.582 206.676C240.11 206.676 240.524 206.544 240.824 206.28C241.124 206.016 241.274 205.644 241.274 205.164C241.274 204.792 241.178 204.492 240.986 204.264C240.794 204.036 240.542 203.85 240.23 203.706C239.918 203.562 239.582 203.424 239.222 203.292C238.838 203.148 238.46 202.98 238.088 202.788C237.716 202.596 237.41 202.35 237.17 202.05C236.93 201.738 236.81 201.354 236.81 200.898C236.81 200.238 237.074 199.704 237.602 199.296C238.13 198.888 238.838 198.684 239.726 198.684C240.23 198.684 240.686 198.75 241.094 198.882C241.502 199.014 241.826 199.2 242.066 199.44C242.306 199.668 242.426 199.932 242.426 200.232C242.426 200.46 242.354 200.64 242.21 200.772C242.066 200.892 241.886 200.952 241.67 200.952C241.478 200.952 241.298 200.886 241.13 200.754C241.13 200.262 240.992 199.884 240.716 199.62C240.44 199.356 240.062 199.224 239.582 199.224C239.138 199.224 238.784 199.332 238.52 199.548C238.256 199.764 238.124 200.058 238.124 200.43C238.124 200.742 238.208 201 238.376 201.204C238.556 201.396 238.79 201.558 239.078 201.69C239.366 201.822 239.672 201.954 239.996 202.086C240.416 202.242 240.83 202.422 241.238 202.626C241.658 202.83 242.006 203.094 242.282 203.418C242.558 203.73 242.696 204.15 242.696 204.678C242.696 205.194 242.558 205.644 242.282 206.028C242.006 206.4 241.622 206.694 241.13 206.91C240.638 207.114 240.074 207.216 239.438 207.216ZM246.027 207.216C245.463 207.216 244.995 207.054 244.623 206.73C244.251 206.394 244.065 205.95 244.065 205.398C244.065 204.714 244.281 204.156 244.713 203.724C245.157 203.292 245.817 202.974 246.693 202.77L249.051 202.23L248.817 202.428V201.078C248.817 200.442 248.709 199.98 248.493 199.692C248.277 199.392 247.941 199.242 247.485 199.242C246.933 199.242 246.507 199.41 246.207 199.746C245.907 200.07 245.757 200.544 245.757 201.168C245.697 201.228 245.613 201.276 245.505 201.312C245.397 201.348 245.289 201.366 245.181 201.366C244.977 201.366 244.815 201.306 244.695 201.186C244.575 201.066 244.515 200.904 244.515 200.7C244.515 200.304 244.653 199.956 244.929 199.656C245.205 199.356 245.583 199.122 246.063 198.954C246.555 198.774 247.101 198.684 247.701 198.684C248.589 198.684 249.237 198.906 249.645 199.35C250.065 199.794 250.275 200.502 250.275 201.474V205.704C250.275 205.908 250.317 206.064 250.401 206.172C250.485 206.28 250.605 206.334 250.761 206.334C250.893 206.334 251.037 206.298 251.193 206.226C251.361 206.154 251.499 206.076 251.607 205.992L251.733 206.478C251.541 206.706 251.295 206.886 250.995 207.018C250.695 207.15 250.407 207.216 250.131 207.216C249.747 207.216 249.447 207.096 249.231 206.856C249.015 206.604 248.907 206.25 248.907 205.794H248.835C248.499 206.25 248.085 206.604 247.593 206.856C247.101 207.096 246.579 207.216 246.027 207.216ZM246.711 206.37C247.143 206.37 247.557 206.262 247.953 206.046C248.349 205.83 248.679 205.53 248.943 205.146L248.835 205.452V202.752L249.069 202.788L247.017 203.274C246.501 203.394 246.105 203.604 245.829 203.904C245.565 204.192 245.433 204.558 245.433 205.002C245.433 205.422 245.547 205.758 245.775 206.01C246.003 206.25 246.315 206.37 246.711 206.37ZM252.963 207C252.963 206.616 253.059 206.4 253.25 206.352L254.277 206.01L254.079 206.262V199.638L254.295 199.908L253.233 199.71C253.053 199.674 252.963 199.464 252.963 199.08C253.419 199.008 253.761 198.96 253.989 198.936C254.229 198.9 254.427 198.882 254.583 198.882C254.895 198.882 255.117 198.96 255.249 199.116C255.381 199.272 255.447 199.524 255.447 199.872V200.538L255.375 200.484H255.537C255.993 199.932 256.521 199.494 257.121 199.17C257.733 198.846 258.315 198.684 258.867 198.684C259.539 198.684 260.037 198.924 260.361 199.404C260.685 199.884 260.847 200.61 260.847 201.582V206.298L260.631 206.046L261.855 206.334C261.855 206.514 261.831 206.652 261.783 206.748C261.747 206.832 261.669 206.916 261.549 207H258.399C258.399 206.616 258.495 206.4 258.687 206.352L259.587 206.082L259.389 206.334V201.618C259.389 200.346 258.939 199.71 258.039 199.71C257.703 199.71 257.367 199.782 257.031 199.926C256.695 200.058 256.383 200.244 256.095 200.484C255.819 200.712 255.585 200.964 255.393 201.24L255.537 200.898V206.298L255.321 206.046L256.545 206.334C256.545 206.514 256.521 206.652 256.473 206.748C256.437 206.832 256.353 206.916 256.221 207H252.963ZM263.709 207C263.709 206.616 263.805 206.4 263.997 206.352L264.897 206.082L264.699 206.334V201.618C264.699 200.346 264.249 199.71 263.349 199.71C262.857 199.71 262.371 199.86 261.891 200.16C261.423 200.448 261.039 200.802 260.739 201.222L260.541 200.484H260.811C261.279 199.932 261.813 199.494 262.413 199.17C263.025 198.846 263.607 198.684 264.159 198.684C264.843 198.684 265.347 198.924 265.671 199.404C265.995 199.884 266.157 200.61 266.157 201.582V206.226L265.941 205.992L267.273 206.334C267.273 206.514 267.249 206.652 267.201 206.748C267.165 206.832 267.087 206.916 266.967 207H263.709ZM272.203 207.216C271.747 207.216 271.267 207.156 270.763 207.036C270.271 206.928 269.815 206.76 269.395 206.532V194.544L269.593 194.814L268.549 194.616C268.357 194.58 268.261 194.37 268.261 193.986C268.741 193.914 269.095 193.866 269.323 193.842C269.551 193.806 269.743 193.788 269.899 193.788C270.199 193.788 270.415 193.854 270.547 193.986C270.691 194.118 270.763 194.328 270.763 194.616V200.574L270.691 200.466H270.853C271.237 199.902 271.699 199.464 272.239 199.152C272.791 198.84 273.355 198.684 273.931 198.684C274.531 198.684 275.047 198.84 275.479 199.152C275.923 199.464 276.265 199.908 276.505 200.484C276.757 201.048 276.883 201.72 276.883 202.5C276.883 203.448 276.697 204.276 276.325 204.984C275.965 205.692 275.437 206.244 274.741 206.64C274.045 207.024 273.199 207.216 272.203 207.216ZM272.581 206.514C273.529 206.514 274.219 206.22 274.651 205.632C275.083 205.044 275.299 204.114 275.299 202.842C275.299 201.738 275.137 200.928 274.813 200.412C274.489 199.896 273.979 199.638 273.283 199.638C272.911 199.638 272.569 199.71 272.257 199.854C271.957 199.986 271.675 200.184 271.411 200.448C271.147 200.7 270.889 201.006 270.637 201.366L270.817 200.952V206.208L270.637 205.884C270.985 206.112 271.309 206.274 271.609 206.37C271.921 206.466 272.245 206.514 272.581 206.514ZM278.433 207C278.433 206.64 278.529 206.424 278.721 206.352L279.747 206.01L279.549 206.316V199.638L279.765 199.908L278.703 199.71C278.619 199.686 278.553 199.626 278.505 199.53C278.457 199.422 278.433 199.272 278.433 199.08C278.901 199.008 279.249 198.96 279.477 198.936C279.705 198.9 279.897 198.882 280.053 198.882C280.341 198.882 280.557 198.966 280.701 199.134C280.845 199.29 280.917 199.554 280.917 199.926V200.682L280.809 200.574H280.989C281.313 200.01 281.709 199.554 282.177 199.206C282.657 198.858 283.113 198.684 283.545 198.684C284.001 198.684 284.325 198.786 284.517 198.99C284.709 199.182 284.805 199.428 284.805 199.728C284.805 199.956 284.733 200.154 284.589 200.322C284.457 200.49 284.283 200.574 284.067 200.574C283.899 200.262 283.725 200.052 283.545 199.944C283.365 199.836 283.167 199.782 282.951 199.782C282.615 199.782 282.261 199.932 281.889 200.232C281.517 200.532 281.181 200.892 280.881 201.312L281.007 200.97V206.298L280.755 205.974L282.321 206.316C282.321 206.496 282.297 206.634 282.249 206.73C282.213 206.826 282.129 206.916 281.997 207H278.433ZM288.954 207.216C288.222 207.216 287.58 207.054 287.028 206.73C286.488 206.394 286.068 205.932 285.768 205.344C285.468 204.756 285.318 204.078 285.318 203.31C285.318 202.434 285.498 201.648 285.858 200.952C286.23 200.256 286.722 199.704 287.333 199.296C287.946 198.888 288.612 198.684 289.332 198.684C289.956 198.684 290.496 198.828 290.952 199.116C291.42 199.392 291.786 199.782 292.05 200.286C292.314 200.79 292.446 201.372 292.446 202.032C292.446 202.26 292.404 202.416 292.32 202.5C292.236 202.572 292.14 202.608 292.032 202.608H286.362V202.05L291.258 201.924L291.06 202.122C291.084 201.546 291.012 201.048 290.844 200.628C290.688 200.208 290.46 199.884 290.16 199.656C289.872 199.416 289.53 199.296 289.134 199.296C288.474 199.296 287.934 199.602 287.514 200.214C287.094 200.826 286.884 201.69 286.884 202.806C286.884 203.526 286.986 204.156 287.19 204.696C287.406 205.224 287.718 205.638 288.126 205.938C288.534 206.238 289.026 206.388 289.602 206.388C290.082 206.388 290.544 206.268 290.988 206.028C291.432 205.776 291.828 205.428 292.176 204.984L292.41 205.434C292.158 205.794 291.846 206.112 291.474 206.388C291.102 206.652 290.7 206.856 290.268 207C289.848 207.144 289.41 207.216 288.954 207.216ZM294.007 207C294.007 206.616 294.103 206.4 294.295 206.352L295.321 206.01L295.123 206.316V199.638L295.339 199.908L294.277 199.71C294.097 199.674 294.007 199.464 294.007 199.08C294.463 199.008 294.805 198.96 295.033 198.936C295.273 198.9 295.471 198.882 295.627 198.882C295.939 198.882 296.161 198.96 296.293 199.116C296.425 199.272 296.491 199.524 296.491 199.872V200.538L296.383 200.484H296.581C297.061 199.932 297.607 199.494 298.219 199.17C298.843 198.846 299.449 198.684 300.037 198.684C301.429 198.684 302.125 199.65 302.125 201.582V206.226L301.909 205.992L303.241 206.334C303.241 206.514 303.223 206.652 303.187 206.748C303.151 206.832 303.073 206.916 302.953 207H299.695C299.695 206.616 299.791 206.4 299.983 206.352L300.865 206.082L300.685 206.388V201.618C300.685 200.346 300.205 199.71 299.245 199.71C298.885 199.71 298.525 199.782 298.165 199.926C297.817 200.058 297.493 200.244 297.193 200.484C296.893 200.712 296.641 200.964 296.437 201.24L296.581 200.898V206.298L296.365 206.046L297.589 206.334C297.589 206.514 297.565 206.652 297.517 206.748C297.481 206.832 297.397 206.916 297.265 207H294.007ZM304.748 207C304.748 206.616 304.844 206.4 305.036 206.352L306.116 206.01L305.918 206.262V199.566L306.134 199.836L305.018 199.638C304.838 199.614 304.748 199.404 304.748 199.008C305.156 198.948 305.492 198.906 305.756 198.882C306.032 198.846 306.302 198.828 306.566 198.828C307.118 198.828 307.394 199.17 307.394 199.854V206.226L307.178 205.992L308.618 206.334C308.618 206.514 308.594 206.652 308.546 206.748C308.51 206.832 308.426 206.916 308.294 207H304.748ZM306.584 197.046C306.296 197.046 306.074 196.968 305.918 196.812C305.762 196.644 305.684 196.428 305.684 196.164C305.684 195.9 305.774 195.684 305.954 195.516C306.146 195.348 306.356 195.264 306.584 195.264C306.872 195.264 307.094 195.348 307.25 195.516C307.418 195.672 307.502 195.888 307.502 196.164C307.502 196.416 307.406 196.626 307.214 196.794C307.034 196.962 306.824 197.046 306.584 197.046ZM310.088 207C310.088 206.796 310.112 206.646 310.16 206.55C310.208 206.454 310.28 206.388 310.376 206.352L311.456 206.01L311.258 206.262V194.544L311.474 194.814L310.358 194.616C310.178 194.58 310.088 194.37 310.088 193.986C310.484 193.926 310.82 193.878 311.096 193.842C311.372 193.806 311.636 193.788 311.888 193.788C312.44 193.788 312.716 194.136 312.716 194.832V206.226L312.5 205.992L313.958 206.334C313.958 206.514 313.934 206.652 313.886 206.748C313.85 206.832 313.766 206.916 313.634 207H310.088ZM321.895 209.988C320.911 209.988 320.011 209.838 319.195 209.538C318.391 209.238 317.695 208.806 317.107 208.242C316.519 207.678 316.063 207.006 315.739 206.226C315.427 205.434 315.271 204.552 315.271 203.58C315.271 202.488 315.457 201.486 315.829 200.574C316.213 199.65 316.747 198.852 317.431 198.18C318.115 197.508 318.919 196.992 319.843 196.632C320.767 196.26 321.769 196.074 322.849 196.074C323.821 196.074 324.709 196.218 325.513 196.506C326.329 196.794 327.031 197.202 327.619 197.73C328.219 198.258 328.681 198.882 329.005 199.602C329.341 200.322 329.509 201.12 329.509 201.996C329.509 202.728 329.395 203.406 329.167 204.03C328.951 204.654 328.645 205.2 328.249 205.668C327.853 206.136 327.385 206.502 326.845 206.766C326.317 207.03 325.747 207.162 325.135 207.162C324.727 207.162 324.409 207.072 324.181 206.892C323.953 206.7 323.839 206.382 323.839 205.938C323.839 205.734 323.863 205.494 323.911 205.218C323.959 204.93 324.037 204.6 324.145 204.228L324.109 204.21C323.725 205.098 323.257 205.812 322.705 206.352C322.153 206.892 321.523 207.162 320.815 207.162C320.131 207.162 319.591 206.904 319.195 206.388C318.799 205.872 318.601 205.116 318.601 204.12C318.601 203.1 318.781 202.188 319.141 201.384C319.513 200.568 320.023 199.92 320.671 199.44C321.319 198.96 322.051 198.72 322.867 198.72C323.239 198.72 323.617 198.768 324.001 198.864C324.385 198.948 324.745 199.068 325.081 199.224C325.429 199.38 325.729 199.566 325.981 199.782L325.135 204.93C325.111 205.074 325.081 205.23 325.045 205.398C325.021 205.554 325.009 205.698 325.009 205.83C325.009 206.046 325.063 206.208 325.171 206.316C325.279 206.424 325.453 206.478 325.693 206.478C326.065 206.478 326.407 206.364 326.719 206.136C327.043 205.908 327.319 205.596 327.547 205.2C327.787 204.804 327.973 204.342 328.105 203.814C328.237 203.286 328.303 202.722 328.303 202.122C328.303 200.97 328.063 199.992 327.583 199.188C327.115 198.384 326.455 197.772 325.603 197.352C324.751 196.932 323.749 196.722 322.597 196.722C321.361 196.722 320.281 196.992 319.357 197.532C318.433 198.072 317.713 198.828 317.197 199.8C316.693 200.76 316.441 201.876 316.441 203.148C316.441 204.468 316.687 205.584 317.179 206.496C317.683 207.408 318.373 208.098 319.249 208.566C320.125 209.046 321.115 209.286 322.219 209.286C322.783 209.286 323.323 209.22 323.839 209.088C324.355 208.968 324.829 208.8 325.261 208.584C325.693 208.38 326.053 208.152 326.341 207.9L326.521 208.278C326.257 208.506 325.921 208.752 325.513 209.016C325.105 209.28 324.607 209.508 324.019 209.7C323.431 209.892 322.723 209.988 321.895 209.988ZM321.319 206.226C321.595 206.226 321.871 206.142 322.147 205.974C322.423 205.794 322.687 205.554 322.939 205.254C323.203 204.954 323.449 204.606 323.677 204.21C323.905 203.802 324.109 203.376 324.289 202.932L324.001 204.084L324.739 199.854L324.919 200.358C324.667 200.046 324.361 199.812 324.001 199.656C323.641 199.5 323.269 199.422 322.885 199.422C322.309 199.422 321.793 199.62 321.337 200.016C320.893 200.412 320.539 200.952 320.275 201.636C320.023 202.32 319.897 203.088 319.897 203.94C319.897 204.708 320.023 205.284 320.275 205.668C320.527 206.04 320.875 206.226 321.319 206.226ZM334.338 211.86C333.27 211.86 332.412 211.626 331.764 211.158C331.116 210.702 330.792 210.096 330.792 209.34C330.792 208.824 331.038 208.566 331.53 208.566C331.662 208.566 331.788 208.578 331.908 208.602C332.028 208.638 332.142 208.692 332.25 208.764C332.25 209.58 332.448 210.198 332.844 210.618C333.252 211.05 333.84 211.266 334.608 211.266C335.388 211.266 336.012 211.08 336.48 210.708C336.96 210.336 337.2 209.85 337.2 209.25C337.2 208.866 337.122 208.56 336.966 208.332C336.81 208.104 336.534 207.93 336.138 207.81C335.742 207.702 335.184 207.618 334.464 207.558C333.516 207.474 332.868 207.342 332.52 207.162C332.172 206.982 331.998 206.688 331.998 206.28C331.998 205.932 332.112 205.59 332.34 205.254C332.58 204.918 332.892 204.654 333.276 204.462L333.546 204.588C333.39 204.72 333.27 204.876 333.186 205.056C333.102 205.236 333.06 205.422 333.06 205.614C333.06 205.806 333.102 205.956 333.186 206.064C333.282 206.172 333.468 206.256 333.744 206.316C334.032 206.364 334.458 206.412 335.022 206.46C336.222 206.556 337.092 206.79 337.632 207.162C338.184 207.534 338.46 208.092 338.46 208.836C338.46 209.436 338.286 209.964 337.938 210.42C337.602 210.876 337.122 211.23 336.498 211.482C335.886 211.734 335.166 211.86 334.338 211.86ZM334.086 204.804C333.174 204.804 332.436 204.54 331.872 204.012C331.32 203.484 331.044 202.776 331.044 201.888C331.044 201.252 331.188 200.694 331.476 200.214C331.776 199.734 332.184 199.362 332.7 199.098C333.228 198.822 333.834 198.684 334.518 198.684C335.154 198.684 335.706 198.81 336.174 199.062C336.654 199.314 337.026 199.668 337.29 200.124C337.566 200.568 337.704 201.084 337.704 201.672C337.704 202.284 337.548 202.824 337.236 203.292C336.936 203.76 336.516 204.132 335.976 204.408C335.436 204.672 334.806 204.804 334.086 204.804ZM334.41 204.192C334.974 204.192 335.43 203.982 335.778 203.562C336.126 203.142 336.3 202.59 336.3 201.906C336.3 201.066 336.126 200.424 335.778 199.98C335.442 199.524 334.938 199.296 334.266 199.296C333.726 199.296 333.288 199.506 332.952 199.926C332.628 200.346 332.466 200.904 332.466 201.6C332.466 202.476 332.622 203.13 332.934 203.562C333.258 203.982 333.75 204.192 334.41 204.192ZM337.884 199.71C337.716 199.71 337.518 199.704 337.29 199.692C337.062 199.68 336.846 199.662 336.642 199.638C336.438 199.602 336.276 199.56 336.156 199.512L336.03 199.278L338.64 198.612C338.7 198.684 338.742 198.768 338.766 198.864C338.802 198.96 338.82 199.044 338.82 199.116C338.82 199.512 338.508 199.71 337.884 199.71ZM339.781 207C339.781 206.616 339.877 206.4 340.069 206.352L341.095 206.01L340.897 206.262V199.638L341.113 199.908L340.051 199.71C339.871 199.674 339.781 199.464 339.781 199.08C340.237 199.008 340.579 198.96 340.807 198.936C341.047 198.9 341.245 198.882 341.401 198.882C341.713 198.882 341.935 198.96 342.067 199.116C342.199 199.272 342.265 199.524 342.265 199.872V200.538L342.193 200.484H342.355C342.811 199.932 343.339 199.494 343.939 199.17C344.551 198.846 345.133 198.684 345.685 198.684C346.357 198.684 346.855 198.924 347.179 199.404C347.503 199.884 347.665 200.61 347.665 201.582V206.298L347.449 206.046L348.673 206.334C348.673 206.514 348.649 206.652 348.601 206.748C348.565 206.832 348.487 206.916 348.367 207H345.217C345.217 206.616 345.313 206.4 345.505 206.352L346.405 206.082L346.207 206.334V201.618C346.207 200.346 345.757 199.71 344.857 199.71C344.521 199.71 344.185 199.782 343.849 199.926C343.513 200.058 343.201 200.244 342.913 200.484C342.637 200.712 342.403 200.964 342.211 201.24L342.355 200.898V206.298L342.139 206.046L343.363 206.334C343.363 206.514 343.339 206.652 343.291 206.748C343.255 206.832 343.171 206.916 343.039 207H339.781ZM350.527 207C350.527 206.616 350.623 206.4 350.815 206.352L351.715 206.082L351.517 206.334V201.618C351.517 200.346 351.067 199.71 350.167 199.71C349.675 199.71 349.189 199.86 348.709 200.16C348.241 200.448 347.857 200.802 347.557 201.222L347.359 200.484H347.629C348.097 199.932 348.631 199.494 349.231 199.17C349.843 198.846 350.425 198.684 350.977 198.684C351.661 198.684 352.165 198.924 352.489 199.404C352.813 199.884 352.975 200.61 352.975 201.582V206.226L352.759 205.992L354.091 206.334C354.091 206.514 354.067 206.652 354.019 206.748C353.983 206.832 353.905 206.916 353.785 207H350.527ZM357.419 207.216C356.855 207.216 356.387 207.054 356.015 206.73C355.643 206.394 355.457 205.95 355.457 205.398C355.457 204.714 355.673 204.156 356.105 203.724C356.549 203.292 357.209 202.974 358.085 202.77L360.443 202.23L360.209 202.428V201.078C360.209 200.442 360.101 199.98 359.885 199.692C359.669 199.392 359.333 199.242 358.877 199.242C358.325 199.242 357.899 199.41 357.599 199.746C357.299 200.07 357.149 200.544 357.149 201.168C357.089 201.228 357.005 201.276 356.897 201.312C356.789 201.348 356.681 201.366 356.573 201.366C356.369 201.366 356.207 201.306 356.087 201.186C355.967 201.066 355.907 200.904 355.907 200.7C355.907 200.304 356.045 199.956 356.321 199.656C356.597 199.356 356.975 199.122 357.455 198.954C357.947 198.774 358.493 198.684 359.093 198.684C359.981 198.684 360.629 198.906 361.037 199.35C361.457 199.794 361.667 200.502 361.667 201.474V205.704C361.667 205.908 361.709 206.064 361.793 206.172C361.877 206.28 361.997 206.334 362.153 206.334C362.285 206.334 362.429 206.298 362.585 206.226C362.753 206.154 362.891 206.076 362.999 205.992L363.125 206.478C362.933 206.706 362.687 206.886 362.387 207.018C362.087 207.15 361.799 207.216 361.523 207.216C361.139 207.216 360.839 207.096 360.623 206.856C360.407 206.604 360.299 206.25 360.299 205.794H360.227C359.891 206.25 359.477 206.604 358.985 206.856C358.493 207.096 357.971 207.216 357.419 207.216ZM358.103 206.37C358.535 206.37 358.949 206.262 359.345 206.046C359.741 205.83 360.071 205.53 360.335 205.146L360.227 205.452V202.752L360.461 202.788L358.409 203.274C357.893 203.394 357.497 203.604 357.221 203.904C356.957 204.192 356.825 204.558 356.825 205.002C356.825 205.422 356.939 205.758 357.167 206.01C357.395 206.25 357.707 206.37 358.103 206.37ZM364.355 207C364.355 206.616 364.451 206.4 364.643 206.352L365.723 206.01L365.525 206.262V199.566L365.741 199.836L364.625 199.638C364.445 199.614 364.355 199.404 364.355 199.008C364.763 198.948 365.099 198.906 365.363 198.882C365.639 198.846 365.909 198.828 366.173 198.828C366.725 198.828 367.001 199.17 367.001 199.854V206.226L366.785 205.992L368.225 206.334C368.225 206.514 368.201 206.652 368.153 206.748C368.117 206.832 368.033 206.916 367.901 207H364.355ZM366.191 197.046C365.903 197.046 365.681 196.968 365.525 196.812C365.369 196.644 365.291 196.428 365.291 196.164C365.291 195.9 365.381 195.684 365.561 195.516C365.753 195.348 365.963 195.264 366.191 195.264C366.479 195.264 366.701 195.348 366.857 195.516C367.025 195.672 367.109 195.888 367.109 196.164C367.109 196.416 367.013 196.626 366.821 196.794C366.641 196.962 366.431 197.046 366.191 197.046ZM369.695 207C369.695 206.796 369.719 206.646 369.767 206.55C369.815 206.454 369.887 206.388 369.983 206.352L371.063 206.01L370.865 206.262V194.544L371.081 194.814L369.965 194.616C369.785 194.58 369.695 194.37 369.695 193.986C370.091 193.926 370.427 193.878 370.703 193.842C370.979 193.806 371.243 193.788 371.495 193.788C372.047 193.788 372.323 194.136 372.323 194.832V206.226L372.107 205.992L373.565 206.334C373.565 206.514 373.541 206.652 373.493 206.748C373.457 206.832 373.373 206.916 373.241 207H369.695ZM376.12 207.216C375.844 207.216 375.628 207.138 375.472 206.982C375.316 206.814 375.238 206.598 375.238 206.334C375.238 206.082 375.328 205.878 375.508 205.722C375.688 205.554 375.892 205.47 376.12 205.47C376.408 205.47 376.63 205.548 376.786 205.704C376.942 205.86 377.02 206.07 377.02 206.334C377.02 206.586 376.93 206.796 376.75 206.964C376.57 207.132 376.36 207.216 376.12 207.216ZM382.33 207.216C381.586 207.216 380.932 207.054 380.368 206.73C379.816 206.406 379.39 205.95 379.09 205.362C378.79 204.774 378.64 204.078 378.64 203.274C378.64 202.374 378.814 201.582 379.162 200.898C379.522 200.202 380.014 199.662 380.638 199.278C381.262 198.882 381.97 198.684 382.762 198.684C383.302 198.684 383.794 198.774 384.238 198.954C384.682 199.122 385.03 199.356 385.282 199.656C385.546 199.956 385.678 200.286 385.678 200.646C385.678 200.886 385.606 201.078 385.462 201.222C385.33 201.354 385.144 201.42 384.904 201.42C384.796 201.42 384.694 201.408 384.598 201.384C384.502 201.348 384.406 201.306 384.31 201.258C384.31 200.622 384.16 200.136 383.86 199.8C383.572 199.464 383.146 199.296 382.582 199.296C381.814 199.296 381.226 199.602 380.818 200.214C380.41 200.814 380.206 201.678 380.206 202.806C380.206 203.982 380.428 204.876 380.872 205.488C381.328 206.088 382 206.388 382.888 206.388C383.368 206.388 383.83 206.292 384.274 206.1C384.73 205.896 385.144 205.608 385.516 205.236L385.75 205.668C385.498 205.98 385.186 206.256 384.814 206.496C384.454 206.724 384.058 206.898 383.626 207.018C383.206 207.15 382.774 207.216 382.33 207.216ZM390.607 207.216C389.491 207.216 388.609 206.868 387.961 206.172C387.313 205.476 386.989 204.546 386.989 203.382C386.989 202.482 387.175 201.678 387.547 200.97C387.931 200.262 388.453 199.704 389.113 199.296C389.773 198.888 390.529 198.684 391.381 198.684C392.125 198.684 392.767 198.846 393.307 199.17C393.847 199.482 394.267 199.926 394.567 200.502C394.867 201.078 395.017 201.756 395.017 202.536C395.017 203.448 394.831 204.258 394.459 204.966C394.087 205.662 393.565 206.214 392.893 206.622C392.233 207.018 391.471 207.216 390.607 207.216ZM390.949 206.604C391.753 206.604 392.371 206.28 392.803 205.632C393.247 204.984 393.469 204.078 393.469 202.914C393.469 201.75 393.265 200.856 392.857 200.232C392.449 199.608 391.855 199.296 391.075 199.296C390.271 199.296 389.647 199.62 389.203 200.268C388.759 200.904 388.537 201.816 388.537 203.004C388.537 204.168 388.741 205.062 389.149 205.686C389.569 206.298 390.169 206.604 390.949 206.604ZM396.558 207C396.558 206.616 396.654 206.4 396.846 206.352L397.872 206.01L397.674 206.262V199.638L397.89 199.908L396.828 199.71C396.648 199.674 396.558 199.464 396.558 199.08C397.014 199.008 397.356 198.96 397.584 198.936C397.824 198.9 398.022 198.882 398.178 198.882C398.49 198.882 398.712 198.96 398.844 199.116C398.976 199.272 399.042 199.524 399.042 199.872V200.538L398.97 200.484H399.132C399.588 199.932 400.116 199.494 400.716 199.17C401.328 198.846 401.91 198.684 402.462 198.684C403.134 198.684 403.632 198.924 403.956 199.404C404.28 199.884 404.442 200.61 404.442 201.582V206.298L404.226 206.046L405.45 206.334C405.45 206.514 405.426 206.652 405.378 206.748C405.342 206.832 405.264 206.916 405.144 207H401.994C401.994 206.616 402.09 206.4 402.282 206.352L403.182 206.082L402.984 206.334V201.618C402.984 200.346 402.534 199.71 401.634 199.71C401.298 199.71 400.962 199.782 400.626 199.926C400.29 200.058 399.978 200.244 399.69 200.484C399.414 200.712 399.18 200.964 398.988 201.24L399.132 200.898V206.298L398.916 206.046L400.14 206.334C400.14 206.514 400.116 206.652 400.068 206.748C400.032 206.832 399.948 206.916 399.816 207H396.558ZM407.304 207C407.304 206.616 407.4 206.4 407.592 206.352L408.492 206.082L408.294 206.334V201.618C408.294 200.346 407.844 199.71 406.944 199.71C406.452 199.71 405.966 199.86 405.486 200.16C405.018 200.448 404.634 200.802 404.334 201.222L404.136 200.484H404.406C404.874 199.932 405.408 199.494 406.008 199.17C406.62 198.846 407.202 198.684 407.754 198.684C408.438 198.684 408.942 198.924 409.266 199.404C409.59 199.884 409.752 200.61 409.752 201.582V206.226L409.536 205.992L410.868 206.334C410.868 206.514 410.844 206.652 410.796 206.748C410.76 206.832 410.682 206.916 410.562 207H407.304Z" fill="black"/>
<path d="M206.65 191V175.798H215.582L215.164 177.47H208.542V182.486H214.79V184.092H208.542V189.328H216V191H206.65ZM223.813 185.984H217.543V184.488H223.813V185.984ZM227.916 182.112C229.001 181.173 230.204 180.704 231.524 180.704C232.844 180.704 233.746 181.217 234.23 182.244C235.388 181.217 236.606 180.704 237.882 180.704C238.82 180.704 239.561 180.953 240.104 181.452C240.661 181.951 240.94 182.603 240.94 183.41V191H239.07V183.498C239.07 183.117 238.93 182.823 238.652 182.618C238.373 182.413 237.999 182.31 237.53 182.31C236.576 182.31 235.557 182.699 234.472 183.476V191H232.602V183.498C232.602 183.117 232.462 182.823 232.184 182.618C231.905 182.413 231.531 182.31 231.062 182.31C230.079 182.31 229.074 182.684 228.048 183.432V191H226.178V180.968H227.366L227.916 182.112ZM249.51 184.994V184.026C249.51 182.838 248.894 182.244 247.662 182.244C246.694 182.244 245.682 182.559 244.626 183.19L243.988 181.87C245.22 181.093 246.547 180.704 247.97 180.704C248.967 180.704 249.781 180.961 250.412 181.474C251.057 181.973 251.38 182.75 251.38 183.806V191H250.192L249.642 189.68C249.172 190.164 248.615 190.553 247.97 190.846C247.324 191.125 246.738 191.264 246.21 191.264C245.3 191.264 244.574 191.015 244.032 190.516C243.489 190.017 243.218 189.365 243.218 188.558C243.218 186.182 245.315 184.994 249.51 184.994ZM245.858 187.128C245.579 187.377 245.388 187.605 245.286 187.81C245.198 188.001 245.154 188.257 245.154 188.58C245.154 188.888 245.286 189.159 245.55 189.394C245.828 189.614 246.188 189.724 246.628 189.724C247.552 189.724 248.512 189.313 249.51 188.492V186.292C247.662 186.321 246.444 186.6 245.858 187.128ZM256.409 178.614C256.175 178.849 255.889 178.966 255.551 178.966C255.214 178.966 254.928 178.849 254.693 178.614C254.459 178.365 254.341 178.071 254.341 177.734C254.341 177.397 254.459 177.111 254.693 176.876C254.943 176.627 255.229 176.502 255.551 176.502C255.874 176.502 256.153 176.627 256.387 176.876C256.637 177.111 256.761 177.397 256.761 177.734C256.761 178.071 256.644 178.365 256.409 178.614ZM254.627 180.968H256.497V191H254.627V180.968ZM259.756 175.204H261.56V191H259.756V175.204Z" fill="black"/>
<path d="M6 15C6 9.47715 10.4772 5 16 5H460C465.523 5 470 9.47715 470 15V97H6V15Z" fill="#09789B"/>
<path d="M61.692 68H58.808L53.04 51.984H52.9L52.368 68H49.96L50.716 48.68H54.328L60.348 65.396H60.46L66.48 48.68H70.092L70.848 68H68.16L67.628 51.984H67.488L61.692 68ZM77.3088 52.236C77.0101 52.5347 76.6461 52.684 76.2168 52.684C75.7874 52.684 75.4234 52.5347 75.1248 52.236C74.8261 51.9187 74.6768 51.5453 74.6768 51.116C74.6768 50.6867 74.8261 50.3227 75.1248 50.024C75.4421 49.7067 75.8061 49.548 76.2168 49.548C76.6274 49.548 76.9821 49.7067 77.2808 50.024C77.5981 50.3227 77.7568 50.6867 77.7568 51.116C77.7568 51.5453 77.6074 51.9187 77.3088 52.236ZM75.0408 55.232H77.4208V68H75.0408V55.232ZM94.1269 66.432C95.5269 66.432 96.6096 65.956 97.3749 65.004C98.1403 64.052 98.5229 62.8947 98.5229 61.532C98.5229 60.1507 98.1869 59.04 97.5149 58.2C96.8616 57.36 95.9563 56.94 94.7989 56.94C94.3509 56.94 93.8189 57.0707 93.2029 57.332C92.5869 57.5933 92.0363 57.9387 91.5509 58.368V65.928C92.4283 66.264 93.2869 66.432 94.1269 66.432ZM91.5509 74.44H89.2269V55.232H90.7389L91.3829 56.688C92.7456 55.4933 94.1923 54.896 95.7229 54.896C97.2536 54.896 98.5043 55.4933 99.4749 56.688C100.446 57.8827 100.931 59.4413 100.931 61.364C100.931 63.268 100.362 64.9107 99.2229 66.292C98.1029 67.6547 96.4976 68.336 94.4069 68.336C93.4736 68.336 92.5216 68.2053 91.5509 67.944V74.44ZM109.253 66.376C110.597 66.376 111.941 65.9747 113.285 65.172L114.097 66.852C112.529 67.8413 110.849 68.336 109.057 68.336C107.284 68.336 105.875 67.776 104.829 66.656C103.784 65.5173 103.261 63.884 103.261 61.756C103.261 59.628 103.803 57.9573 104.885 56.744C105.968 55.512 107.405 54.896 109.197 54.896C110.821 54.896 112.1 55.4 113.033 56.408C113.425 56.8187 113.752 57.416 114.013 58.2C114.293 58.984 114.433 59.908 114.433 60.972L113.565 61.952H105.641C105.697 64.9013 106.901 66.376 109.253 66.376ZM112.081 60.188C112.081 59.1427 111.811 58.3027 111.269 57.668C110.728 57.0333 110.009 56.716 109.113 56.716C108.236 56.716 107.489 57.0333 106.873 57.668C106.257 58.284 105.884 59.124 105.753 60.188H112.081ZM117.364 55.232H118.876L119.576 57.472H119.688C120.714 56.1467 122.124 55.344 123.916 55.064L124.168 57.276C123.29 57.332 122.441 57.556 121.62 57.948C120.798 58.34 120.173 58.8627 119.744 59.516V68H117.364V55.232ZM126.84 55.232V51.844C126.84 50.4627 127.166 49.408 127.82 48.68C128.473 47.9333 129.322 47.56 130.368 47.56C131.432 47.56 132.561 47.84 133.756 48.4L132.944 50.08C132.122 49.744 131.413 49.576 130.816 49.576C129.696 49.576 129.136 50.3227 129.136 51.816V55.232H137.48V68H135.1V56.996H129.136V68H126.84V56.996H124.936V55.232H126.84ZM137.368 52.236C137.069 52.5347 136.705 52.684 136.276 52.684C135.846 52.684 135.482 52.5347 135.184 52.236C134.885 51.9187 134.736 51.5453 134.736 51.116C134.736 50.6867 134.885 50.3227 135.184 50.024C135.501 49.7067 135.865 49.548 136.276 49.548C136.686 49.548 137.041 49.7067 137.34 50.024C137.657 50.3227 137.816 50.6867 137.816 51.116C137.816 51.5453 137.666 51.9187 137.368 52.236ZM141.615 47.896H143.911V68H141.615V47.896Z" fill="white"/>
<line x1="6" y1="300.188" x2="470" y2="300.188" stroke="#09789B"/>
<path d="M136.667 236C136.667 217.897 122.489 203.222 105 203.222C87.511 203.222 73.3333 217.897 73.3333 236M136.667 236H141.753C148.833 236 152.373 236 155.08 234.572C157.463 233.315 159.407 231.304 160.621 228.837C162 226.036 162 222.371 162 215.043V138.958C162 131.629 162 127.959 160.621 125.157C159.407 122.69 157.463 120.686 155.08 119.429C152.371 118 148.829 118 141.735 118H68.2679C61.1739 118 57.6243 118 54.9147 119.429C52.5313 120.686 50.595 122.69 49.3806 125.157C48 127.962 48 131.636 48 138.979V215.024C48 222.366 48 226.033 49.3806 228.837C50.595 231.304 52.5313 233.315 54.9147 234.572C57.6216 236 61.1669 236 68.2471 236H73.3333M136.667 236H73.3333M105 183.556C94.5063 183.556 86 174.751 86 163.889C86 153.027 94.5063 144.222 105 144.222C115.494 144.222 124 153.027 124 163.889C124 174.751 115.494 183.556 105 183.556Z" stroke="black" stroke-width="5" stroke-linecap="round" stroke-linejoin="round"/>
<g filter="url(#filter2_d_304_434)">
<rect x="330" y="32" width="109" height="43" rx="15" fill="#62D5FA"/>
<rect x="330.5" y="32.5" width="108" height="42" rx="14.5" stroke="black"/>
</g>
<path d="M355.346 61.7013V46.4993H364.278L363.86 48.1713H357.238V53.1873H363.486V54.7933H357.238V60.0293H364.696V61.7013H355.346ZM373.807 45.9053H375.611V61.7013H374.423L373.873 60.3813C372.773 61.4373 371.637 61.9653 370.463 61.9653C369.305 61.9653 368.344 61.518 367.581 60.6233C366.819 59.714 366.437 58.4893 366.437 56.9493C366.437 55.4093 366.892 54.126 367.801 53.0993C368.711 52.058 369.884 51.5373 371.321 51.5373C372.099 51.5373 372.927 51.7133 373.807 52.0653V45.9053ZM371.783 53.0333C370.683 53.0333 369.833 53.4073 369.231 54.1553C368.63 54.9033 368.329 55.8126 368.329 56.8833C368.329 57.954 368.579 58.812 369.077 59.4573C369.576 60.1026 370.221 60.4253 371.013 60.4253C371.453 60.4253 371.923 60.308 372.421 60.0733C372.935 59.824 373.397 59.4866 373.807 59.0613V53.4293C373.118 53.1653 372.443 53.0333 371.783 53.0333ZM380.656 49.3153C380.421 49.55 380.135 49.6673 379.798 49.6673C379.46 49.6673 379.174 49.55 378.94 49.3153C378.705 49.066 378.588 48.7726 378.588 48.4353C378.588 48.098 378.705 47.812 378.94 47.5773C379.189 47.328 379.475 47.2033 379.798 47.2033C380.12 47.2033 380.399 47.328 380.634 47.5773C380.883 47.812 381.008 48.098 381.008 48.4353C381.008 48.7726 380.89 49.066 380.656 49.3153ZM378.874 51.6693H380.744V61.7013H378.874V51.6693ZM386.334 53.0553V59.0833C386.334 59.9633 386.752 60.4033 387.588 60.4033C388.072 60.4033 388.652 60.264 389.326 59.9853L389.568 61.4593C388.85 61.7966 388.094 61.9653 387.302 61.9653C386.51 61.9653 385.85 61.7306 385.322 61.2613C384.794 60.7773 384.53 60.044 384.53 59.0613V53.0553H383.144V51.6693H384.53V49.6893L385.894 48.4353H386.334V51.6693H389.172V53.0553H386.334ZM397.045 55.6953V54.7273C397.045 53.5393 396.429 52.9453 395.197 52.9453C394.229 52.9453 393.217 53.2606 392.161 53.8913L391.523 52.5713C392.755 51.794 394.083 51.4053 395.505 51.4053C396.503 51.4053 397.317 51.662 397.947 52.1753C398.593 52.674 398.915 53.4513 398.915 54.5073V61.7013H397.727L397.177 60.3813C396.708 60.8653 396.151 61.254 395.505 61.5473C394.86 61.826 394.273 61.9653 393.745 61.9653C392.836 61.9653 392.11 61.716 391.567 61.2173C391.025 60.7186 390.753 60.066 390.753 59.2593C390.753 56.8833 392.851 55.6953 397.045 55.6953ZM393.393 57.8293C393.115 58.0786 392.924 58.306 392.821 58.5113C392.733 58.702 392.689 58.9586 392.689 59.2813C392.689 59.5893 392.821 59.8606 393.085 60.0953C393.364 60.3153 393.723 60.4253 394.163 60.4253C395.087 60.4253 396.048 60.0146 397.045 59.1933V56.9933C395.197 57.0226 393.98 57.3013 393.393 57.8293ZM401.987 51.6693H403.175L403.725 53.4293H403.813C404.619 52.388 405.727 51.7573 407.135 51.5373L407.333 53.2753C406.643 53.3193 405.976 53.4953 405.331 53.8033C404.685 54.1113 404.194 54.522 403.857 55.0353V61.7013H401.987V51.6693Z" fill="black"/>
</g>
<g filter="url(#filter3_d_304_434)">
<rect x="50" y="242" width="109" height="43" rx="15" fill="#62D5FA"/>
<rect x="50.5" y="242.5" width="108" height="42" rx="14.5" stroke="black"/>
</g>
<path d="M67.0718 255.69C66.0451 255.338 65.0918 255.162 64.2118 255.162C63.3318 255.162 62.6131 255.389 62.0558 255.844C61.4985 256.299 61.2198 256.849 61.2198 257.494C61.2198 258.418 61.7111 259.144 62.6938 259.672L65.7958 261.388C67.5265 262.356 68.3918 263.603 68.3918 265.128C68.3918 266.389 67.9445 267.394 67.0498 268.142C66.1551 268.89 64.8938 269.264 63.2658 269.264C61.6378 269.264 60.1785 268.971 58.8878 268.384L59.4378 266.844C60.6405 267.372 61.8211 267.636 62.9798 267.636C64.1531 267.636 65.0185 267.409 65.5758 266.954C66.1331 266.499 66.4118 265.949 66.4118 265.304C66.4118 264.38 65.9205 263.654 64.9378 263.126L61.8358 261.41C60.1051 260.442 59.2398 259.195 59.2398 257.67C59.2398 256.409 59.6871 255.404 60.5818 254.656C61.4765 253.908 62.6791 253.534 64.1898 253.534C65.2165 253.534 66.3678 253.747 67.6438 254.172L67.0718 255.69ZM72.6316 258.968V266.426C72.6316 266.837 72.7783 267.159 73.0716 267.394C73.3796 267.614 73.7756 267.724 74.2596 267.724C75.301 267.724 76.3716 267.313 77.4716 266.492V258.968H79.3416V269H78.1536L77.6036 267.68C76.4743 268.736 75.2203 269.264 73.8416 269.264C72.9616 269.264 72.2283 269.029 71.6416 268.56C71.055 268.091 70.7616 267.409 70.7616 266.514V258.968H72.6316ZM86.2776 267.768C87.3776 267.768 88.2283 267.394 88.8296 266.646C89.431 265.898 89.7316 264.996 89.7316 263.94C89.7316 262.884 89.4676 262.041 88.9396 261.41C88.4116 260.765 87.7296 260.442 86.8936 260.442C86.0723 260.442 85.1923 260.691 84.2536 261.19V267.372C84.943 267.636 85.6176 267.768 86.2776 267.768ZM84.2536 253.204V259.782C85.3683 259.151 86.4903 258.836 87.6196 258.836C88.7636 258.836 89.717 259.298 90.4796 260.222C91.2423 261.131 91.6236 262.327 91.6236 263.808C91.6236 265.289 91.1763 266.573 90.2816 267.658C89.4016 268.729 88.1403 269.264 86.4976 269.264C85.2363 269.264 83.887 268.941 82.4496 268.296V253.204H84.2536ZM96.0537 256.614C95.8191 256.849 95.5331 256.966 95.1957 256.966C94.8584 256.966 94.5724 256.849 94.3377 256.614C94.1031 256.365 93.9857 256.071 93.9857 255.734C93.9857 255.397 94.1031 255.111 94.3377 254.876C94.5871 254.627 94.8731 254.502 95.1957 254.502C95.5184 254.502 95.7971 254.627 96.0317 254.876C96.2811 255.111 96.4057 255.397 96.4057 255.734C96.4057 256.071 96.2884 256.365 96.0537 256.614ZM94.2717 258.968H96.1417V269H94.2717V258.968ZM99.4883 258.968H100.676L101.226 260.728H101.314C102.121 259.687 103.228 259.056 104.636 258.836L104.834 260.574C104.145 260.618 103.478 260.794 102.832 261.102C102.187 261.41 101.696 261.821 101.358 262.334V269H99.4883V258.968ZM112.423 269V253.798H120.981L120.563 255.47H114.315V260.486H120.189V262.092H114.315V269H112.423ZM126.677 260.134C126.119 260.134 125.635 260.259 125.225 260.508C124.829 260.757 124.535 261.08 124.345 261.476C123.993 262.224 123.817 263.023 123.817 263.874C123.817 266.514 124.733 267.834 126.567 267.834C127.124 267.834 127.601 267.709 127.997 267.46C128.393 267.211 128.693 266.888 128.899 266.492C129.251 265.759 129.427 264.959 129.427 264.094C129.427 261.454 128.51 260.134 126.677 260.134ZM126.677 258.704C128.305 258.704 129.493 259.21 130.241 260.222C130.989 261.234 131.363 262.554 131.363 264.182C131.363 265.355 131.055 266.441 130.439 267.438C130.101 267.981 129.595 268.421 128.921 268.758C128.246 269.095 127.439 269.264 126.501 269.264C124.887 269.264 123.714 268.78 122.981 267.812C122.247 266.844 121.881 265.546 121.881 263.918C121.881 262.965 122.027 262.158 122.321 261.498C122.629 260.838 122.951 260.332 123.289 259.98C123.626 259.613 124.088 259.313 124.675 259.078C125.261 258.829 125.929 258.704 126.677 258.704ZM136.086 260.354V266.382C136.086 267.262 136.504 267.702 137.34 267.702C137.824 267.702 138.403 267.563 139.078 267.284L139.32 268.758C138.601 269.095 137.846 269.264 137.054 269.264C136.262 269.264 135.602 269.029 135.074 268.56C134.546 268.076 134.282 267.343 134.282 266.36V260.354H132.896V258.968H134.282V256.988L135.646 255.734H136.086V258.968H138.924V260.354H136.086ZM145.411 260.134C144.854 260.134 144.37 260.259 143.959 260.508C143.563 260.757 143.27 261.08 143.079 261.476C142.727 262.224 142.551 263.023 142.551 263.874C142.551 266.514 143.468 267.834 145.301 267.834C145.858 267.834 146.335 267.709 146.731 267.46C147.127 267.211 147.428 266.888 147.633 266.492C147.985 265.759 148.161 264.959 148.161 264.094C148.161 261.454 147.244 260.134 145.411 260.134ZM145.411 258.704C147.039 258.704 148.227 259.21 148.975 260.222C149.723 261.234 150.097 262.554 150.097 264.182C150.097 265.355 149.789 266.441 149.173 267.438C148.836 267.981 148.33 268.421 147.655 268.758C146.98 269.095 146.174 269.264 145.235 269.264C143.622 269.264 142.448 268.78 141.715 267.812C140.982 266.844 140.615 265.546 140.615 263.918C140.615 262.965 140.762 262.158 141.055 261.498C141.363 260.838 141.686 260.332 142.023 259.98C142.36 259.613 142.822 259.313 143.409 259.078C143.996 258.829 144.663 258.704 145.411 258.704Z" fill="black"/>
<defs>
<filter id="filter0_d_304_434" x="2" y="5" width="472" height="351" filterUnits="userSpaceOnUse" color-interpolation-filters="sRGB">
<feFlood flood-opacity="0" result="BackgroundImageFix"/>
<feColorMatrix in="SourceAlpha" type="matrix" values="0 0 0 0 0 0 0 0 0 0 0 0 0 0 0 0 0 0 127 0" result="hardAlpha"/>
<feOffset dy="4"/>
<feGaussianBlur stdDeviation="2"/>
<feComposite in2="hardAlpha" operator="out"/>
<feColorMatrix type="matrix" values="0 0 0 0 0 0 0 0 0 0 0 0 0 0 0 0 0 0 0.25 0"/>
<feBlend mode="normal" in2="BackgroundImageFix" result="effect1_dropShadow_304_434"/>
<feBlend mode="normal" in="SourceGraphic" in2="effect1_dropShadow_304_434" result="shape"/>
</filter>
<filter id="filter1_d_304_434" x="0" y="0" width="476" height="354" filterUnits="userSpaceOnUse" color-interpolation-filters="sRGB">
<feFlood flood-opacity="0" result="BackgroundImageFix"/>
<feColorMatrix in="SourceAlpha" type="matrix" values="0 0 0 0 0 0 0 0 0 0 0 0 0 0 0 0 0 0 127 0" result="hardAlpha"/>
<feOffset/>
<feGaussianBlur stdDeviation="3"/>
<feComposite in2="hardAlpha" operator="out"/>
<feColorMatrix type="matrix" values="0 0 0 0 0 0 0 0 0 0 0 0 0 0 0 0 0 0 0.25 0"/>
<feBlend mode="normal" in2="BackgroundImageFix" result="effect1_dropShadow_304_434"/>
<feBlend mode="normal" in="SourceGraphic" in2="effect1_dropShadow_304_434" result="shape"/>
</filter>
<filter id="filter2_d_304_434" x="326" y="32" width="117" height="51" filterUnits="userSpaceOnUse" color-interpolation-filters="sRGB">
<feFlood flood-opacity="0" result="BackgroundImageFix"/>
<feColorMatrix in="SourceAlpha" type="matrix" values="0 0 0 0 0 0 0 0 0 0 0 0 0 0 0 0 0 0 127 0" result="hardAlpha"/>
<feOffset dy="4"/>
<feGaussianBlur stdDeviation="2"/>
<feComposite in2="hardAlpha" operator="out"/>
<feColorMatrix type="matrix" values="0 0 0 0 0 0 0 0 0 0 0 0 0 0 0 0 0 0 0.25 0"/>
<feBlend mode="normal" in2="BackgroundImageFix" result="effect1_dropShadow_304_434"/>
<feBlend mode="normal" in="SourceGraphic" in2="effect1_dropShadow_304_434" result="shape"/>
</filter>
<filter id="filter3_d_304_434" x="46" y="242" width="117" height="51" filterUnits="userSpaceOnUse" color-interpolation-filters="sRGB">
<feFlood flood-opacity="0" result="BackgroundImageFix"/>
<feColorMatrix in="SourceAlpha" type="matrix" values="0 0 0 0 0 0 0 0 0 0 0 0 0 0 0 0 0 0 127 0" result="hardAlpha"/>
<feOffset dy="4"/>
<feGaussianBlur stdDeviation="2"/>
<feComposite in2="hardAlpha" operator="out"/>
<feColorMatrix type="matrix" values="0 0 0 0 0 0 0 0 0 0 0 0 0 0 0 0 0 0 0.25 0"/>
<feBlend mode="normal" in2="BackgroundImageFix" result="effect1_dropShadow_304_434"/>
<feBlend mode="normal" in="SourceGraphic" in2="effect1_dropShadow_304_434" result="shape"/>
</filter>
</defs>
</svg>
