<?xml version="1.0" standalone="no"?>
<!DOCTYPE svg PUBLIC "-//W3C//DTD SVG 20010904//EN"
 "http://www.w3.org/TR/2001/REC-SVG-20010904/DTD/svg10.dtd">
<svg version="1.0" xmlns="http://www.w3.org/2000/svg"
 width="373.000000pt" height="278.000000pt" viewBox="0 0 373.000000 278.000000"
 preserveAspectRatio="xMidYMid meet">

<g transform="translate(0.000000,278.000000) scale(0.100000,-0.100000)"
fill="#000000" stroke="none">
<path d="M51 2734 c-20 -26 -21 -38 -21 -360 l0 -334 1835 0 1835 0 0 340 c0
327 -1 341 -20 360 -20 20 -33 20 -1814 20 l-1795 0 -20 -26z m3349 -211 c39
-23 50 -52 50 -139 0 -86 -16 -126 -60 -149 -43 -22 -677 -22 -720 0 -51 26
-60 50 -60 153 0 92 1 95 31 123 l31 29 350 0 c309 0 353 -2 378 -17z m-2360
-103 c0 -5 6 -7 14 -4 17 7 31 -12 15 -21 -6 -4 -16 -2 -22 4 -18 18 -37 13
-37 -9 0 -16 7 -20 30 -20 30 0 30 -1 30 -55 0 -30 -4 -55 -10 -55 -5 0 -10
20 -10 45 0 38 -3 45 -19 45 -16 0 -20 -8 -23 -40 -2 -22 -7 -40 -13 -40 -5 0
-11 18 -13 40 -3 41 -8 45 -36 34 -11 -4 -16 -19 -16 -45 0 -21 -4 -39 -10
-39 -5 0 -10 25 -10 55 0 39 4 55 13 54 40 -5 55 2 61 31 4 24 11 30 31 30 14
0 25 -4 25 -10z m82 -2 c3 -11 2 -116 -1 -151 -1 -5 -5 -5 -11 -2 -12 8 -13
165 -1 165 5 0 11 -6 13 -12z m-687 -53 c10 -30 21 -55 25 -55 3 0 14 25 24
55 13 42 22 55 37 55 17 0 19 -7 19 -70 0 -38 0 -73 1 -77 0 -4 -4 -9 -9 -11
-5 -1 -13 21 -17 50 l-7 53 -17 -50 c-10 -27 -24 -50 -31 -50 -8 0 -24 25 -36
55 l-23 55 -1 -52 c0 -50 -12 -74 -25 -53 -4 6 -4 42 0 81 6 55 10 69 24 69
12 0 23 -17 36 -55z m165 34 c0 -5 -7 -9 -15 -9 -15 0 -20 12 -9 23 8 8 24 -1
24 -14z m172 -43 c23 -33 -6 -96 -44 -96 -13 0 -18 -7 -18 -26 0 -16 -5 -24
-12 -22 -9 3 -14 31 -16 81 l-3 76 28 3 c33 4 55 -1 65 -16z m-174 -36 c-4
-67 -22 -69 -26 -2 -2 42 0 52 13 52 13 0 15 -10 13 -50z m287 30 c9 -28 -2
-40 -37 -40 -25 0 -28 -3 -19 -14 7 -8 22 -11 39 -8 24 5 26 4 13 -11 -16 -20
-52 -22 -69 -5 -16 16 -16 70 0 86 20 20 66 15 73 -8z"/>
<path d="M2795 2428 c-2 -7 -3 -33 -2 -58 l2 -45 40 -2 c35 -1 36 -1 10 5 -39
9 -47 42 -11 42 14 0 26 5 26 10 0 6 -11 10 -25 10 -16 0 -25 6 -25 15 0 9 9
15 24 15 14 0 28 5 31 10 4 6 -8 10 -30 10 -20 0 -38 -6 -40 -12z"/>
<path d="M2940 2421 c0 -12 -9 -21 -24 -25 -26 -6 -40 -33 -30 -59 7 -20 26
-27 53 -20 18 5 21 13 21 64 0 33 -4 59 -10 59 -5 0 -10 -9 -10 -19z m0 -66
c0 -25 -23 -35 -35 -15 -10 16 2 40 20 40 9 0 15 -9 15 -25z"/>
<path d="M2980 2420 c0 -5 5 -10 10 -10 6 0 10 5 10 10 0 6 -4 10 -10 10 -5 0
-10 -4 -10 -10z"/>
<path d="M3027 2408 c-6 -17 3 -81 13 -92 5 -4 14 -5 20 -1 9 6 9 9 -1 15 -19
13 -20 42 -1 57 16 11 16 12 -1 13 -10 0 -15 5 -12 10 3 6 2 10 -4 10 -5 0
-11 -6 -14 -12z"/>
<path d="M2980 2360 c0 -22 5 -40 10 -40 6 0 10 18 10 40 0 22 -4 40 -10 40
-5 0 -10 -18 -10 -40z"/>
<path d="M3085 2391 c-4 -7 5 -11 22 -12 l28 -1 -27 -10 c-17 -6 -28 -17 -28
-28 0 -24 11 -31 39 -23 18 5 22 11 19 42 -2 28 -8 37 -25 39 -11 2 -24 -2
-28 -7z m40 -51 c-3 -5 -10 -10 -16 -10 -5 0 -9 5 -9 10 0 6 7 10 16 10 8 0
12 -4 9 -10z"/>
<path d="M3165 2391 c-10 -9 -5 -71 5 -71 6 0 10 11 10 25 0 14 7 28 15 31 22
9 18 23 -5 21 -12 -1 -23 -3 -25 -6z"/>
<path d="M710 2321 c0 -35 15 -48 36 -30 22 18 14 53 -13 57 -20 3 -23 -1 -23
-27z"/>
<path d="M825 2340 c-3 -5 3 -10 14 -10 12 0 21 5 21 10 0 6 -6 10 -14 10 -8
0 -18 -4 -21 -10z"/>
<path d="M410 1877 c-13 -7 -35 -28 -47 -46 -23 -34 -23 -34 -23 -425 0 -352
2 -394 18 -426 9 -19 28 -40 42 -47 19 -10 124 -13 417 -13 l393 0 32 29 33
29 0 426 0 426 -28 27 -27 28 -393 3 c-301 1 -398 -1 -417 -11z m805 -49 l25
-23 0 -397 c1 -264 -3 -405 -10 -418 -12 -22 -35 -30 -99 -33 l-44 -2 -12 47
c-34 130 -134 207 -266 208 -124 0 -221 -76 -256 -202 l-17 -60 -55 7 c-42 4
-62 12 -78 31 l-23 25 0 385 c0 320 2 390 15 414 8 15 20 30 27 33 7 3 183 6
390 6 l377 1 26 -22z m-309 -674 c47 -23 110 -95 125 -143 7 -23 10 -44 7 -47
-3 -3 -106 -5 -229 -6 l-224 0 3 28 c7 61 51 120 122 163 44 26 145 29 196 5z"/>
<path d="M735 1661 c-47 -29 -73 -62 -86 -113 -22 -82 17 -163 95 -199 53 -24
90 -24 143 2 124 60 124 254 0 313 -47 21 -115 20 -152 -3z m162 -54 c31 -29
37 -41 40 -88 5 -66 -20 -113 -72 -135 -46 -19 -74 -18 -112 6 -121 74 -76
250 65 250 34 0 49 -6 79 -33z"/>
<path d="M1979 1885 c-3 -5 -5 -35 -5 -65 1 -54 2 -55 30 -55 54 0 62 65 8 73
-14 2 -22 12 -24 30 -2 15 -6 23 -9 17z m46 -86 c0 -15 -7 -25 -17 -27 -13 -3
-18 3 -18 21 0 13 3 27 7 31 13 12 28 -1 28 -25z"/>
<path d="M1622 1818 l1 -63 6 50 6 50 34 -47 c19 -27 38 -48 43 -48 4 0 8 27
8 60 0 68 -17 82 -22 18 l-3 -43 -30 42 c-16 24 -33 43 -37 43 -5 0 -7 -28 -6
-62z"/>
<path d="M1750 1825 c-7 -8 -10 -25 -6 -40 8 -31 50 -35 66 -5 23 42 -30 81
-60 45z m45 -25 c0 -16 -6 -26 -17 -28 -14 -3 -18 3 -18 28 0 25 4 31 18 28
11 -2 17 -12 17 -28z"/>
<path d="M1836 1833 c-10 -10 -7 -73 3 -73 6 0 11 15 13 33 4 45 31 43 39 -3
l6 -35 4 35 c2 23 9 35 19 35 9 0 17 -13 21 -35 l6 -35 2 41 1 41 -54 1 c-30
0 -57 -2 -60 -5z"/>
<path d="M2071 1795 c1 -27 3 -32 6 -15 3 14 12 33 20 42 14 15 13 17 -6 15
-18 -1 -21 -7 -20 -42z"/>
<path d="M2124 1826 c-12 -32 0 -61 29 -64 15 -2 27 1 27 6 0 5 -9 8 -20 8
-29 -1 -25 18 5 22 28 4 31 12 13 30 -16 16 -47 15 -54 -2z m46 -6 c0 -5 -7
-10 -15 -10 -8 0 -15 5 -15 10 0 6 7 10 15 10 8 0 15 -4 15 -10z"/>
<path d="M2642 1659 c2 -44 7 -54 22 -57 27 -6 48 25 35 49 -5 11 -15 19 -21
19 -9 0 -9 -3 0 -12 17 -17 15 -48 -3 -48 -11 0 -15 12 -15 44 0 25 -5 48 -11
51 -7 5 -9 -11 -7 -46z"/>
<path d="M2975 1654 c0 -30 3 -54 8 -54 4 0 7 22 7 49 0 28 -3 52 -7 54 -5 3
-8 -19 -8 -49z"/>
<path d="M1790 1682 c0 -4 9 -24 19 -45 13 -26 21 -33 25 -22 3 8 1 15 -4 15
-4 0 -11 14 -15 30 -6 26 -25 43 -25 22z"/>
<path d="M1857 1648 c6 -43 10 -55 16 -47 7 8 -5 89 -13 89 -4 0 -6 -19 -3
-42z"/>
<path d="M2374 1678 c-4 -6 5 -21 21 -34 25 -19 27 -24 13 -29 -10 -4 -22 -4
-28 0 -5 3 -10 1 -10 -4 0 -18 50 -13 57 5 4 11 -3 23 -20 36 -15 11 -25 24
-21 29 3 5 3 9 0 9 -3 0 -8 -5 -12 -12z"/>
<path d="M2190 1660 c0 -5 5 -10 11 -10 5 0 7 5 4 10 -3 6 -8 10 -11 10 -2 0
-4 -4 -4 -10z"/>
<path d="M2520 1636 c0 -20 5 -36 10 -36 6 0 10 13 10 29 0 17 -4 33 -10 36
-6 4 -10 -8 -10 -29z"/>
<path d="M2557 1658 c7 -8 11 -24 8 -36 -2 -12 1 -22 6 -22 16 0 6 63 -11 68
-12 4 -13 2 -3 -10z"/>
<path d="M2599 1657 c7 -9 11 -26 8 -37 -3 -11 -1 -20 5 -20 15 0 4 63 -12 68
-13 5 -13 3 -1 -11z"/>
<path d="M2888 1635 c2 -19 8 -35 12 -35 5 0 7 12 5 28 -2 15 -4 30 -4 35 -1
4 -5 7 -9 7 -4 0 -6 -16 -4 -35z"/>
<path d="M2930 1636 c0 -20 5 -36 10 -36 6 0 10 13 10 29 0 17 -4 33 -10 36
-6 4 -10 -8 -10 -29z"/>
<path d="M1936 1633 c7 -39 14 -42 14 -5 0 18 -4 32 -9 32 -5 0 -7 -12 -5 -27z"/>
<path d="M1978 1630 c2 -16 7 -30 11 -30 4 0 6 14 3 30 -2 17 -7 30 -11 30 -4
0 -6 -13 -3 -30z"/>
<path d="M2015 1635 c2 -37 15 -43 15 -7 0 18 -4 32 -8 32 -4 0 -7 -11 -7 -25z"/>
<path d="M2060 1630 c0 -16 3 -30 8 -30 4 0 7 14 7 30 0 17 -3 30 -7 30 -5 0
-8 -13 -8 -30z"/>
<path d="M2118 1630 c-3 -16 -1 -30 4 -30 4 0 8 14 8 30 0 17 -2 30 -4 30 -2
0 -6 -13 -8 -30z"/>
<path d="M2154 1645 c-9 -22 3 -45 23 -45 15 0 15 1 -2 14 -11 8 -16 19 -12
30 4 9 4 16 1 16 -2 0 -7 -7 -10 -15z"/>
<path d="M2228 1630 c-3 -16 -1 -30 4 -30 4 0 8 14 8 30 0 17 -2 30 -4 30 -2
0 -6 -13 -8 -30z"/>
<path d="M2264 1645 c-8 -19 2 -45 17 -45 8 0 8 4 -1 15 -7 8 -10 22 -6 30 3
8 3 15 0 15 -2 0 -7 -7 -10 -15z"/>
<path d="M2308 1635 c2 -14 6 -25 8 -25 2 0 4 11 4 25 0 14 -4 25 -9 25 -4 0
-6 -11 -3 -25z"/>
<path d="M2480 1630 c0 -16 4 -30 8 -30 5 0 7 14 4 30 -2 17 -6 30 -8 30 -2 0
-4 -13 -4 -30z"/>
<path d="M2720 1630 c0 -16 5 -30 10 -30 6 0 10 14 10 30 0 17 -4 30 -10 30
-5 0 -10 -13 -10 -30z"/>
<path d="M2776 1648 c-11 -24 0 -48 21 -48 12 0 14 3 7 8 -7 4 -14 18 -16 32
-4 21 -6 22 -12 8z"/>
<path d="M2810 1650 c0 -5 5 -10 11 -10 5 0 7 5 4 10 -3 6 -8 10 -11 10 -2 0
-4 -4 -4 -10z"/>
<path d="M2848 1630 c-3 -16 -1 -30 4 -30 4 0 8 14 8 30 0 17 -2 30 -4 30 -2
0 -6 -13 -8 -30z"/>
<path d="M1781 1614 c0 -11 3 -14 6 -6 3 7 2 16 -1 19 -3 4 -6 -2 -5 -13z"/>
<path d="M1900 1615 c0 -8 4 -15 10 -15 5 0 7 7 4 15 -4 8 -8 15 -10 15 -2 0
-4 -7 -4 -15z"/>
<path d="M2446 1622 c-3 -6 -1 -14 5 -17 14 -9 20 -2 10 14 -6 8 -11 9 -15 3z"/>
<path d="M2043 1355 c0 -38 2 -53 4 -32 2 20 2 52 0 70 -2 17 -4 1 -4 -38z"/>
<path d="M1620 1350 l0 -60 35 0 c19 0 35 5 35 10 0 6 -14 10 -31 10 -23 0
-30 4 -27 17 2 9 14 20 28 24 l25 7 -27 1 c-21 1 -28 6 -28 20 0 15 8 21 33
24 31 4 31 4 -5 5 l-38 2 0 -60z"/>
<path d="M2000 1400 c0 -5 5 -10 11 -10 5 0 7 5 4 10 -3 6 -8 10 -11 10 -2 0
-4 -4 -4 -10z"/>
<path d="M1770 1330 c0 -22 5 -40 10 -40 6 0 10 16 10 35 0 24 5 35 15 35 10
0 15 -10 15 -29 0 -42 18 -48 22 -9 4 41 33 46 33 6 0 -14 4 -30 8 -35 5 -4 7
10 5 32 l-3 40 -57 3 -58 3 0 -41z"/>
<path d="M1938 1363 c12 -2 22 -8 22 -13 0 -5 -10 -10 -22 -12 -35 -5 -31 -43
5 -44 25 -1 27 2 27 37 0 36 -2 39 -27 38 -24 -2 -25 -2 -5 -6z m22 -42 c0
-13 -28 -22 -35 -11 -3 4 1 11 7 13 20 8 28 8 28 -2z"/>
<path d="M2003 1330 c0 -25 2 -35 4 -22 2 12 2 32 0 45 -2 12 -4 2 -4 -23z"/>
<path d="M1718 1333 c6 -2 18 -2 25 0 6 3 1 5 -13 5 -14 0 -19 -2 -12 -5z"/>
<path d="M2116 1219 c4 -71 14 -75 14 -6 0 32 -4 57 -9 57 -4 0 -7 -23 -5 -51z"/>
<path d="M2445 1220 c0 -27 3 -50 8 -50 4 0 7 23 7 50 0 28 -3 50 -7 50 -5 0
-8 -22 -8 -50z"/>
<path d="M2921 1223 c0 -29 3 -53 7 -53 4 0 6 17 4 38 -6 64 -10 69 -11 15z"/>
<path d="M2567 1240 c6 -8 13 -26 16 -40 l4 -25 2 26 c0 15 -7 33 -16 40 -16
12 -17 12 -6 -1z"/>
<path d="M1739 1198 c4 -32 5 -32 11 -8 7 26 4 40 -9 40 -4 0 -5 -15 -2 -32z"/>
<path d="M1778 1200 c2 -16 7 -30 11 -30 11 0 5 54 -6 57 -5 2 -8 -9 -5 -27z"/>
<path d="M1818 1200 c6 -42 24 -50 20 -9 -2 18 -8 34 -14 36 -7 2 -9 -8 -6
-27z"/>
<path d="M1860 1217 c0 -7 9 -20 20 -30 11 -9 20 -12 20 -7 0 6 -9 19 -20 30
-12 12 -20 15 -20 7z"/>
<path d="M1950 1202 c0 -17 4 -34 10 -37 6 -4 7 6 3 27 -8 44 -13 48 -13 10z"/>
<path d="M1990 1201 c0 -17 5 -31 10 -31 6 0 10 11 10 24 0 14 -4 28 -10 31
-6 4 -10 -7 -10 -24z"/>
<path d="M2029 1217 c7 -9 11 -24 7 -32 -3 -8 -1 -15 5 -15 16 0 6 53 -11 58
-13 5 -13 3 -1 -11z"/>
<path d="M2066 1222 c7 -4 14 -18 17 -32 4 -21 4 -20 6 8 1 24 -3 32 -16 32
-12 0 -14 -3 -7 -8z"/>
<path d="M2148 1223 c6 -2 12 -17 12 -31 1 -22 2 -24 10 -10 13 21 2 48 -19
47 -10 0 -11 -2 -3 -6z"/>
<path d="M2195 1200 c0 -16 3 -30 8 -30 4 0 7 14 7 30 0 17 -3 30 -7 30 -5 0
-8 -13 -8 -30z"/>
<path d="M2280 1216 c0 -9 5 -16 10 -16 6 0 10 4 10 9 0 6 -4 13 -10 16 -5 3
-10 -1 -10 -9z"/>
<path d="M2318 1200 c2 -16 6 -30 8 -30 2 0 4 14 4 30 0 17 -4 30 -8 30 -5 0
-7 -13 -4 -30z"/>
<path d="M2358 1200 c2 -17 8 -33 13 -36 10 -6 12 26 3 50 -10 27 -21 18 -16
-14z"/>
<path d="M2400 1200 c0 -16 5 -30 10 -30 6 0 10 14 10 30 0 17 -4 30 -10 30
-5 0 -10 -13 -10 -30z"/>
<path d="M2484 1215 c-9 -23 4 -62 23 -69 15 -6 15 -5 -1 13 -12 13 -17 30
-14 46 6 28 1 34 -8 10z"/>
<path d="M2517 1223 c-9 -9 -9 -51 1 -56 4 -3 7 10 7 29 0 19 0 34 -1 34 0 0
-4 -3 -7 -7z"/>
<path d="M2544 1200 c-1 -17 3 -30 7 -30 5 0 9 14 9 30 0 39 -15 39 -16 0z"/>
<path d="M2643 1211 c0 -11 5 -17 9 -15 11 7 10 34 -1 34 -6 0 -9 -9 -8 -19z"/>
<path d="M2680 1202 c0 -18 4 -32 8 -32 9 0 8 47 -1 57 -4 3 -7 -8 -7 -25z"/>
<path d="M2718 1200 c6 -42 24 -50 20 -9 -2 18 -8 34 -14 36 -7 2 -9 -8 -6
-27z"/>
<path d="M2759 1222 c8 -6 12 -19 8 -31 -3 -12 -1 -21 5 -21 15 0 5 53 -12 57
-12 4 -13 3 -1 -5z"/>
<path d="M2832 1200 c3 -41 18 -50 18 -11 0 16 -5 33 -10 36 -7 4 -10 -6 -8
-25z"/>
<path d="M2878 1200 c2 -16 6 -30 8 -30 2 0 4 14 4 30 0 17 -4 30 -8 30 -5 0
-7 -13 -4 -30z"/>
<path d="M3095 1200 c0 -15 3 -26 8 -23 4 2 7 13 7 23 0 10 -3 21 -7 23 -5 3
-8 -8 -8 -23z"/>
<path d="M3130 1196 c0 -20 4 -35 8 -32 10 6 9 52 -1 62 -4 4 -7 -9 -7 -30z"/>
<path d="M3168 1200 c6 -42 24 -50 20 -9 -2 18 -8 34 -14 36 -7 2 -9 -8 -6
-27z"/>
<path d="M3209 1217 c7 -9 11 -24 7 -32 -3 -8 -1 -15 5 -15 16 0 6 53 -11 58
-13 5 -13 3 -1 -11z"/>
<path d="M2243 1204 c-3 -8 1 -22 9 -30 13 -13 14 -11 10 16 -5 34 -10 37 -19
14z"/>
<path d="M2608 1214 c-9 -15 10 -54 27 -54 8 0 15 -8 16 -17 0 -13 2 -14 6 -4
3 8 -1 20 -10 26 -9 7 -20 22 -25 35 -5 13 -11 19 -14 14z"/>
<path d="M2983 1204 c-3 -9 2 -23 12 -32 16 -16 17 -16 8 3 -6 11 -8 26 -6 33
7 18 -7 15 -14 -4z"/>
<path d="M3050 1195 c0 -14 4 -25 9 -25 4 0 6 11 3 25 -2 14 -6 25 -8 25 -2 0
-4 -11 -4 -25z"/>
<path d="M1920 1175 c0 -8 4 -15 10 -15 5 0 7 7 4 15 -4 8 -8 15 -10 15 -2 0
-4 -7 -4 -15z"/>
<path d="M2800 1181 c0 -6 4 -13 10 -16 6 -3 7 1 4 9 -7 18 -14 21 -14 7z"/>
<path d="M2605 1140 c3 -5 8 -10 11 -10 2 0 4 5 4 10 0 6 -5 10 -11 10 -5 0
-7 -4 -4 -10z"/>
<path d="M1610 970 c0 -5 7 -10 15 -10 11 0 15 -12 15 -50 0 -27 5 -50 10 -50
6 0 10 23 10 50 0 38 4 50 15 50 8 0 15 5 15 10 0 6 -18 10 -40 10 -22 0 -40
-4 -40 -10z"/>
<path d="M1770 921 c0 -34 4 -61 10 -61 6 0 10 24 10 54 0 30 -4 58 -10 61 -6
4 -10 -17 -10 -54z"/>
<path d="M1899 973 c-6 -37 -4 -113 2 -113 5 0 9 13 9 29 0 16 6 32 13 35 10
5 10 7 0 12 -19 8 -16 32 5 37 13 4 11 5 -5 6 -13 0 -24 -2 -24 -6z"/>
<path d="M1840 959 c0 -5 5 -7 10 -4 6 3 10 8 10 11 0 2 -4 4 -10 4 -5 0 -10
-5 -10 -11z"/>
<path d="M1696 924 c-9 -8 -16 -22 -16 -29 0 -14 26 -45 38 -45 4 0 14 5 22
10 12 8 9 10 -12 10 -16 0 -28 5 -28 10 0 6 11 10 25 10 29 0 36 34 9 44 -21
8 -20 8 -38 -10z m36 -16 c-9 -9 -15 -9 -24 0 -9 9 -7 12 12 12 19 0 21 -3 12
-12z"/>
<path d="M1816 925 c-20 -21 -20 -39 0 -59 18 -18 40 -21 49 -6 4 6 -5 10 -19
10 -14 0 -26 5 -26 10 0 6 12 10 26 10 21 0 25 4 22 22 -4 28 -30 34 -52 13z
m36 -17 c-9 -9 -15 -9 -24 0 -9 9 -7 12 12 12 19 0 21 -3 12 -12z"/>
<path d="M1950 926 c-15 -19 -9 -56 12 -69 34 -22 66 41 36 71 -16 16 -33 15
-48 -2z m47 -40 c-8 -20 -36 -21 -43 -1 -4 8 0 22 7 31 11 13 14 13 27 0 8 -8
12 -22 9 -30z"/>
<path d="M2048 933 c-13 -3 -18 -15 -18 -39 0 -19 5 -34 10 -34 6 0 10 14 10
30 0 23 5 30 19 30 15 0 21 -9 24 -32 4 -27 4 -25 3 7 -1 41 -11 48 -48 38z"/>
<path d="M2132 928 c-16 -16 -15 -53 3 -68 18 -15 52 -4 60 20 13 43 -33 78
-63 48z m46 -30 c-5 -34 -38 -37 -38 -4 0 20 5 26 21 26 15 0 20 -5 17 -22z"/>
<path d="M1779 753 c-6 -16 -8 -43 -5 -62 10 -62 21 -51 21 20 0 38 -1 69 -3
69 -1 0 -7 -12 -13 -27z"/>
<path d="M2056 755 c4 -16 8 -37 8 -45 0 -8 -4 -28 -8 -45 -6 -25 -5 -28 6
-17 7 7 13 35 13 62 0 27 -6 55 -13 62 -11 11 -12 8 -6 -17z"/>
<path d="M1910 763 c0 -5 11 -9 25 -9 14 -1 22 2 19 7 -6 11 -44 12 -44 2z"/>
<path d="M2142 761 c-18 -11 -11 -45 8 -47 10 -1 11 1 2 3 -18 6 -11 38 8 38
10 0 15 -11 15 -35 0 -30 -3 -35 -23 -34 -16 0 -20 -2 -12 -10 29 -29 66 47
39 80 -13 16 -19 17 -37 5z"/>
<path d="M2275 760 c-3 -5 0 -7 8 -4 20 7 33 -16 16 -28 -11 -7 -11 -11 -1
-15 16 -6 16 -33 -1 -33 -7 0 -19 6 -26 13 -11 10 -13 9 -9 -3 3 -8 16 -15 29
-15 21 0 24 5 25 40 2 46 -24 73 -41 45z"/>
<path d="M2357 763 c-3 -5 6 -9 19 -9 13 -1 21 2 18 7 -6 11 -31 12 -37 2z"/>
<path d="M2433 758 c-5 -7 -9 -29 -9 -48 1 -30 4 -35 26 -35 22 0 25 4 26 40
2 49 -21 71 -43 43z m29 -13 c0 -5 -5 -11 -11 -13 -6 -2 -11 4 -11 13 0 9 5
15 11 13 6 -2 11 -8 11 -13z m8 -56 c0 -12 -27 -11 -35 1 -11 17 5 32 21 19 8
-6 14 -15 14 -20z"/>
<path d="M2637 763 c-2 -4 -7 -25 -11 -45 -6 -32 -4 -37 15 -43 26 -9 55 16
43 37 -5 7 -8 22 -9 33 0 20 -29 33 -38 18z m31 -21 c2 -7 -3 -12 -12 -12 -9
0 -16 7 -16 16 0 17 22 14 28 -4z m2 -48 c0 -8 -7 -14 -15 -14 -8 0 -15 9 -15
20 0 13 5 18 15 14 8 -4 15 -12 15 -20z"/>
<path d="M2714 755 c-3 -8 -4 -20 -1 -27 3 -7 6 -2 6 11 1 18 5 22 21 18 11
-3 18 -1 14 4 -8 14 -34 11 -40 -6z"/>
<path d="M2849 768 c-6 -31 -1 -98 7 -98 14 0 18 87 4 95 -5 3 -10 5 -11 3z"/>
<path d="M2895 760 c-3 -6 1 -7 9 -4 18 7 21 14 7 14 -6 0 -13 -4 -16 -10z"/>
<path d="M2969 765 c-8 -7 3 -95 12 -95 12 0 12 87 0 94 -4 3 -10 4 -12 1z"/>
<path d="M1999 743 c-9 -11 -10 -14 -1 -9 9 5 12 -3 12 -28 0 -20 5 -36 11
-36 7 0 9 15 5 42 -7 50 -9 53 -27 31z"/>
<path d="M2583 715 c-1 -25 3 -45 8 -45 5 0 9 20 9 45 0 59 -14 59 -17 0z"/>
<path d="M2789 751 c9 -6 12 -21 9 -45 -2 -21 0 -36 7 -36 6 0 9 18 7 45 -3
34 -8 45 -21 45 -13 0 -13 -2 -2 -9z"/>
<path d="M2920 731 c-6 -16 -10 -38 -7 -48 3 -13 5 -11 6 7 0 14 8 36 17 48 8
12 11 22 6 22 -5 0 -15 -13 -22 -29z"/>
<path d="M1905 730 c-3 -5 -1 -10 4 -10 6 0 11 5 11 10 0 6 -2 10 -4 10 -3 0
-8 -4 -11 -10z"/>
<path d="M1938 717 c8 -9 11 -21 7 -27 -9 -14 -32 -13 -38 3 -4 9 -6 9 -6 0
-1 -17 16 -25 40 -18 23 8 23 46 -1 53 -13 5 -13 3 -2 -11z"/>
<path d="M2378 717 c18 -21 6 -40 -21 -33 -14 3 -17 2 -9 -6 5 -5 20 -7 32 -3
24 8 25 45 0 53 -13 5 -13 3 -2 -11z"/>
<path d="M2555 719 c-4 -6 -5 -12 -2 -15 2 -3 7 2 10 11 7 17 1 20 -8 4z"/>
<path d="M2738 723 c6 -2 12 -14 12 -25 0 -17 -4 -19 -26 -14 -17 5 -23 3 -19
-4 10 -16 43 -12 54 8 11 20 -3 43 -23 41 -6 0 -5 -3 2 -6z"/>
<path d="M1840 710 c0 -5 5 -10 10 -10 6 0 10 5 10 10 0 6 -4 10 -10 10 -5 0
-10 -4 -10 -10z"/>
</g>
</svg>
